<svg width="1180" height="40" viewBox="0 0 1180 40" fill="none" xmlns="http://www.w3.org/2000/svg">
<path d="M1.20699 0.627197V3.59933L423.725 4.05341C428.433 4.05341 433.092 5.06476 437.171 7.10811C442.41 9.72937 447.072 15.8852 454 24.5952C458.128 29.7965 466.224 31.3135 472.5 34.5952C474.89 35.8542 489.868 37.9027 491.292 37.9647C495.831 38.1917 549.614 38.5632 549.614 38.5632L686.052 38.5219C703.36 38.5219 719.848 31.298 729.166 18.8315C729.649 18.1917 730.107 17.5312 730.566 16.8707C730.566 16.8707 731.145 16.1277 732.231 14.9925C735.756 11.3393 744.712 3.68189 757.554 3.84701C760.065 3.88829 771.241 3.90893 788.429 3.90893C886.219 3.95021 1178.77 3.61997 1178.77 3.61997V1.47343L1.20699 0.627197Z" fill="#A01F23" stroke="#A12024" stroke-miterlimit="10"/>
</svg>
