<svg xmlns="http://www.w3.org/2000/svg" fill="none" viewBox="0 51.598814000000004 149.3963782696177 46.81" style="max-height: 500px" width="149.3963782696177" height="46.81">
<mask height="46" width="148" y="52" x="1" maskUnits="userSpaceOnUse" style="mask-type:luminance" id="mask0_18_125">
<path fill="white" d="M148.5 52.1904H1V97.9904H148.5V52.1904Z"/>
</mask>
<g mask="url(#mask0_18_125)">
<path fill="#6CB33F" d="M25.2 59.4904C26.3 59.4904 27.1 59.4904 27.5 59.5904C28.4 59.6904 28.6 59.9904 28.7 60.5904V63.4904C31.1 63.4904 33.6 63.4904 36 63.5904C35.8 59.9904 35.3 56.7904 34.9 55.0904C31.6 53.2904 27.8 52.1904 23.8 52.1904C20 52.1904 16.4 53.0904 13.3 54.7904C12.8 55.5904 12.3 58.1904 12.2 60.1904C15 59.7904 18.5 59.4904 22.2 59.3904C23.2 59.3904 24.2 59.3904 25.2 59.4904Z"/>
</g>
<mask height="46" width="148" y="52" x="1" maskUnits="userSpaceOnUse" style="mask-type:luminance" id="mask1_18_125">
<path fill="white" d="M148.5 52.1904H1V97.9904H148.5V52.1904Z"/>
</mask>
<g mask="url(#mask1_18_125)">
<path fill="#FBAF34" d="M9.29999 92.0904C9.29999 91.9904 9.19999 91.8904 9.19999 91.6904C9.19999 91.5904 9.19999 91.5904 9.09999 91.4904C9.09999 91.3904 8.99999 91.2904 8.99999 91.1904C8.99999 91.0904 8.99999 91.0904 8.89999 90.9904C8.89999 90.8904 8.89999 90.7904 8.79999 90.6904C8.79999 90.5904 8.79999 90.5904 8.69999 90.4904C8.69999 90.3904 8.69999 90.2904 8.59999 90.1904C8.59999 90.0904 8.59999 90.0904 8.59999 89.9904C8.59999 89.8904 8.59999 89.7904 8.49999 89.6904C8.49999 89.5904 8.49999 89.5904 8.49999 89.4904C8.49999 89.3904 8.49999 89.2904 8.39999 89.1904V89.0904C8.39999 88.9904 8.29999 88.8904 8.29999 88.6904V88.5904C8.29999 88.4904 8.29999 88.4904 8.29999 88.3904C8.29999 88.2904 8.29999 88.2904 8.29999 88.1904C8.29999 88.0904 8.29999 88.0904 8.29999 87.9904C8.29999 87.8904 8.29999 87.8904 8.29999 87.7904C8.29999 87.6904 8.29999 87.6904 8.29999 87.5904C8.29999 87.4904 8.29999 87.4904 8.29999 87.3904V87.2904C8.29999 87.1904 8.29999 87.1904 8.29999 87.1904V87.0904V86.9904V86.8904V86.7904V86.6904C8.29999 86.5904 8.29999 86.4904 8.29999 86.3904V86.2904C8.29999 86.2904 8.29999 86.2904 8.29999 86.1904V86.0904C8.29999 86.0904 8.29999 86.0904 8.29999 85.9904V85.8904C8.29999 85.8904 8.29999 85.8904 8.29999 85.7904V85.6904V85.5904V85.4904C8.39999 85.3904 8.39999 85.1904 8.49999 85.0904C8.49999 85.0904 8.49999 85.0904 8.59999 84.9904C8.59999 84.9904 8.59999 84.9904 8.69999 84.9904C8.69999 84.9904 8.69999 84.9904 8.79999 84.9904H8.89999C8.99999 84.8904 9.19999 84.8904 9.29999 84.8904C9.49999 84.8904 9.59999 84.8904 9.79999 84.8904C9.89999 84.8904 10.1 84.8904 10.2 84.8904C10.5 84.8904 11.2 84.9904 12.3 85.0904C12.4 85.0904 12.5 85.0904 12.6 85.0904C12.6 83.1904 12.7 81.8904 12.7 81.8904C12.7 81.8904 6.49999 81.6904 1.89999 80.8904C3.19999 85.5904 5.89999 89.6904 9.59999 92.6904C9.49999 92.4904 9.49999 92.2904 9.39999 92.0904C9.29999 92.1904 9.29999 92.1904 9.29999 92.0904Z"/>
</g>
<mask height="46" width="148" y="52" x="1" maskUnits="userSpaceOnUse" style="mask-type:luminance" id="mask2_18_125">
<path fill="white" d="M148.5 52.1904H1V97.9904H148.5V52.1904Z"/>
</mask>
<g mask="url(#mask2_18_125)">
<path fill="#F15D22" d="M16.3 91.0905C14.5 91.0905 14.5 90.0905 14.5 89.5905C14.5 89.3905 14.5 87.6905 14.4 85.3905C13.7 85.2905 13.1 85.2905 12.5 85.1905C11.2 85.0905 10.4 84.9905 10.1 84.9905C10.1 84.9905 10.1 84.9905 10.2 84.9905C10.2 84.9905 10.2 84.9905 10.1 84.9905C9.89999 84.9905 9.79999 84.9905 9.69999 84.9905C9.49999 84.9905 9.39999 84.9905 9.19999 84.9905C8.99999 84.9905 8.89999 84.9905 8.79999 85.0905H8.69999C8.69999 85.0905 8.69999 85.0905 8.59999 85.0905C8.59999 85.0905 8.59999 85.0905 8.49999 85.0905C8.49999 85.0905 8.49999 85.0905 8.39999 85.1905C8.39999 85.3905 8.29999 85.4905 8.29999 85.5905V85.6905V85.7905V85.8905C8.29999 85.8905 8.29999 85.8905 8.29999 85.9905V86.0905C8.29999 86.0905 8.29999 86.0905 8.29999 86.1905V86.2905C8.29999 86.2905 8.29999 86.2905 8.29999 86.3905V86.4905C8.29999 86.5905 8.29999 86.6905 8.29999 86.7905V86.8905V86.9905V87.0905V87.1905V87.2905V87.3905V87.4905C8.29999 87.4905 8.29999 87.5905 8.29999 87.6905C8.29999 87.6905 8.29999 87.7905 8.29999 87.8905C8.29999 87.9905 8.29999 87.9905 8.29999 88.0905C8.29999 88.1905 8.29999 88.1905 8.29999 88.2905C8.29999 88.3905 8.29999 88.3905 8.29999 88.4905C8.29999 88.5905 8.29999 88.5905 8.29999 88.6905V88.7905C8.29999 88.8905 8.39999 88.9905 8.39999 89.1905V89.2905C8.39999 89.3905 8.39999 89.4905 8.49999 89.5905C8.49999 89.6905 8.49999 89.6905 8.49999 89.7905C8.49999 89.8905 8.49999 89.9905 8.59999 89.9905C8.59999 90.0905 8.59999 90.0905 8.69999 90.1905C8.69999 90.2905 8.69999 90.3905 8.79999 90.4905C8.79999 90.5905 8.79999 90.5905 8.89999 90.6905C8.89999 90.7905 8.89999 90.8905 8.99999 90.9905C8.99999 91.0905 8.99999 91.0905 9.09999 91.1905C9.09999 91.2905 9.19999 91.3905 9.19999 91.4905C9.19999 91.5905 9.19999 91.5905 9.29999 91.6905C9.29999 91.7905 9.39999 91.8905 9.39999 92.0905C9.39999 92.1905 9.39999 92.1905 9.49999 92.2905C9.59999 92.4905 9.59999 92.6905 9.69999 92.8905C13.6 96.0905 18.6 97.9905 24.1 97.9905C31.2 97.9905 37.5 94.7905 41.7 89.7905C37.8 90.5905 30.3 91.7905 16.3 91.0905Z"/>
</g>
<mask height="46" width="148" y="52" x="1" maskUnits="userSpaceOnUse" style="mask-type:luminance" id="mask3_18_125">
<path fill="white" d="M148.5 52.1904H1V97.9904H148.5V52.1904Z"/>
</mask>
<g mask="url(#mask3_18_125)">
<path fill="#002D62" d="M28.8 63.4903L28.7 60.5903L28.8 63.4903Z"/>
</g>
<mask height="46" width="148" y="52" x="1" maskUnits="userSpaceOnUse" style="mask-type:luminance" id="mask4_18_125">
<path fill="white" d="M148.5 52.1904H1V97.9904H148.5V52.1904Z"/>
</mask>
<g mask="url(#mask4_18_125)">
<path fill="#002D62" d="M28.8 63.4905V60.5905C28.8 59.9905 28.5 59.6905 27.6 59.5905C27.1 59.4905 26.3 59.4905 25.3 59.4905C24.3 59.4905 23.3 59.4905 22.3 59.4905C18.6 59.5905 15.2 59.8905 12.3 60.2905C9.20001 60.6905 6.90001 61.1905 5.70001 61.3905C2.80001 65.1905 1.10001 69.9905 1.10001 75.0905C1.10001 76.6905 1.30001 78.1905 1.60001 79.6905C4.70001 79.8905 9.70001 80.0905 14.4 80.1905C14.3 75.8905 14.3 72.0905 14.3 72.0905C14.3 72.0905 14.1 70.6905 15.5 70.4905H15.6C15.7 70.4905 15.7 70.4905 15.8 70.4905C16.7 70.4905 22.3 70.3905 29 70.3905L28.8 63.4905Z"/>
</g>
<mask height="46" width="148" y="52" x="1" maskUnits="userSpaceOnUse" style="mask-type:luminance" id="mask5_18_125">
<path fill="white" d="M148.5 52.1904H1V97.9904H148.5V52.1904Z"/>
</mask>
<g mask="url(#mask5_18_125)">
<path fill="#B2BCE0" d="M15.7 70.3905C16.6 70.3905 22.2 70.2905 28.9 70.2905C22.1 70.2905 16.6 70.3905 15.7 70.3905Z"/>
</g>
<mask height="46" width="148" y="52" x="1" maskUnits="userSpaceOnUse" style="mask-type:luminance" id="mask6_18_125">
<path fill="white" d="M148.5 52.1904H1V97.9904H148.5V52.1904Z"/>
</mask>
<g mask="url(#mask6_18_125)">
<path fill="#B2BCE0" d="M28.9 78.5904L28.8 70.3904C22.1 70.3904 16.5 70.4904 15.6 70.4904C15.5 70.4904 15.5 70.4904 15.4 70.4904H15.3C13.9 70.6904 14.1 72.0904 14.1 72.0904C14.1 72.0904 14.2 75.8904 14.2 80.1904C19.9 80.2904 25.2 80.2904 26.5 80.2904C29.2 80.1904 28.9 78.5904 28.9 78.5904Z"/>
</g>
<mask height="46" width="148" y="52" x="1" maskUnits="userSpaceOnUse" style="mask-type:luminance" id="mask7_18_125">
<path fill="white" d="M148.5 52.1904H1V97.9904H148.5V52.1904Z"/>
</mask>
<g mask="url(#mask7_18_125)">
<path fill="#005CAB" d="M46.4 70.8904C41.2 70.4904 34.6 70.3904 28.8 70.3904L28.9 78.5904C28.9 78.5904 29.1 80.2904 26.6 80.2904C25.3 80.2904 20 80.2904 14.3 80.1904C14.4 84.6904 14.5 89.2904 14.5 89.5904C14.5 90.0904 14.4 91.0904 16.3 91.0904C30.3 91.7904 37.9 90.5904 41.5 89.6904C44.8 85.6904 46.8 80.5904 46.8 74.9904C46.8 73.6904 46.7 72.2904 46.4 70.8904Z"/>
</g>
<mask height="46" width="148" y="52" x="1" maskUnits="userSpaceOnUse" style="mask-type:luminance" id="mask8_18_125">
<path fill="white" d="M148.5 52.1904H1V97.9904H148.5V52.1904Z"/>
</mask>
<g mask="url(#mask8_18_125)">
<path fill="#036CB6" d="M16.3 91.0904C30.3 91.7904 37.9 90.5904 41.5 89.6904C37.8 90.5904 30.3 91.7904 16.3 91.0904Z"/>
</g>
<mask height="46" width="148" y="52" x="1" maskUnits="userSpaceOnUse" style="mask-type:luminance" id="mask9_18_125">
<path fill="white" d="M148.5 52.1904H1V97.9904H148.5V52.1904Z"/>
</mask>
<g mask="url(#mask9_18_125)">
<path fill="#717073" d="M35 55.0903C35.4 56.7903 35.9 59.9903 36.1 63.5903C36.2 64.6903 36.2 65.8903 36.1 67.0903C36.1 68.8903 36.7 68.7903 38.4 68.8903C39.7 68.9903 43 68.8903 46.1 69.3903C44.5 63.1903 40.4 58.0903 35 55.0903Z"/>
</g>
<mask height="46" width="148" y="52" x="1" maskUnits="userSpaceOnUse" style="mask-type:luminance" id="mask10_18_125">
<path fill="white" d="M148.5 52.1904H1V97.9904H148.5V52.1904Z"/>
</mask>
<g mask="url(#mask10_18_125)">
<path fill="#005CAB" d="M52.9 87.3904H54.1V91.8904H56.9V92.9904H52.9V87.3904Z"/>
</g>
<mask height="46" width="148" y="52" x="1" maskUnits="userSpaceOnUse" style="mask-type:luminance" id="mask11_18_125">
<path fill="white" d="M148.5 52.1904H1V97.9904H148.5V52.1904Z"/>
</mask>
<g mask="url(#mask11_18_125)">
<path fill="#005CAB" d="M59.1 92.1905C59.9 92.1905 60.1 91.5905 60.1 90.8905C60.1 90.2905 59.9 89.5905 59.1 89.5905C58.3 89.5905 58.1 90.2905 58.1 90.8905C58.2 91.5905 58.4 92.1905 59.1 92.1905ZM59.1 88.7905C60.4 88.7905 61.2 89.5905 61.2 90.8905C61.2 92.1905 60.4 92.9905 59.1 92.9905C57.8 92.9905 57 92.1905 57 90.8905C57 89.5905 57.9 88.7905 59.1 88.7905Z"/>
</g>
<mask height="46" width="148" y="52" x="1" maskUnits="userSpaceOnUse" style="mask-type:luminance" id="mask12_18_125">
<path fill="white" d="M148.5 52.1904H1V97.9904H148.5V52.1904Z"/>
</mask>
<g mask="url(#mask12_18_125)">
<path fill="#005CAB" d="M64.3 90.2905C64.2 89.7905 63.9 89.5905 63.5 89.5905C62.8 89.5905 62.6 90.2905 62.6 90.8905C62.6 91.4905 62.8 92.1905 63.5 92.1905C64 92.1905 64.3 91.8905 64.4 91.3905H65.5C65.4 92.4905 64.6 93.0905 63.6 93.0905C62.4 93.0905 61.6 92.1905 61.6 90.9905C61.6 89.6905 62.4 88.7905 63.7 88.7905C64.7 88.7905 65.5 89.2905 65.6 90.2905H64.3Z"/>
</g>
<mask height="46" width="148" y="52" x="1" maskUnits="userSpaceOnUse" style="mask-type:luminance" id="mask13_18_125">
<path fill="white" d="M148.5 52.1904H1V97.9904H148.5V52.1904Z"/>
</mask>
<g mask="url(#mask13_18_125)">
<path fill="#005CAB" d="M68.3 90.9904C68.1 91.1904 67.7 91.1904 67.4 91.1904C67.1 91.2904 66.7 91.3904 66.7 91.7904C66.7 92.1904 67 92.2904 67.4 92.2904C68.3 92.2904 68.3 91.5904 68.3 91.3904V90.9904ZM65.7 90.0904C65.8 89.0904 66.7 88.6904 67.6 88.6904C68.4 88.6904 69.4 88.8904 69.4 89.8904V91.9904C69.4 92.3904 69.4 92.6904 69.5 92.8904H68.4C68.4 92.7904 68.3 92.5904 68.3 92.4904C67.9 92.8904 67.4 92.9904 66.9 92.9904C66.1 92.9904 65.5 92.5904 65.5 91.7904C65.5 90.8904 66.2 90.6904 66.9 90.5904C67.6 90.4904 68.2 90.4904 68.2 90.0904C68.2 89.5904 67.9 89.5904 67.5 89.5904C67.1 89.5904 66.8 89.7904 66.8 90.1904H65.7V90.0904Z"/>
</g>
<mask height="46" width="148" y="52" x="1" maskUnits="userSpaceOnUse" style="mask-type:luminance" id="mask14_18_125">
<path fill="white" d="M148.5 52.1904H1V97.9904H148.5V52.1904Z"/>
</mask>
<g mask="url(#mask14_18_125)">
<path fill="#005CAB" d="M71.1 87.3904H70V92.9904H71.1V87.3904Z"/>
</g>
<mask height="46" width="148" y="52" x="1" maskUnits="userSpaceOnUse" style="mask-type:luminance" id="mask15_18_125">
<path fill="white" d="M148.5 52.1904H1V97.9904H148.5V52.1904Z"/>
</mask>
<g mask="url(#mask15_18_125)">
<path fill="#005CAB" d="M75.5 92.8904H74.3L72.9 88.8904H74.1L74.9 91.6904L75.8 88.8904H76.9L75.5 92.8904Z"/>
</g>
<mask height="46" width="148" y="52" x="1" maskUnits="userSpaceOnUse" style="mask-type:luminance" id="mask16_18_125">
<path fill="white" d="M148.5 52.1904H1V97.9904H148.5V52.1904Z"/>
</mask>
<g mask="url(#mask16_18_125)">
<path fill="#005CAB" d="M78.9 92.1905C79.7 92.1905 79.9 91.5905 79.9 90.8905C79.9 90.2905 79.7 89.5905 78.9 89.5905C78.1 89.5905 77.9 90.2905 77.9 90.8905C77.9 91.5905 78.1 92.1905 78.9 92.1905ZM78.9 88.7905C80.2 88.7905 81 89.5905 81 90.8905C81 92.1905 80.2 92.9905 78.9 92.9905C77.6 92.9905 76.8 92.1905 76.8 90.8905C76.8 89.5905 77.6 88.7905 78.9 88.7905Z"/>
</g>
<mask height="46" width="148" y="52" x="1" maskUnits="userSpaceOnUse" style="mask-type:luminance" id="mask17_18_125">
<path fill="white" d="M148.5 52.1904H1V97.9904H148.5V52.1904Z"/>
</mask>
<g mask="url(#mask17_18_125)">
<path fill="#005CAB" d="M81.3 88.8904H82.4V92.8904H81.3V88.8904ZM82.4 88.2904H81.3V87.3904H82.4V88.2904Z"/>
</g>
<mask height="46" width="148" y="52" x="1" maskUnits="userSpaceOnUse" style="mask-type:luminance" id="mask18_18_125">
<path fill="white" d="M148.5 52.1904H1V97.9904H148.5V52.1904Z"/>
</mask>
<g mask="url(#mask18_18_125)">
<path fill="#005CAB" d="M85.6 90.2905C85.6 89.8905 85.3 89.5905 84.8 89.5905C84.1 89.5905 83.9 90.2905 83.9 90.8905C83.9 91.4905 84.1 92.1905 84.8 92.1905C85.3 92.1905 85.6 91.8905 85.7 91.3905H86.8C86.7 92.4905 85.9 93.0905 84.9 93.0905C83.7 93.0905 82.9 92.1905 82.9 90.9905C82.9 89.6905 83.7 88.7905 85 88.7905C86 88.7905 86.8 89.2905 86.9 90.2905H85.6Z"/>
</g>
<mask height="46" width="148" y="52" x="1" maskUnits="userSpaceOnUse" style="mask-type:luminance" id="mask19_18_125">
<path fill="white" d="M148.5 52.1904H1V97.9904H148.5V52.1904Z"/>
</mask>
<g mask="url(#mask19_18_125)">
<path fill="#005CAB" d="M89.8 90.4904C89.7 89.8904 89.5 89.5904 88.9 89.5904C88.2 89.5904 88 90.0904 88 90.4904H89.8ZM88 91.1904C88 91.8904 88.4 92.1904 89 92.1904C89.4 92.1904 89.8 91.8904 89.9 91.6904H90.9C90.6 92.6904 89.9 93.0904 89 93.0904C87.7 93.0904 86.9 92.1904 86.9 90.9904C86.9 89.7904 87.7 88.8904 89 88.8904C90.4 88.8904 91 90.0904 91 91.2904H88V91.1904Z"/>
</g>
<mask height="46" width="148" y="52" x="1" maskUnits="userSpaceOnUse" style="mask-type:luminance" id="mask20_18_125">
<path fill="white" d="M148.5 52.1904H1V97.9904H148.5V52.1904Z"/>
</mask>
<g mask="url(#mask20_18_125)">
<path fill="#005CAB" d="M92.2 91.5905C92.2 92.0905 92.6 92.2905 93.1 92.2905C93.4 92.2905 93.8 92.1905 93.8 91.7905C93.8 91.4905 93.3 91.2905 92.5 91.1905C91.9 91.0905 91.2 90.7905 91.2 90.0905C91.2 89.0905 92.1 88.7905 93 88.7905C93.9 88.7905 94.7 89.0905 94.8 90.0905H93.7C93.7 89.6905 93.3 89.5905 92.9 89.5905C92.6 89.5905 92.3 89.5905 92.3 89.9905C92.3 90.3905 92.9 90.4905 93.6 90.5905C94.3 90.6905 94.9 90.9905 94.9 91.6905C94.9 92.7905 94 93.0905 93.1 93.0905C92.2 93.0905 91.2 92.6905 91.2 91.6905H92.2V91.5905Z"/>
</g>
<mask height="46" width="148" y="52" x="1" maskUnits="userSpaceOnUse" style="mask-type:luminance" id="mask21_18_125">
<path fill="white" d="M148.5 52.1904H1V97.9904H148.5V52.1904Z"/>
</mask>
<g mask="url(#mask21_18_125)">
<path fill="#005CAB" d="M96.3 91.6904H95.1V92.8904H96.3V91.6904Z"/>
</g>
<mask height="46" width="148" y="52" x="1" maskUnits="userSpaceOnUse" style="mask-type:luminance" id="mask22_18_125">
<path fill="white" d="M148.5 52.1904H1V97.9904H148.5V52.1904Z"/>
</mask>
<g mask="url(#mask22_18_125)">
<path fill="#005CAB" d="M102.4 92.2904C102 92.8904 101.4 93.0904 100.9 93.0904C99.2 93.0904 98.2 91.7904 98.2 90.1904C98.2 88.4904 99.2 87.1904 100.9 87.1904C102 87.1904 103.1 87.8904 103.3 89.1904H102.1C102 88.5904 101.5 88.2904 100.9 88.2904C99.8 88.2904 99.4 89.1904 99.4 90.1904C99.4 91.0904 99.8 92.0904 100.9 92.0904C101.7 92.0904 102.2 91.6904 102.2 90.8904H101V89.9904H103.3V92.9904H102.5L102.4 92.2904Z"/>
</g>
<mask height="46" width="148" y="52" x="1" maskUnits="userSpaceOnUse" style="mask-type:luminance" id="mask23_18_125">
<path fill="white" d="M148.5 52.1904H1V97.9904H148.5V52.1904Z"/>
</mask>
<g mask="url(#mask23_18_125)">
<path fill="#005CAB" d="M105.1 87.3904H104V92.9904H105.1V87.3904Z"/>
</g>
<mask height="46" width="148" y="52" x="1" maskUnits="userSpaceOnUse" style="mask-type:luminance" id="mask24_18_125">
<path fill="white" d="M148.5 52.1904H1V97.9904H148.5V52.1904Z"/>
</mask>
<g mask="url(#mask24_18_125)">
<path fill="#005CAB" d="M107.5 92.1905C108.3 92.1905 108.5 91.5905 108.5 90.8905C108.5 90.2905 108.3 89.5905 107.5 89.5905C106.7 89.5905 106.5 90.2905 106.5 90.8905C106.5 91.5905 106.7 92.1905 107.5 92.1905ZM107.5 88.7905C108.8 88.7905 109.6 89.5905 109.6 90.8905C109.6 92.1905 108.8 92.9905 107.5 92.9905C106.2 92.9905 105.4 92.1905 105.4 90.8905C105.4 89.5905 106.2 88.7905 107.5 88.7905Z"/>
</g>
<mask height="46" width="148" y="52" x="1" maskUnits="userSpaceOnUse" style="mask-type:luminance" id="mask25_18_125">
<path fill="white" d="M148.5 52.1904H1V97.9904H148.5V52.1904Z"/>
</mask>
<g mask="url(#mask25_18_125)">
<path fill="#005CAB" d="M111.9 89.5904C111.2 89.5904 111 90.1904 111 90.8904C111 91.5904 111.3 92.1904 111.9 92.1904C112.6 92.1904 112.8 91.5904 112.8 90.8904C112.8 90.2904 112.5 89.5904 111.9 89.5904ZM109.9 87.3904H111V89.3904C111.3 88.9904 111.8 88.7904 112.3 88.7904C113.1 88.7904 114 89.3904 114 90.8904C114 92.3904 113.1 92.9904 112.3 92.9904C111.7 92.9904 111.2 92.7904 111 92.3904V92.8904H109.9V87.3904Z"/>
</g>
<mask height="46" width="148" y="52" x="1" maskUnits="userSpaceOnUse" style="mask-type:luminance" id="mask26_18_125">
<path fill="white" d="M148.5 52.1904H1V97.9904H148.5V52.1904Z"/>
</mask>
<g mask="url(#mask26_18_125)">
<path fill="#005CAB" d="M116.9 90.9904C116.7 91.1904 116.3 91.1904 116 91.1904C115.7 91.2904 115.3 91.3904 115.3 91.7904C115.3 92.1904 115.6 92.2904 116 92.2904C116.9 92.2904 116.9 91.5904 116.9 91.3904V90.9904ZM114.3 90.0904C114.4 89.0904 115.3 88.6904 116.2 88.6904C117 88.6904 118 88.8904 118 89.8904V91.9904C118 92.3904 118 92.6904 118.1 92.8904H117C117 92.7904 116.9 92.5904 116.9 92.4904C116.5 92.8904 116 92.9904 115.5 92.9904C114.7 92.9904 114.1 92.5904 114.1 91.7904C114.1 90.8904 114.8 90.6904 115.5 90.5904C116.2 90.4904 116.8 90.4904 116.8 90.0904C116.8 89.5904 116.5 89.5904 116.1 89.5904C115.7 89.5904 115.4 89.7904 115.4 90.1904H114.3V90.0904Z"/>
</g>
<mask height="46" width="148" y="52" x="1" maskUnits="userSpaceOnUse" style="mask-type:luminance" id="mask27_18_125">
<path fill="white" d="M148.5 52.1904H1V97.9904H148.5V52.1904Z"/>
</mask>
<g mask="url(#mask27_18_125)">
<path fill="#005CAB" d="M119.7 87.3904H118.6V92.9904H119.7V87.3904Z"/>
</g>
<mask height="46" width="148" y="52" x="1" maskUnits="userSpaceOnUse" style="mask-type:luminance" id="mask28_18_125">
<path fill="white" d="M148.5 52.1904H1V97.9904H148.5V52.1904Z"/>
</mask>
<g mask="url(#mask28_18_125)">
<path fill="#005CAB" d="M124.7 90.2905C124.6 89.7905 124.3 89.5905 123.9 89.5905C123.2 89.5905 123 90.2905 123 90.8905C123 91.4905 123.2 92.1905 123.9 92.1905C124.4 92.1905 124.7 91.8905 124.8 91.3905H125.9C125.8 92.4905 125 93.0905 124 93.0905C122.8 93.0905 122 92.1905 122 90.9905C122 89.6905 122.8 88.7905 124.1 88.7905C125.1 88.7905 125.9 89.2905 126 90.2905H124.7Z"/>
</g>
<mask height="46" width="148" y="52" x="1" maskUnits="userSpaceOnUse" style="mask-type:luminance" id="mask29_18_125">
<path fill="white" d="M148.5 52.1904H1V97.9904H148.5V52.1904Z"/>
</mask>
<g mask="url(#mask29_18_125)">
<path fill="#005CAB" d="M126.1 87.3904H127.2V89.4904C127.5 88.9904 128 88.7904 128.4 88.7904C129.6 88.7904 129.9 89.4904 129.9 90.4904V92.9904H128.8V90.6904C128.8 89.9904 128.6 89.6904 128.1 89.6904C127.5 89.6904 127.2 89.9904 127.2 90.8904V92.9904H126.1V87.3904Z"/>
</g>
<mask height="46" width="148" y="52" x="1" maskUnits="userSpaceOnUse" style="mask-type:luminance" id="mask30_18_125">
<path fill="white" d="M148.5 52.1904H1V97.9904H148.5V52.1904Z"/>
</mask>
<g mask="url(#mask30_18_125)">
<path fill="#005CAB" d="M133 90.9904C132.8 91.1904 132.4 91.1904 132.1 91.1904C131.8 91.2904 131.4 91.3904 131.4 91.7904C131.4 92.1904 131.7 92.2904 132.1 92.2904C133 92.2904 133 91.5904 133 91.3904V90.9904ZM130.5 90.0904C130.6 89.0904 131.5 88.6904 132.4 88.6904C133.2 88.6904 134.2 88.8904 134.2 89.8904V91.9904C134.2 92.3904 134.2 92.6904 134.3 92.8904H133.2C133.2 92.7904 133.1 92.5904 133.1 92.4904C132.7 92.8904 132.2 92.9904 131.7 92.9904C130.9 92.9904 130.3 92.5904 130.3 91.7904C130.3 90.8904 131 90.6904 131.7 90.5904C132.4 90.4904 133 90.4904 133 90.0904C133 89.5904 132.7 89.5904 132.3 89.5904C131.9 89.5904 131.6 89.7904 131.6 90.1904H130.5V90.0904Z"/>
</g>
<mask height="46" width="148" y="52" x="1" maskUnits="userSpaceOnUse" style="mask-type:luminance" id="mask31_18_125">
<path fill="white" d="M148.5 52.1904H1V97.9904H148.5V52.1904Z"/>
</mask>
<g mask="url(#mask31_18_125)">
<path fill="#005CAB" d="M134.6 88.8905H135.7V89.4905C136 88.9905 136.5 88.7905 136.9 88.7905C138.1 88.7905 138.4 89.4905 138.4 90.4905V92.9905H137.3V90.6905C137.3 89.9905 137.1 89.6905 136.6 89.6905C136 89.6905 135.7 89.9905 135.7 90.8905V92.9905H134.6V88.8905Z"/>
</g>
<mask height="46" width="148" y="52" x="1" maskUnits="userSpaceOnUse" style="mask-type:luminance" id="mask32_18_125">
<path fill="white" d="M148.5 52.1904H1V97.9904H148.5V52.1904Z"/>
</mask>
<g mask="url(#mask32_18_125)">
<path fill="#005CAB" d="M141.6 90.8904C141.6 90.1904 141.4 89.6904 140.7 89.6904C140.1 89.6904 139.8 90.1904 139.8 90.8904C139.8 91.4904 140 92.0904 140.7 92.0904C141.3 91.9904 141.6 91.4904 141.6 90.8904ZM142.7 92.6904C142.7 93.3904 142.5 94.4904 140.6 94.4904C139.8 94.4904 138.9 94.0904 138.8 93.1904H139.9C140 93.5904 140.3 93.7904 140.7 93.7904C141.3 93.7904 141.6 93.3904 141.6 92.7904V92.2904C141.4 92.6904 140.9 92.8904 140.4 92.8904C139.2 92.8904 138.7 91.9904 138.7 90.8904C138.7 89.8904 139.3 88.8904 140.4 88.8904C140.9 88.8904 141.3 89.0904 141.6 89.4904V88.9904H142.7V92.6904Z"/>
</g>
<mask height="46" width="148" y="52" x="1" maskUnits="userSpaceOnUse" style="mask-type:luminance" id="mask33_18_125">
<path fill="white" d="M148.5 52.1904H1V97.9904H148.5V52.1904Z"/>
</mask>
<g mask="url(#mask33_18_125)">
<path fill="#005CAB" d="M145.9 90.4904C145.8 89.8904 145.6 89.5904 145 89.5904C144.3 89.5904 144.1 90.0904 144.1 90.4904H145.9ZM144.1 91.1904C144.1 91.8904 144.5 92.1904 145.1 92.1904C145.5 92.1904 145.9 91.8904 146 91.6904H147C146.7 92.6904 146 93.0904 145.1 93.0904C143.8 93.0904 143 92.1904 143 90.9904C143 89.7904 143.8 88.8904 145.1 88.8904C146.5 88.8904 147.1 90.0904 147.1 91.2904H144.1V91.1904Z"/>
</g>
<mask height="46" width="148" y="52" x="1" maskUnits="userSpaceOnUse" style="mask-type:luminance" id="mask34_18_125">
<path fill="white" d="M148.5 52.1904H1V97.9904H148.5V52.1904Z"/>
</mask>
<g mask="url(#mask34_18_125)">
<path fill="#005CAB" d="M148.5 91.6904H147.3V92.8904H148.5V91.6904Z"/>
</g>
<mask height="46" width="148" y="52" x="1" maskUnits="userSpaceOnUse" style="mask-type:luminance" id="mask35_18_125">
<path fill="white" d="M148.5 52.1904H1V97.9904H148.5V52.1904Z"/>
</mask>
<g mask="url(#mask35_18_125)">
<path fill="#002D62" d="M56.3 67.4905H52.9V82.8905H56.3V67.4905Z"/>
</g>
<mask height="46" width="148" y="52" x="1" maskUnits="userSpaceOnUse" style="mask-type:luminance" id="mask36_18_125">
<path fill="white" d="M148.5 52.1904H1V97.9904H148.5V52.1904Z"/>
</mask>
<g mask="url(#mask36_18_125)">
<path fill="#002D62" d="M58.2 71.7905H61.1V73.3905H61.2C62 72.1905 63.3 71.4905 64.6 71.4905C67.9 71.4905 68.7 73.2905 68.7 76.0905V82.9905H65.6V76.5905C65.6 74.7905 65.1 73.8905 63.6 73.8905C61.9 73.8905 61.2 74.7905 61.2 77.0905V82.8905H58.1V71.7905H58.2Z"/>
</g>
<mask height="46" width="148" y="52" x="1" maskUnits="userSpaceOnUse" style="mask-type:luminance" id="mask37_18_125">
<path fill="white" d="M148.5 52.1904H1V97.9904H148.5V52.1904Z"/>
</mask>
<g mask="url(#mask37_18_125)">
<path fill="#002D62" d="M74.3 71.7904H76.5V73.7904H74.3V79.2904C74.3 80.2904 74.6 80.5904 75.6 80.5904C75.9 80.5904 76.2 80.5904 76.5 80.4904V82.8904C76 82.9904 75.3 82.9904 74.7 82.9904C72.8 82.9904 71.2 82.5904 71.2 80.2904V73.6904H69.3V71.6904H71.3V68.3904H74.3V71.7904Z"/>
</g>
<mask height="46" width="148" y="52" x="1" maskUnits="userSpaceOnUse" style="mask-type:luminance" id="mask38_18_125">
<path fill="white" d="M148.5 52.1904H1V97.9904H148.5V52.1904Z"/>
</mask>
<g mask="url(#mask38_18_125)">
<path fill="#002D62" d="M85.3 76.0905C85 74.4905 84.4 73.6905 82.9 73.6905C81 73.6905 80.4 75.1905 80.4 76.0905H85.3ZM80.3 78.0905C80.4 79.9905 81.3 80.8905 83 80.8905C84.2 80.8905 85.2 80.0905 85.4 79.4905H88.1C87.2 82.0905 85.4 83.2905 82.9 83.2905C79.4 83.2905 77.2 80.8905 77.2 77.3905C77.2 74.0905 79.5 71.4905 82.9 71.4905C86.7 71.4905 88.5 74.6905 88.3 78.0905H80.3Z"/>
</g>
<mask height="46" width="148" y="52" x="1" maskUnits="userSpaceOnUse" style="mask-type:luminance" id="mask39_18_125">
<path fill="white" d="M148.5 52.1904H1V97.9904H148.5V52.1904Z"/>
</mask>
<g mask="url(#mask39_18_125)">
<path fill="#002D62" d="M89.8 71.7905H92.7V73.8905C93.3 72.4905 94.8 71.4905 96.3 71.4905C96.5 71.4905 96.8 71.4905 97 71.5905V74.3905C96.7 74.2905 96.3 74.2905 95.9 74.2905C93.7 74.2905 92.9 75.8905 92.9 77.8905V82.8905H89.8V71.7905Z"/>
</g>
<mask height="46" width="148" y="52" x="1" maskUnits="userSpaceOnUse" style="mask-type:luminance" id="mask40_18_125">
<path fill="white" d="M148.5 52.1904H1V97.9904H148.5V52.1904Z"/>
</mask>
<g mask="url(#mask40_18_125)">
<path fill="#002D62" d="M98.1 71.7905H101V73.3905H101.1C101.9 72.1905 103.2 71.4905 104.5 71.4905C107.8 71.4905 108.6 73.2905 108.6 76.0905V82.9905H105.5V76.6905C105.5 74.8905 105 73.9905 103.5 73.9905C101.8 73.9905 101.1 74.8905 101.1 77.1905V82.9905H98V71.7905H98.1Z"/>
</g>
<mask height="46" width="148" y="52" x="1" maskUnits="userSpaceOnUse" style="mask-type:luminance" id="mask41_18_125">
<path fill="white" d="M148.5 52.1904H1V97.9904H148.5V52.1904Z"/>
</mask>
<g mask="url(#mask41_18_125)">
<path fill="#002D62" d="M117.7 76.0905C117.4 74.4905 116.8 73.6905 115.3 73.6905C113.4 73.6905 112.8 75.1905 112.8 76.0905H117.7ZM112.8 78.0905C112.9 79.9905 113.8 80.8905 115.5 80.8905C116.7 80.8905 117.7 80.0905 117.9 79.4905H120.6C119.7 82.0905 117.9 83.2905 115.4 83.2905C111.9 83.2905 109.7 80.8905 109.7 77.3905C109.7 74.0905 112 71.4905 115.4 71.4905C119.2 71.4905 121 74.6905 120.8 78.0905H112.8Z"/>
</g>
<mask height="46" width="148" y="52" x="1" maskUnits="userSpaceOnUse" style="mask-type:luminance" id="mask42_18_125">
<path fill="white" d="M148.5 52.1904H1V97.9904H148.5V52.1904Z"/>
</mask>
<g mask="url(#mask42_18_125)">
<path fill="#002D62" d="M134.6 82.8905H131.5L129.5 75.3905H129.4L127.6 82.8905H124.4L120.8 71.7905H124.1L126.1 79.2905H126.2L128 71.7905H131L132.9 79.2905L135 71.7905H138.1L134.6 82.8905Z"/>
</g>
<mask height="46" width="148" y="52" x="1" maskUnits="userSpaceOnUse" style="mask-type:luminance" id="mask43_18_125">
<path fill="white" d="M148.5 52.1904H1V97.9904H148.5V52.1904Z"/>
</mask>
<g mask="url(#mask43_18_125)">
<path fill="#002D62" d="M141.2 79.2905C141.2 80.5905 142.3 81.1905 143.5 81.1905C144.4 81.1905 145.5 80.8905 145.5 79.7905C145.5 78.8905 144.2 78.5905 142 78.0905C140.2 77.6905 138.5 77.0905 138.5 75.0905C138.5 72.2905 141 71.4905 143.3 71.4905C145.7 71.4905 148 72.2905 148.2 75.0905H145.3C145.2 73.8905 144.3 73.5905 143.2 73.5905C142.5 73.5905 141.5 73.6905 141.5 74.5905C141.5 75.6905 143.2 75.7905 145 76.2905C146.8 76.6905 148.5 77.3905 148.5 79.3905C148.5 82.2905 146 83.2905 143.4 83.2905C140.8 83.2905 138.3 82.2905 138.2 79.3905H141.2V79.2905Z"/>
</g>
</svg>