<?xml version="1.0" encoding="UTF-8"?>
<svg version="1.1" xmlns="http://www.w3.org/2000/svg" width="168" height="157">
<path d="M0 0 C3.87790868 2.4939449 5.58055969 5.59187895 6.875 9.9375 C6.91625 10.618125 6.9575 11.29875 7 12 C5.824375 10.7625 5.824375 10.7625 4.625 9.5 C2.36278736 6.77011494 2.36278736 6.77011494 0 7 C-0.33 11.62 -0.66 16.24 -1 21 C0.815 21.70125 2.63 22.4025 4.5 23.125 C14.93646385 27.53995533 20.8053011 32.78925587 26 43 C27.236086 46.29184606 28.21937857 49.57270021 29 53 C29.84304687 52.855625 30.68609375 52.71125 31.5546875 52.5625 C32.65039062 52.376875 33.74609375 52.19125 34.875 52 C35.96554688 51.814375 37.05609375 51.62875 38.1796875 51.4375 C41 51 41 51 43 51 C41.768606 47.30581799 39.79208646 45.64890254 37 43 C41.63965354 44.3256153 45.29008982 45.87774777 49 49 C50.19211345 54.23010557 50.5907699 61.19721494 47.8515625 66.0234375 C44.77611744 68.70834985 40.89784863 69.97913488 37 71 C38.28062485 69.2925002 39.61767557 67.62626404 41 66 C41.66 66 42.32 66 43 66 C42.67 65.01 42.34 64.02 42 63 C37.71 62.67 33.42 62.34 29 62 C28.2575 63.85625 27.515 65.7125 26.75 67.625 C24.87059543 72.15484692 22.93677795 76.08429606 20 80 C21.051875 80.4125 22.10375 80.825 23.1875 81.25 C26.58704057 82.69411378 29.21424307 84.55191058 32 87 C33.06546953 83.8035914 33.07427838 81.34252724 33 78 C35.53435666 80.2037884 36.53691481 81.66578661 37 85 C37.309375 86.5778125 37.309375 86.5778125 37.625 88.1875 C36.76918739 93.4079569 34.3351198 95.70717767 30.51171875 99.23046875 C28.03361303 100.97631928 26.79489355 101.64039559 23.8125 101.75 C20.05042989 101.00992063 17.27783529 99.96670118 14 98 C14 97.67 14 97.34 14 97 C16.97 97 19.94 97 23 97 C20.83163618 93.0056456 18.24565375 90.16024181 15 87 C14.67 86.34 14.34 85.68 14 85 C13.835 85.70125 13.67 86.4025 13.5 87.125 C10.87602019 92.15429464 6.11620392 95.00943646 1.0625 97.375 C-1 98 -1 98 -2 98 C-1.505 101.96 -1.505 101.96 -1 106 C-0.34 106 0.32 106 1 106 C2.38232443 104.37373596 3.71937515 102.7074998 5 101 C5.66 101.33 6.32 101.66 7 102 C6.02223933 103.48009643 5.0427506 104.95905144 4.0625 106.4375 C3.51722656 107.26121094 2.97195312 108.08492188 2.41015625 108.93359375 C1 111 1 111 0 112 C-12.83936527 113.53565774 -12.83936527 113.53565774 -17.36328125 110.3203125 C-18.96865474 108.22834609 -20.15847928 106.50065531 -21 104 C-20.505 102.515 -20.505 102.515 -20 101 C-19.071875 102.2375 -19.071875 102.2375 -18.125 103.5 C-17.073125 104.7375 -17.073125 104.7375 -16 106 C-15.34 106 -14.68 106 -14 106 C-13.67 101.71 -13.34 97.42 -13 93 C-13.9178125 92.57589844 -14.835625 92.15179688 -15.78125 91.71484375 C-28.27949939 85.80816019 -35.66502111 80.28479942 -41 67 C-41.853678 64.31994359 -42.46784072 61.76722828 -43 59 C-43.99 59.66 -44.98 60.32 -46 61 C-48.69921875 61.4140625 -48.69921875 61.4140625 -51.6875 61.625 C-52.68136719 61.69976562 -53.67523438 61.77453125 -54.69921875 61.8515625 C-55.45847656 61.90054688 -56.21773437 61.94953125 -57 62 C-55.768606 65.69418201 -53.79208646 67.35109746 -51 70 C-54.9404102 69.64178089 -58.41622014 68.48162078 -61.578125 66.1171875 C-64.40804075 61.90341185 -64.25956063 56.70691916 -63.90234375 51.7890625 C-63 48 -63 48 -60.81640625 45.5859375 C-58.22075224 43.99614651 -55.93583357 42.8037446 -53 42 C-52.34 42.33 -51.68 42.66 -51 43 C-51.825 43.598125 -52.65 44.19625 -53.5 44.8125 C-54.325 45.534375 -55.15 46.25625 -56 47 C-56 47.99 -56 48.98 -56 50 C-51.71 50.33 -47.42 50.66 -43 51 C-42.29875 49.185 -41.5975 47.37 -40.875 45.5 C-38.64325833 40.13364682 -36.15724363 35.1450523 -32 31 C-31.34 31 -30.68 31 -30 31 C-30 30.34 -30 29.68 -30 29 C-24.54188233 24.26129039 -17.89785504 22.55962531 -11 21 C-11 18.22673206 -11.53480796 15.60800322 -12 12.875 C-12.185625 11.77929688 -12.37125 10.68359375 -12.5625 9.5546875 C-12.706875 8.71164063 -12.85125 7.86859375 -13 7 C-13.66 7 -14.32 7 -15 7 C-16.38232443 8.62626404 -17.71937515 10.2925002 -19 12 C-19.66 11.67 -20.32 11.34 -21 11 C-20.04801289 9.35048774 -19.08820855 7.70548492 -18.125 6.0625 C-17.59132812 5.14597656 -17.05765625 4.22945312 -16.5078125 3.28515625 C-13.0315558 -1.98326387 -5.62978823 -0.84036887 0 0 Z M-21.1875 33 C-22.26064453 33.556875 -22.26064453 33.556875 -23.35546875 34.125 C-23.89816406 34.41375 -24.44085938 34.7025 -25 35 C-25 35.66 -25 36.32 -25 37 C-25.66 37 -26.32 37 -27 37 C-31.56858471 44.28276235 -33.89088479 49.9050804 -32.375 58.5 C-30.78686859 64.63018724 -28.01112009 69.33863993 -23.125 73.375 C-17.95998836 76.06080605 -12.83254853 77.80054588 -7 77 C-0.04994023 74.22660572 5.67099889 71.34612639 8.8125 64.3125 C10.37154887 59.7124492 10.27337788 55.66905222 9 51 C6.38626494 46.05257292 3.03512386 42.51756193 -2 40 C-6.95482094 39.45639554 -10.87125852 39.43562926 -15.375 41.6875 C-20.13097532 45.60024828 -20.13097532 45.60024828 -22.34765625 51.14453125 C-22.52603728 55.82121639 -22.2674019 59.41639792 -19 63 C-14.95977416 65.40859617 -12.92448983 66.15408164 -8.25 65.375 C-4.47582556 63.9073186 -4.47582556 63.9073186 -2 61 C-1.07171019 57.35314716 -0.53831275 55.05916486 -2.0625 51.5625 C-3.98851824 49.72761163 -3.98851824 49.72761163 -7.0625 49.625 C-10.11861241 49.71069764 -10.11861241 49.71069764 -12 52 C-12.39764263 53.98821313 -12.73775349 55.98944339 -13 58 C-15 57 -15 57 -15.8125 55.3125 C-16.0938263 51.84280899 -14.82716762 49.89826587 -13 47 C-9.87516093 44.93038981 -7.56285038 44.78373623 -3.875 45.125 C-3.00617188 45.18945312 -2.13734375 45.25390625 -1.2421875 45.3203125 C1 46 1 46 2.23046875 47.77734375 C6.03519724 58.76663568 6.03519724 58.76663568 4 64 C0.98163112 69.15638017 -3.36854775 71.46579025 -9 73 C-13.62891498 73.31976057 -17.084007 72.44038125 -21.25 70.4375 C-25.64674234 66.54038748 -28.53205176 63.02742166 -29.44921875 57.09375 C-29.68663137 50.60992942 -29.01283165 45.22955029 -25 40 C-22.81552935 37.77498233 -20.498305 35.86068656 -18 34 C-17.195625 33.38125 -16.39125 32.7625 -15.5625 32.125 C-15.046875 31.75375 -14.53125 31.3825 -14 31 C-17.19610552 31 -18.41717626 31.54671542 -21.1875 33 Z M28 55 C28 56.65 28 58.3 28 60 C28.33 60 28.66 60 29 60 C29 58.35 29 56.7 29 55 C28.67 55 28.34 55 28 55 Z M-10 92 C-10 92.33 -10 92.66 -10 93 C-7.69 93.33 -5.38 93.66 -3 94 C-2.67 93.34 -2.34 92.68 -2 92 C-4.64 92 -7.28 92 -10 92 Z " fill="#656565" transform="translate(84,22)"/>
<path d="M0 0 C3.87790868 2.4939449 5.58055969 5.59187895 6.875 9.9375 C6.91625 10.618125 6.9575 11.29875 7 12 C6.21625 11.175 5.4325 10.35 4.625 9.5 C2.36278736 6.77011494 2.36278736 6.77011494 0 7 C-0.33 11.62 -0.66 16.24 -1 21 C0.815 21.70125 2.63 22.4025 4.5 23.125 C14.93646385 27.53995533 20.8053011 32.78925587 26 43 C27.236086 46.29184606 28.21937857 49.57270021 29 53 C29.84304687 52.855625 30.68609375 52.71125 31.5546875 52.5625 C32.65039062 52.376875 33.74609375 52.19125 34.875 52 C35.96554688 51.814375 37.05609375 51.62875 38.1796875 51.4375 C41 51 41 51 43 51 C41.768606 47.30581799 39.79208646 45.64890254 37 43 C41.63965354 44.3256153 45.29008982 45.87774777 49 49 C50.19211345 54.23010557 50.5907699 61.19721494 47.8515625 66.0234375 C44.77611744 68.70834985 40.89784863 69.97913488 37 71 C38.28062485 69.2925002 39.61767557 67.62626404 41 66 C41.66 66 42.32 66 43 66 C42.67 65.01 42.34 64.02 42 63 C37.71 62.67 33.42 62.34 29 62 C28.2575 63.85625 27.515 65.7125 26.75 67.625 C24.87059543 72.15484692 22.93677795 76.08429606 20 80 C19.01 79.505 19.01 79.505 18 79 C17.66666667 77.33333333 17.33333333 75.66666667 17 74 C16.01 73.505 16.01 73.505 15 73 C15.28875 72.51273437 15.5775 72.02546875 15.875 71.5234375 C19.86763783 63.89860831 20.16144122 55.97038381 18.52734375 47.5703125 C16.57856614 41.57227843 12.89284249 36.74381627 7.4921875 33.48828125 C-2.22490806 28.5447443 -9.5513468 27.9603918 -20 31 C-20 31.66 -20 32.32 -20 33 C-22.31 32.67 -24.62 32.34 -27 32 C-27 31.01 -27 30.02 -27 29 C-26.34 29 -25.68 29 -25 29 C-24.95552734 28.07960938 -24.95552734 28.07960938 -24.91015625 27.140625 C-24 25 -24 25 -21.05859375 23.734375 C-19.86363281 23.40953125 -18.66867188 23.0846875 -17.4375 22.75 C-16.23996094 22.41484375 -15.04242188 22.0796875 -13.80859375 21.734375 C-12.41833984 21.37085938 -12.41833984 21.37085938 -11 21 C-11 18.22673206 -11.53480796 15.60800322 -12 12.875 C-12.185625 11.77929688 -12.37125 10.68359375 -12.5625 9.5546875 C-12.706875 8.71164063 -12.85125 7.86859375 -13 7 C-13.66 7 -14.32 7 -15 7 C-16.38232443 8.62626404 -17.71937515 10.2925002 -19 12 C-19.66 11.67 -20.32 11.34 -21 11 C-20.04801289 9.35048774 -19.08820855 7.70548492 -18.125 6.0625 C-17.59132813 5.14597656 -17.05765625 4.22945312 -16.5078125 3.28515625 C-13.0315558 -1.98326387 -5.62978823 -0.84036887 0 0 Z M28 55 C28 56.65 28 58.3 28 60 C28.33 60 28.66 60 29 60 C29 58.35 29 56.7 29 55 C28.67 55 28.34 55 28 55 Z " fill="#6A6A6A" transform="translate(84,22)"/>
<path d="M0 0 C5.50455936 4.31896196 9.88506045 9.60457353 11.77734375 16.39453125 C12.62160455 25.66950907 12.10730594 33.38077029 6.21484375 40.89453125 C5.41046875 41.71953125 4.60609375 42.54453125 3.77734375 43.39453125 C3.11734375 43.39453125 2.45734375 43.39453125 1.77734375 43.39453125 C0.77734375 40.39453125 0.77734375 40.39453125 1.27734375 37.45703125 C1.97083347 34.5418337 1.97083347 34.5418337 1.21484375 32.33203125 C0.77734375 30.39453125 0.77734375 30.39453125 1.77734375 28.20703125 C3.23897673 24.09618849 2.79431132 20.59601772 1.77734375 16.39453125 C-0.66435662 11.60156387 -3.36325378 8.73424355 -8.22265625 6.39453125 C-13.29955129 5.5842125 -17.05264537 5.79888935 -21.66015625 8.14453125 C-25.83452309 11.55183557 -25.83452309 11.55183557 -27.46875 16.47265625 C-27.69995533 22.81533856 -27.69995533 22.81533856 -25.22265625 28.39453125 C-21.22667454 30.05023682 -17.59931937 30.66387838 -13.34765625 29.83203125 C-10.58640703 27.96412736 -9.48694629 26.48501802 -8.22265625 23.39453125 C-8.35203347 19.55551494 -8.35203347 19.55551494 -10.22265625 16.39453125 C-12.22223989 16.35372342 -14.22310879 16.35198769 -16.22265625 16.39453125 C-17.21265625 19.03453125 -18.20265625 21.67453125 -19.22265625 24.39453125 C-22.22265625 22.39453125 -22.22265625 22.39453125 -23.09765625 20.64453125 C-23.28925298 17.19579015 -22.05767854 15.26939951 -20.22265625 12.39453125 C-17.05451624 9.58846439 -15.50129431 9.39453125 -11.22265625 9.39453125 C-6.89653296 10.17813094 -4.80324863 11.75134201 -2.22265625 15.39453125 C-0.57250596 19.94894605 0.64919692 24.77729344 -1.22265625 29.39453125 C-4.78511229 34.84954206 -8.88132803 37.7344437 -15.22265625 39.39453125 C-21.25640044 39.80208234 -25.55018926 38.30636408 -30.22265625 34.39453125 C-35.52777981 28.49994952 -36.69909307 24.28244816 -36.52734375 16.4296875 C-35.76785468 8.86400793 -31.89514568 4.60769797 -26.3203125 -0.2578125 C-19.36338007 -4.7273501 -6.96652732 -4.16813368 0 0 Z " fill="#626262" transform="translate(90.22265625,56.60546875)"/>
<path d="M0 0 C18.90831961 -1.20691402 32.73931086 4.98015322 47.1875 17.25 C61.12602318 30.31736548 68.60152347 46.73720112 73 65 C73 65.99 73 66.98 73 68 C72.34 68 71.68 68 71 68 C70.72027344 66.99582031 70.44054687 65.99164063 70.15234375 64.95703125 C65.34143548 48.29805813 57.80676483 33.93035549 44 23 C43.67 24.32 43.34 25.64 43 27 C40.6875 27.6875 40.6875 27.6875 38 28 C36.125 26.875 36.125 26.875 35 25 C35.24453124 21.65807308 35.60543557 20.39456443 38 18 C28.77107356 11.48546369 18.53311965 8.18933998 7.25 7.5625 C4.8984375 7.40625 4.8984375 7.40625 3 7 C0.85286406 4.53710877 0 3.25966972 0 0 Z " fill="#636363" transform="translate(81,12)"/>
<path d="M0 0 C7.1854568 0.08638254 11.60258335 1.20664834 16.87109375 6.11328125 C23.50458844 13.21567162 25.47769122 19.48709823 25.22265625 29.15625 C24.58282554 36.23821179 21.86379019 41.25989468 16.9375 46.3125 C16.2775 46.3125 15.6175 46.3125 14.9375 46.3125 C13.9375 43.3125 13.9375 43.3125 14.4375 40.375 C15.13098972 37.45980245 15.13098972 37.45980245 14.375 35.25 C13.9375 33.3125 13.9375 33.3125 14.9375 31.125 C16.39913298 27.01415724 15.95446757 23.51398647 14.9375 19.3125 C12.48467493 14.49769524 9.79283067 11.69602597 4.9375 9.3125 C1.27496167 8.71133854 -2.35544942 8.44442351 -6.0625 8.3125 C-6.44313221 5.9864143 -6.77519945 3.65194736 -7.0625 1.3125 C-5.22960552 -0.52039448 -2.46646175 0.05380341 0 0 Z " fill="#686868" transform="translate(77.0625,53.6875)"/>
<path d="M0 0 C0.66 0.66 1.32 1.32 2 2 C1.625 5.125 1.625 5.125 1 8 C5.98012761 6.49087042 9.24259942 3.44338151 13 0 C15.5625 2.1875 15.5625 2.1875 18 5 C17.91498029 8.57082798 17.00413395 9.99379907 15 13 C21.80074041 14.90420731 27.91923749 16.40850553 35 16 C35 18.31 35 20.62 35 23 C34.01 23.495 34.01 23.495 33 24 C30.64018187 23.06421005 28.30368736 22.06652192 26 21 C26 21.66 26 22.32 26 23 C23.5625 22.625 23.5625 22.625 21 22 C20.67 21.34 20.34 20.68 20 20 C19.01 20.4640625 19.01 20.4640625 18 20.9375 C10.25180952 23.68165079 10.25180952 23.68165079 7 23 C2.86458699 20.23917497 -0.25050031 17.14417344 -3 13 C-3.93621367 8.06775239 -2.2834999 4.31542777 0 0 Z M12 15 C11.67 16.32 11.34 17.64 11 19 C12.98 19 14.96 19 17 19 C16.360625 18.71125 15.72125 18.4225 15.0625 18.125 C13 17 13 17 12 15 Z " fill="#D8D8D8" transform="translate(35,100)"/>
<path d="M0 0 C3.59992108 2.52784427 6.49128766 5.38368839 9 9 C9.84671615 13.88609595 8.27458931 17.72914666 6 22 C5.67 22 5.34 22 5 22 C5 19.36 5 16.72 5 14 C1.37386801 14.56959153 -0.25517741 15.92374534 -2.75 18.5625 C-3.36359375 19.20316406 -3.9771875 19.84382813 -4.609375 20.50390625 C-5.06828125 20.99761719 -5.5271875 21.49132812 -6 22 C-7.98 20.35 -9.96 18.7 -12 17 C-11.55239601 11.92715484 -9.22802538 9.71222918 -6 6 C-5.67 5.01 -5.34 4.02 -5 3 C-9.455 3.495 -9.455 3.495 -14 4 C-14 3.34 -14 2.68 -14 2 C-12.60993485 1.46396181 -11.21257351 0.94682527 -9.8125 0.4375 C-9.03519531 0.14746094 -8.25789063 -0.14257812 -7.45703125 -0.44140625 C-4.49589991 -1.11460463 -2.87932311 -0.9657636 0 0 Z " fill="#D9D9D9" transform="translate(113,35)"/>
<path d="M0 0 C2.53435666 2.2037884 3.53691481 3.66578661 4 7 C4.20625 8.051875 4.4125 9.10375 4.625 10.1875 C3.76918739 15.4079569 1.3351198 17.70717767 -2.48828125 21.23046875 C-4.96638697 22.97631928 -6.20510645 23.64039559 -9.1875 23.75 C-12.94957011 23.00992063 -15.72216471 21.96670118 -19 20 C-19 19.67 -19 19.34 -19 19 C-16.03 19 -13.06 19 -10 19 C-12.16264012 15.01618925 -14.71211176 12.11016455 -18 9 C-16.63016497 5.83884224 -16.0109362 5.0072908 -13 3 C-8.06108199 3.13719217 -4.73924424 6.07972568 -1 9 C0.06546953 5.8035914 0.07427838 3.34252724 0 0 Z " fill="#D7D7D7" transform="translate(117,100)"/>
<path d="M0 0 C3.80535847 0.84563522 6.87811591 2.03724044 10.375 3.75 C10.375 4.08 10.375 4.41 10.375 4.75 C7.405 4.75 4.435 4.75 1.375 4.75 C3.53764012 8.73381075 6.08711176 11.63983545 9.375 14.75 C8.22326645 17.21800047 7.32716435 18.79783565 5.375 20.75 C2.32925403 21.15407907 0.80534355 21.00234805 -1.86328125 19.4375 C-2.54777344 18.880625 -3.23226562 18.32375 -3.9375 17.75 C-4.63488281 17.193125 -5.33226562 16.63625 -6.05078125 16.0625 C-6.57027344 15.629375 -7.08976562 15.19625 -7.625 14.75 C-8.45138376 17.64234315 -8.625 19.63742431 -8.625 22.75 C-9.285 22.75 -9.945 22.75 -10.625 22.75 C-12.72316872 18.55366256 -13.95740651 14.3321785 -12.625 9.75 C-9.26446367 4.96197921 -5.82792359 1.2057773 0 0 Z " fill="#D7D7D7" transform="translate(45.625,33.25)"/>
<path d="M0 0 C3.87790868 2.4939449 5.58055969 5.59187895 6.875 9.9375 C6.91625 10.618125 6.9575 11.29875 7 12 C6.21625 11.175 5.4325 10.35 4.625 9.5 C2.36278736 6.77011494 2.36278736 6.77011494 0 7 C-0.33 11.29 -0.66 15.58 -1 20 C-3.97 20 -6.94 20 -10 20 C-11.73684533 16.52630934 -12.30084112 14.92380063 -12.625 11.25 C-12.69976562 10.45078125 -12.77453125 9.6515625 -12.8515625 8.828125 C-12.90054688 8.22484375 -12.94953125 7.6215625 -13 7 C-13.66 7 -14.32 7 -15 7 C-16.38232443 8.62626404 -17.71937515 10.2925002 -19 12 C-19.66 11.67 -20.32 11.34 -21 11 C-20.04801289 9.35048774 -19.08820855 7.70548492 -18.125 6.0625 C-17.59132813 5.14597656 -17.05765625 4.22945312 -16.5078125 3.28515625 C-13.0315558 -1.98326387 -5.62978823 -0.84036887 0 0 Z " fill="#D2D2D2" transform="translate(84,22)"/>
<path d="M0 0 C2.97 0 5.94 0 9 0 C11.03165952 4.33420699 11.52060632 8.28596212 12 13 C12.66 13 13.32 13 14 13 C15.38232443 11.37373596 16.71937515 9.7074998 18 8 C18.66 8.33 19.32 8.66 20 9 C19.02223933 10.48009643 18.0427506 11.95905144 17.0625 13.4375 C16.24458984 14.67306641 16.24458984 14.67306641 15.41015625 15.93359375 C14 18 14 18 13 19 C0.16063473 20.53565774 0.16063473 20.53565774 -4.36328125 17.3203125 C-5.96865474 15.22834609 -7.15847928 13.50065531 -8 11 C-7.67 10.01 -7.34 9.02 -7 8 C-6.38125 8.825 -5.7625 9.65 -5.125 10.5 C-4.42375 11.325 -3.7225 12.15 -3 13 C-2.34 13 -1.68 13 -1 13 C-0.67 8.71 -0.34 4.42 0 0 Z " fill="#D5D5D5" transform="translate(71,115)"/>
<path d="M0 0 C-0.825 0.598125 -1.65 1.19625 -2.5 1.8125 C-3.325 2.534375 -4.15 3.25625 -5 4 C-5 4.99 -5 5.98 -5 7 C-1.04 7.33 2.92 7.66 7 8 C7 10.97 7 13.94 7 17 C4.43106162 18.28446919 2.23423663 18.32977144 -0.625 18.5625 C-2.12933594 18.68818359 -2.12933594 18.68818359 -3.6640625 18.81640625 C-4.43492188 18.87699219 -5.20578125 18.93757813 -6 19 C-4.768606 22.69418201 -2.79208646 24.35109746 0 27 C-3.9404102 26.64178089 -7.41622014 25.48162078 -10.578125 23.1171875 C-13.40804075 18.90341185 -13.25956063 13.70691916 -12.90234375 8.7890625 C-12 5 -12 5 -9.81640625 2.5859375 C-3.07999022 -1.53999511 -3.07999022 -1.53999511 0 0 Z " fill="#E0E0E0" transform="translate(33,65)"/>
<path d="M0 0 C4.63965354 1.3256153 8.29008982 2.87774777 12 6 C13.19211345 11.23010557 13.5907699 18.19721494 10.8515625 23.0234375 C7.77611744 25.70834985 3.89784863 26.97913488 0 28 C1.28062485 26.2925002 2.61767557 24.62626404 4 23 C4.66 23 5.32 23 6 23 C5.67 22.01 5.34 21.02 5 20 C0.71 19.67 -3.58 19.34 -8 19 C-7.25 11.25 -7.25 11.25 -5 9 C-2.3984375 8.5859375 -2.3984375 8.5859375 0.625 8.375 C1.62789062 8.30023438 2.63078125 8.22546875 3.6640625 8.1484375 C4.82035156 8.07496094 4.82035156 8.07496094 6 8 C4.768606 4.30581799 2.79208646 2.64890254 0 0 Z " fill="#D7D7D7" transform="translate(121,65)"/>
<path d="M0 0 C0 2.31 0 4.62 0 7 C-0.70382813 7.20753906 -1.40765625 7.41507813 -2.1328125 7.62890625 C-11.55548165 10.56887743 -20.36786445 14.53224754 -28.78515625 19.71484375 C-31 21 -31 21 -33 21 C-33.33 20.01 -33.66 19.02 -34 18 C-25.95545019 9.80647705 -12.12910578 0 0 0 Z " fill="#646464" transform="translate(72,13)"/>
<path d="M0 0 C6.493694 4.51540856 11.47835785 10.02546801 13 18 C13.87991017 29.58307975 12.58578041 36.97065863 5.125 45.875 C1.98271795 49.24677456 -0.69487826 51.38557935 -5 53 C-5 52.34 -5 51.68 -5 51 C-3.4609375 49.80859375 -3.4609375 49.80859375 -1.375 48.4375 C4.13269453 44.45591621 8.81845042 38.86061045 10 32 C10.83048621 23.24430257 10.23626383 16.25727795 5 9 C1.50748347 5.17334749 -2.0030879 2.51379104 -7 1 C-9.72273472 0.91154567 -12.34869802 0.90050222 -15.0625 1 C-23.52796626 1.30867698 -23.52796626 1.30867698 -27 -1 C-17.23794118 -5.25980748 -9.47759614 -5.18902204 0 0 Z " fill="#0D0D0D" transform="translate(91,54)"/>
<path d="M0 0 C9.03110225 5.87165913 13.3198345 17.09109105 16.9375 26.8125 C17.23188965 27.60019775 17.5262793 28.38789551 17.82958984 29.19946289 C19.58656448 34.15392282 20.52831992 38.76375405 21 44 C20.34 44 19.68 44 19 44 C18.72027344 42.99582031 18.44054687 41.99164063 18.15234375 40.95703125 C14.46891173 28.20222662 9.43397215 17.29733887 0.69921875 7.12109375 C-0.88398675 5.14481655 -1.97101247 3.30346955 -3 1 C-2.01 0.67 -1.02 0.34 0 0 Z " fill="#626262" transform="translate(133,36)"/>
<path d="M0 0 C3.62613199 0.56959153 5.25517741 1.92374534 7.75 4.5625 C8.36359375 5.20316406 8.9771875 5.84382813 9.609375 6.50390625 C10.06828125 6.99761719 10.5271875 7.49132813 11 8 C10 10 10 10 8.1875 10.8125 C6 11 6 11 3.75 9.5625 C3.1725 9.046875 2.595 8.53125 2 8 C1.67 9.32 1.34 10.64 1 12 C-1.3125 12.6875 -1.3125 12.6875 -4 13 C-5.875 11.875 -5.875 11.875 -7 10 C-6.6875 7.3125 -6.6875 7.3125 -6 5 C-4.35 4.67 -2.7 4.34 -1 4 C-0.67 2.68 -0.34 1.36 0 0 Z " fill="#585858" transform="translate(123,27)"/>
<path d="M0 0 C1.16015625 0.32484375 1.16015625 0.32484375 2.34375 0.65625 C8.4169341 2.27977446 13.71610769 3.36253225 20 3 C20 5.31 20 7.62 20 10 C19.01 10.495 19.01 10.495 18 11 C15.64018187 10.06421005 13.30368736 9.06652192 11 8 C11 8.66 11 9.32 11 10 C6.25 9.25 6.25 9.25 4 7 C1.68234271 6.28072705 -0.65095874 5.6090107 -3 5 C-2.01 3.35 -1.02 1.7 0 0 Z " fill="#717171" transform="translate(50,113)"/>
<path d="M0 0 C0 0.99 0 1.98 0 3 C-3.67764836 6.58639157 -8.08680853 9.46462766 -13 11 C-13.66 9.35 -14.32 7.7 -15 6 C-15.59167969 6.02320312 -16.18335937 6.04640625 -16.79296875 6.0703125 C-21.33801959 6.17411464 -24.85940059 6.13708357 -29 4 C-29 3.67 -29 3.34 -29 3 C-27.88882813 3.02320312 -26.77765625 3.04640625 -25.6328125 3.0703125 C-12.47669668 3.5527421 -12.47669668 3.5527421 0 0 Z " fill="#585858" transform="translate(96,109)"/>
<path d="M0 0 C1.98 1.65 3.96 3.3 6 5 C5.50168276 8.68754757 4.89932357 10.60490662 2 13 C1.67 12.01 1.34 11.02 1 10 C0.01 9.67 -0.98 9.34 -2 9 C-2 8.01 -2 7.02 -2 6 C-2.598125 6.515625 -3.19625 7.03125 -3.8125 7.5625 C-4.534375 8.036875 -5.25625 8.51125 -6 9 C-6.99 8.67 -7.98 8.34 -9 8 C-8.43410156 7.50628906 -7.86820313 7.01257813 -7.28515625 6.50390625 C-6.55167969 5.86324219 -5.81820312 5.22257812 -5.0625 4.5625 C-4.33160156 3.92441406 -3.60070313 3.28632812 -2.84765625 2.62890625 C-1.87860647 1.77458541 -0.91348825 0.91348825 0 0 Z " fill="#C4C4C4" transform="translate(47,100)"/>
<path d="M0 0 C-0.33 0.99 -0.66 1.98 -1 3 C-2.98 3 -4.96 3 -7 3 C-7 3.66 -7 4.32 -7 5 C-5.02 5 -3.04 5 -1 5 C-1 5.33 -1 5.66 -1 6 C-2.423125 6.2784375 -2.423125 6.2784375 -3.875 6.5625 C-7.38371699 7.73400805 -7.38371699 7.73400805 -8.375 11.625 C-8.58125 12.73875 -8.7875 13.8525 -9 15 C-12 13 -12 13 -12.875 11.25 C-13.06659673 7.8012589 -11.83502229 5.87486826 -10 3 C-6.62179966 0.33299973 -4.27505653 -0.36643342 0 0 Z " fill="#4D4D4D" transform="translate(80,66)"/>
<path d="M0 0 C0.66 0.33 1.32 0.66 2 1 C2 1.66 2 2.32 2 3 C3.98 3.66 5.96 4.32 8 5 C6.68 6.65 5.36 8.3 4 10 C4.99 11.485 4.99 11.485 6 13 C1.68607774 12.5206753 -0.16569547 11.2542015 -3 8 C-2.34 8 -1.68 8 -1 8 C-1.20625 7.4225 -1.4125 6.845 -1.625 6.25 C-2.08661261 3.48032433 -1.42944945 2.35438733 0 0 Z " fill="#585858" transform="translate(63,82)"/>
<path d="M0 0 C4.55555556 0.55555556 4.55555556 0.55555556 6 2 C6.1875 4.4375 6.1875 4.4375 6 7 C4 9 4 9 1.5 9.3125 C0.2625 9.1578125 0.2625 9.1578125 -1 9 C-3 6 -3 6 -2.75 3.9375 C-2 2 -2 2 0 0 Z " fill="#BBBBBB" transform="translate(75,135)"/>
<path d="M0 0 C0.66 0 1.32 0 2 0 C0.03122122 6.21719614 -2.26765161 12.20045052 -4.81640625 18.203125 C-5.91105507 20.7898199 -6.96592287 23.38859785 -8 26 C-9.75387885 21.84664273 -8.1314043 18.17459349 -6.8125 14.125 C-6.60302734 13.43019531 -6.39355469 12.73539063 -6.17773438 12.01953125 C-4.72673188 7.44693585 -2.96468867 3.79052379 0 0 Z " fill="#5A5A5A" transform="translate(31,40)"/>
<path d="M0 0 C2 0.6875 2 0.6875 4 2.6875 C3.625 5.3125 3.625 5.3125 3 7.6875 C0.125 8.3125 0.125 8.3125 -3 8.6875 C-3.66 8.0275 -4.32 7.3675 -5 6.6875 C-4.75 3.625 -4.75 3.625 -4 0.6875 C-2 -0.3125 -2 -0.3125 0 0 Z " fill="#C1C1C1" transform="translate(34,117.3125)"/>
<path d="M0 0 C2.5625 0.1875 2.5625 0.1875 4.5625 2.1875 C4.1875 5.3125 4.1875 5.3125 3.5625 8.1875 C1.8125 8.875 1.8125 8.875 -0.4375 9.1875 C-2.6875 7.75 -2.6875 7.75 -4.4375 6.1875 C-3.3735 0.2595 -3.3735 0.2595 0 0 Z " fill="#BFBFBF" transform="translate(15.4375,73.8125)"/>
<path d="M0 0 C1.2684375 0.12375 1.2684375 0.12375 2.5625 0.25 C4.5625 3.25 4.5625 3.25 4.5 5.3125 C3.5625 7.25 3.5625 7.25 1 8.5 C0.195625 8.7475 -0.60875 8.995 -1.4375 9.25 C-3 8.0625 -3 8.0625 -4.4375 6.25 C-3.88016338 0.39796547 -3.88016338 0.39796547 0 0 Z " fill="#A6A6A6" transform="translate(77.4375,12.75)"/>
<path d="M0 0 C0.33 0 0.66 0 1 0 C1.33 3.96 1.66 7.92 2 12 C3.65 12 5.3 12 7 12 C7.33 12.66 7.66 13.32 8 14 C7.34 14 6.68 14 6 14 C7.231394 17.69418201 9.20791354 19.35109746 12 22 C8.04552101 21.64050191 4.59506427 20.4489964 1.3828125 18.140625 C-1.81375177 13.19227127 -0.42080689 5.68423276 0 0 Z " fill="#ACACAC" transform="translate(21,70)"/>
<path d="M0 0 C2.6875 1.4375 2.6875 1.4375 5 3 C4.125 7.875 4.125 7.875 3 9 C0.5625 9.1875 0.5625 9.1875 -2 9 C-2.66 8.34 -3.32 7.68 -4 7 C-3.625 3.875 -3.625 3.875 -3 1 C-2.01 0.67 -1.02 0.34 0 0 Z " fill="#C2C2C2" transform="translate(138,74)"/>
<path d="M0 0 C2.86479905 2.86479905 3.75202023 6.37530605 5.0625 10.125 C5.33126953 10.85976563 5.60003906 11.59453125 5.87695312 12.3515625 C7.60857412 17.25710229 8.52416023 21.81863363 9 27 C8.34 27 7.68 27 7 27 C6.68546875 25.94941406 6.3709375 24.89882812 6.046875 23.81640625 C3.76947792 16.3114492 1.41498229 9.08292623 -2 2 C-1.34 2 -0.68 2 0 2 C0 1.34 0 0.68 0 0 Z " fill="#4A4A4A" transform="translate(145,53)"/>
<path d="M0 0 C1.2065625 0.0309375 1.2065625 0.0309375 2.4375 0.0625 C3.5625 2.375 3.5625 2.375 4.4375 5.0625 C3.4475 6.5475 3.4475 6.5475 2.4375 8.0625 C-0.0625 8.375 -0.0625 8.375 -2.5625 8.0625 C-3.2225 7.4025 -3.8825 6.7425 -4.5625 6.0625 C-3.83457637 0.09352625 -3.83457637 0.09352625 0 0 Z " fill="#CDCDCD" transform="translate(120.5625,117.9375)"/>
<path d="M0 0 C2.5 -0.3125 2.5 -0.3125 5 0 C5.66 0.66 6.32 1.32 7 2 C6.44444444 6.55555556 6.44444444 6.55555556 5 8 C3.33382885 8.04063832 1.66611905 8.042721 0 8 C-1.125 5.6875 -1.125 5.6875 -2 3 C-1.34 2.01 -0.68 1.02 0 0 Z " fill="#CBCBCB" transform="translate(31,31)"/>
<path d="M0 0 C5.94 1.485 5.94 1.485 12 3 C10.35 4.98 8.7 6.96 7 9 C6.278125 8.525625 5.55625 8.05125 4.8125 7.5625 C2.10524774 6.05847097 0.03805725 5.43400818 -3 5 C-2.01 3.35 -1.02 1.7 0 0 Z " fill="#464646" transform="translate(50,113)"/>
<path d="M0 0 C2.31 0 4.62 0 7 0 C7 2.31 7 4.62 7 7 C4.6875 7.6875 4.6875 7.6875 2 8 C0.125 6.875 0.125 6.875 -1 5 C-0.6875 2.3125 -0.6875 2.3125 0 0 Z " fill="#CECECE" transform="translate(117,32)"/>
<path d="M0 0 C3.875 1.875 3.875 1.875 5 3 C4.94921875 4.92578125 4.94921875 4.92578125 4.6875 7.3125 C4.60886719 8.09238281 4.53023438 8.87226562 4.44921875 9.67578125 C3.98413721 12.08207271 3.19341444 13.87133832 2 16 C1.67 16 1.34 16 1 16 C1.06510417 13.98177083 1.13020833 11.96354167 1.1953125 9.9453125 C1.18331689 7.76136355 1.18331689 7.76136355 -1 6 C-1 2 -1 2 0 0 Z " fill="#BABABA" transform="translate(117,41)"/>
<path d="M0 0 C0.66 0 1.32 0 2 0 C2 0.66 2 1.32 2 2 C2.66 2.33 3.32 2.66 4 3 C4 6.11257569 3.82638376 8.10765685 3 11 C1.68 11.33 0.36 11.66 -1 12 C-1.02687279 10.18757948 -1.04633715 8.37504767 -1.0625 6.5625 C-1.07410156 5.55316406 -1.08570312 4.54382813 -1.09765625 3.50390625 C-1 1 -1 1 0 0 Z " fill="#F1F1F1" transform="translate(23,71)"/>
<path d="M0 0 C0 0.66 0 1.32 0 2 C-2.90600261 3.25664978 -4.79604584 4 -8 4 C-8.33 5.32 -8.66 6.64 -9 8 C-9.33 6.68 -9.66 5.36 -10 4 C-10.59167969 4.02320312 -11.18335937 4.04640625 -11.79296875 4.0703125 C-16.33801959 4.17411464 -19.85940059 4.13708357 -24 2 C-24 1.67 -24 1.34 -24 1 C-22.21142578 1.01740234 -22.21142578 1.01740234 -20.38671875 1.03515625 C-18.82031406 1.04453592 -17.25390769 1.05363593 -15.6875 1.0625 C-14.50897461 1.07506836 -14.50897461 1.07506836 -13.30664062 1.08789062 C-12.1706543 1.09272461 -12.1706543 1.09272461 -11.01171875 1.09765625 C-9.96697388 1.10551147 -9.96697388 1.10551147 -8.90112305 1.11352539 C-5.71105065 0.92303051 -3.33109594 0 0 0 Z " fill="#151515" transform="translate(91,111)"/>
<path d="M0 0 C3.24299151 2.38957269 5.50902342 4.2047869 7 8 C3.89640609 8 1.85170789 7.98334755 -1 7 C-1.33 6.34 -1.66 5.68 -2 5 C-1.0625 2.375 -1.0625 2.375 0 0 Z M-3 7 C-1 8 -1 8 -1 8 Z " fill="#5C5C5C" transform="translate(99,51)"/>
<path d="M0 0 C0.33 0.66 0.66 1.32 1 2 C-2.24388943 2.919102 -5.39351063 3.28279255 -8.75 3.5625 C-9.73484375 3.64628906 -10.7196875 3.73007812 -11.734375 3.81640625 C-12.48203125 3.87699219 -13.2296875 3.93757813 -14 4 C-14 3.34 -14 2.68 -14 2 C-4.29197833 -1.7436162 -4.29197833 -1.7436162 0 0 Z " fill="#A5A5A5" transform="translate(113,35)"/>
<path d="M0 0 C3.97446842 1.27750771 5.29623465 3.70957896 7.265625 7.1484375 C8 9 8 9 8 13 C5 12 5 12 3.61328125 9.78515625 C3.18402344 8.88667969 2.75476563 7.98820312 2.3125 7.0625 C1.87550781 6.16660156 1.43851563 5.27070312 0.98828125 4.34765625 C0 2 0 2 0 0 Z " fill="#636363" transform="translate(25,90)"/>
<path d="M0 0 C1.875 1.5 1.875 1.5 3 3 C-2.625 5.125 -2.625 5.125 -6 4 C-6.99 4 -7.98 4 -9 4 C-10.67099977 3.68911632 -12.33871537 3.35919668 -14 3 C-14 2.67 -14 2.34 -14 2 C-4.74846626 -0.55214724 -4.74846626 -0.55214724 0 0 Z " fill="#3F3F3F" transform="translate(82,42)"/>
<path d="M0 0 C0.66 0.33 1.32 0.66 2 1 C2 3.64 2 6.28 2 9 C1.01 9 0.02 9 -1 9 C-3.125 4.375 -3.125 4.375 -2 1 C-1.34 0.67 -0.68 0.34 0 0 Z " fill="#5E5E5E" transform="translate(70,71)"/>
<path d="M0 0 C0.33 0.99 0.66 1.98 1 3 C0.34 3.66 -0.32 4.32 -1 5 C-3.1640625 4.7578125 -3.1640625 4.7578125 -5.625 4.125 C-6.85089844 3.81949219 -6.85089844 3.81949219 -8.1015625 3.5078125 C-9.04128906 3.25644531 -9.04128906 3.25644531 -10 3 C-10 2.34 -10 1.68 -10 1 C-3.375 -1.125 -3.375 -1.125 0 0 Z " fill="#757575" transform="translate(83,68)"/>
<path d="M0 0 C0.66 0.66 1.32 1.32 2 2 C1.66666667 4 1.33333333 6 1 8 C1.66 8.66 2.32 9.32 3 10 C1.68 10 0.36 10 -1 10 C-1.66 10.99 -2.32 11.98 -3 13 C-2.88490339 11.58249437 -2.75746342 10.16598831 -2.625 8.75 C-2.55539063 7.96109375 -2.48578125 7.1721875 -2.4140625 6.359375 C-1.98492887 3.914123 -1.21399362 2.15163097 0 0 Z " fill="#999999" transform="translate(35,100)"/>
<path d="M0 0 C1.2065625 0.0309375 1.2065625 0.0309375 2.4375 0.0625 C2.1075 1.7125 1.7775 3.3625 1.4375 5.0625 C0.1175 5.3925 -1.2025 5.7225 -2.5625 6.0625 C-2.94468767 4.40635343 -3.27645102 2.73792976 -3.5625 1.0625 C-2.5625 0.0625 -2.5625 0.0625 0 0 Z " fill="#DFDFDF" transform="translate(76.5625,13.9375)"/>
<path d="M0 0 C1.58473909 2.46323577 2.06152794 3.59945308 1.609375 6.54296875 C1.32578125 7.41566406 1.0421875 8.28835937 0.75 9.1875 C0.34007812 10.50814453 0.34007812 10.50814453 -0.078125 11.85546875 C-1 14 -1 14 -3 15 C-2.44854729 9.76119922 -1.57077907 5.02649303 0 0 Z " fill="#464646" transform="translate(25,51)"/>
<path d="M0 0 C0 2.31 0 4.62 0 7 C-0.99 7.495 -0.99 7.495 -2 8 C-4.125 7.0625 -4.125 7.0625 -6 6 C-2.61538462 0 -2.61538462 0 0 0 Z " fill="#5F5F5F" transform="translate(70,116)"/>
<path d="M0 0 C0.33 0.66 0.66 1.32 1 2 C1.99 2.33 2.98 2.66 4 3 C2.71475739 3.86380259 1.42157581 4.71580369 0.125 5.5625 C-0.59429687 6.03816406 -1.31359375 6.51382813 -2.0546875 7.00390625 C-2.69664063 7.33261719 -3.33859375 7.66132812 -4 8 C-4.66 7.67 -5.32 7.34 -6 7 C-4.71034824 5.62437146 -3.37310707 4.29233607 -2 3 C-1.34 3 -0.68 3 0 3 C0 2.01 0 1.02 0 0 Z " fill="#989898" transform="translate(127,85)"/>
<path d="M0 0 C0.99 0 1.98 0 3 0 C3.66 1.65 4.32 3.3 5 5 C3.35 5.33 1.7 5.66 0 6 C-1.125 2.25 -1.125 2.25 0 0 Z " fill="#D1D1D1" transform="translate(30,32)"/>
<path d="M0 0 C0.33 0.66 0.66 1.32 1 2 C1.66 2 2.32 2 3 2 C3.33 4.64 3.66 7.28 4 10 C3.34 10 2.68 10 2 10 C0.39644899 6.49223216 -0.22036864 3.85645121 0 0 Z " fill="#979797" transform="translate(33,46)"/>
<path d="M0 0 C0.66 0.33 1.32 0.66 2 1 C1.21625 1.598125 0.4325 2.19625 -0.375 2.8125 C-3.14574323 4.91085249 -3.14574323 4.91085249 -5 8 C-5 7.01 -5 6.02 -5 5 C-5.66 4.67 -6.32 4.34 -7 4 C-1.7265625 0.77734375 -1.7265625 0.77734375 0 0 Z " fill="#929292" transform="translate(31,64)"/>
<path d="M0 0 C0.33 0.66 0.66 1.32 1 2 C-2.63 2 -6.26 2 -10 2 C-10 1.34 -10 0.68 -10 0 C-6.33291043 -0.94296589 -3.64653273 -1.11421833 0 0 Z " fill="#919191" transform="translate(55,36)"/>
<path d="M0 0 C2.31 0.33 4.62 0.66 7 1 C7 1.66 7 2.32 7 3 C7.99 3.33 8.98 3.66 10 4 C3.47692308 3.38461538 3.47692308 3.38461538 1.0625 1.4375 C0.711875 0.963125 0.36125 0.48875 0 0 Z " fill="#868686" transform="translate(98,119)"/>
<path d="M0 0 C0.66 0.33 1.32 0.66 2 1 C0.625 3.5 0.625 3.5 -1 6 C-1.66 6 -2.32 6 -3 6 C-3 4.35 -3 2.7 -3 1 C-2.01 0.67 -1.02 0.34 0 0 Z " fill="#6D6D6D" transform="translate(86,114)"/>
<path d="M0 0 C1.5 1.25 1.5 1.25 3 3 C3 4.32 3 5.64 3 7 C1.68 6.34 0.36 5.68 -1 5 C-0.67 3.35 -0.34 1.7 0 0 Z " fill="#5A5A5A" transform="translate(142,48)"/>
<path d="M0 0 C1.5625 1.125 1.5625 1.125 3 3 C2.6875 6.1875 2.6875 6.1875 2 9 C-0.29013653 5.5647952 -0.17842973 4.014669 0 0 Z " fill="#929292" transform="translate(117,100)"/>
<path d="M0 0 C1.9375 0.75 1.9375 0.75 4 2 C4.875 4 4.875 4 5 6 C4.34 6.66 3.68 7.32 3 8 C0 2.25 0 2.25 0 0 Z " fill="#575757" transform="translate(25,90)"/>
<path d="M0 0 C1.32 0.66 2.64 1.32 4 2 C3.01 2.33 2.02 2.66 1 3 C1 3.66 1 4.32 1 5 C0.34 5 -0.32 5 -1 5 C-1.33 5.66 -1.66 6.32 -2 7 C-1.125 1.125 -1.125 1.125 0 0 Z " fill="#535353" transform="translate(58,54)"/>
<path d="M0 0 C0.66 0.99 1.32 1.98 2 3 C0.68 4.65 -0.64 6.3 -2 8 C-2.66 7.67 -3.32 7.34 -4 7 C-2.68 4.69 -1.36 2.38 0 0 Z " fill="#A1A1A1" transform="translate(67,26)"/>
<path d="M0 0 C1.65 1.65 3.3 3.3 5 5 C4.01 6.485 4.01 6.485 3 8 C0 3.375 0 3.375 0 0 Z " fill="#9E9E9E" transform="translate(63,123)"/>
<path d="M0 0 C4.70491803 2.40983607 4.70491803 2.40983607 6 5 C2.31245243 4.50168276 0.39509338 3.89932357 -2 1 C-1.34 0.67 -0.68 0.34 0 0 Z " fill="#8F8F8F" transform="translate(27,87)"/>
<path d="M0 0 C0.66 0.66 1.32 1.32 2 2 C1.01 2.495 1.01 2.495 0 3 C0 2.01 0 1.02 0 0 Z " fill="#4C4C4C" transform="translate(37,105)"/>
</svg>
