<?xml version="1.0" standalone="no"?>
<!DOCTYPE svg PUBLIC "-//W3C//DTD SVG 20010904//EN"
 "http://www.w3.org/TR/2001/REC-SVG-20010904/DTD/svg10.dtd">
<svg version="1.0" xmlns="http://www.w3.org/2000/svg"
 width="168.000000pt" height="157.000000pt" viewBox="0 0 168.000000 157.000000"
 preserveAspectRatio="xMidYMid meet">

<g transform="translate(0.000000,157.000000) scale(0.100000,-0.100000)"
fill="#000000" stroke="none">
<path d="M840 1421 c0 -18 14 -23 120 -37 105 -13 272 -99 337 -172 23 -26 58
-65 77 -87 l37 -40 -22 38 c-12 22 -28 41 -35 44 -8 3 -12 8 -9 13 6 10 -143
150 -160 150 -7 0 -18 7 -25 15 -7 8 -21 15 -31 15 -11 0 -19 4 -19 9 0 7 -68
42 -90 45 -3 1 -11 5 -18 10 -8 4 -47 10 -88 12 -66 3 -74 1 -74 -15z"/>
<path d="M609 1392 c-25 -9 -58 -27 -75 -38 -16 -12 -33 -22 -37 -22 -16 -1
-82 -60 -75 -68 10 -10 78 38 71 50 -3 5 -2 6 4 3 6 -4 32 4 59 17 27 12 70
29 97 37 48 14 65 40 25 38 -13 0 -43 -8 -69 -17z"/>
<path d="M689 1115 c-104 -29 -181 -94 -228 -195 -50 -105 -26 -268 52 -357
26 -30 101 -86 117 -88 3 0 15 -6 28 -13 12 -7 22 -10 22 -6 0 3 6 2 13 -4 16
-13 132 -9 170 6 15 6 27 8 27 4 0 -4 4 -2 8 3 4 6 28 23 53 38 79 45 141 139
155 234 16 107 -39 244 -124 311 -38 30 -122 68 -122 55 0 -3 -6 0 -14 6 -21
17 -104 20 -157 6z m187 -75 c105 -45 165 -140 166 -261 0 -59 -5 -80 -31
-134 -20 -40 -46 -75 -69 -92 -20 -16 -43 -34 -50 -40 -7 -7 -18 -13 -24 -13
-15 0 -4 22 17 34 33 20 85 80 110 130 81 161 -40 366 -217 366 -67 0 -112
-17 -160 -62 -96 -88 -90 -247 12 -314 22 -15 46 -24 55 -20 8 3 15 1 15 -4 0
-34 116 15 158 65 33 41 36 73 13 130 -19 47 -42 62 -94 62 -42 1 -50 -3 -69
-30 -28 -39 -30 -64 -6 -70 15 -4 17 -3 8 8 -17 20 13 71 45 77 14 3 25 1 25
-3 0 -5 4 -8 9 -6 5 1 18 -8 29 -21 23 -26 23 -92 0 -120 -21 -25 -73 -42
-112 -35 -29 4 -42 15 -66 51 -50 76 -35 149 40 197 47 30 115 33 163 9 36
-19 88 -68 91 -87 1 -6 4 -16 7 -22 22 -38 -12 -160 -55 -198 -115 -104 -290
-68 -354 71 -99 218 120 430 344 332z"/>
<path d="M577 374 c3 -8 12 -13 20 -10 8 3 17 6 19 6 2 0 4 5 4 10 0 6 -11 10
-25 10 -18 0 -23 -4 -18 -16z"/>
<path d="M630 381 c0 -12 29 -23 42 -15 6 4 5 10 -3 15 -18 11 -39 11 -39 0z"/>
</g>
</svg>
