<?xml version="1.0" encoding="UTF-8"?>
<svg id="Layer_1" data-name="Layer 1" xmlns="http://www.w3.org/2000/svg" viewBox="0 0 812.5 121.1">
  <defs>
    <style>
      .cls-1 {
        fill: #ba0606;
      }

      .cls-2 {
        fill: #d10b0b;
      }
    </style>
  </defs>
  <path class="cls-1" d="m0,59.95v-2.54c0-15.49,4.94-28.57,14.82-39.25,5.61-6.05,11.79-10.73,18.56-14.02,5.61-2.76,9.7-4.14,12.28-4.14,1.69,0,2.54.63,2.54,1.87,0,.98-1.16,2.05-3.47,3.2-8.54,4.19-16.02,10.15-22.43,17.89-7.48,8.99-11.22,20.12-11.22,33.38,0,17.89,4.54,32.18,13.62,42.86,6.41,7.56,13.35,13.13,20.83,16.69,2.49,1.15,3.74,2.31,3.74,3.47s-.8,1.73-2.4,1.73c-3.12,0-7.88-1.73-14.29-5.2-10.33-5.61-18.29-13.4-23.9-23.37C3.34,83.1.44,72.24,0,59.95Z"/>
  <path class="cls-1" d="m60.75,59.95v-2.54c0-15.49,4.94-28.57,14.82-39.25,5.61-6.05,11.79-10.73,18.56-14.02,5.61-2.76,9.7-4.14,12.28-4.14,1.69,0,2.54.63,2.54,1.87,0,.98-1.16,2.05-3.47,3.2-8.55,4.19-16.02,10.15-22.43,17.89-7.48,8.99-11.22,20.12-11.22,33.38,0,17.89,4.54,32.18,13.62,42.86,6.41,7.56,13.35,13.13,20.83,16.69,2.49,1.15,3.74,2.31,3.74,3.47s-.8,1.73-2.4,1.73c-3.12,0-7.88-1.73-14.29-5.2-10.33-5.61-18.29-13.4-23.9-23.37-5.34-9.43-8.24-20.29-8.68-32.58Z"/>
  <path class="cls-1" d="m168.54,36.85v3.47c2.87-3.43,5.58-5.8,8.13-7.12,2.55-1.32,5.74-1.97,9.57-1.97,7.81,0,13.55,3.03,17.22,9.09,2.71-3.35,5.46-5.7,8.25-7.06,2.79-1.35,6.38-2.03,10.76-2.03s8.61.96,12.2,2.87c3.98,2.15,6.74,5.18,8.25,9.09,1.04,2.63,1.56,6.78,1.56,12.44v20.57c0,3.27.04,5.27.12,5.99.39,2.87,1.42,4.3,3.08,4.3.55,0,1.38-.14,2.49-.42,1.11-.28,1.94-.42,2.49-.42,2.76,0,4.15,1.22,4.15,3.64,0,2.83-1.6,4.25-4.78,4.25h-22.84c-3.35,0-5.02-1.42-5.02-4.25,0-2.43,1.27-3.64,3.83-3.64.32,0,1.12.1,2.39.3.48.2,1.12.3,1.91.3,1.35,0,2.21-.68,2.57-2.03s.58-4.74.66-10.16v-15.19c0-5.5-.42-9.51-1.25-12.02-.83-2.51-2.4-4.49-4.71-5.92-2.3-1.43-4.92-2.15-7.86-2.15-5.64,0-9.57,1.95-11.79,5.86-1.75,3.11-2.62,8.53-2.62,16.27v8.49c0,7.5.18,12.18.54,14.06.36,1.88,1.29,2.81,2.81,2.81.48,0,1.17-.1,2.09-.3.92-.2,1.61-.3,2.09-.3,1.12,0,2.05.38,2.81,1.14.76.76,1.14,1.7,1.14,2.81,0,2.63-1.87,3.94-5.62,3.94h-21.41c-3.27,0-4.9-1.37-4.9-4.12,0-2.51,1.2-3.77,3.59-3.77.88,0,1.56.11,2.03.34,1.12.34,1.95.5,2.51.5,1.91,0,2.91-2.04,2.99-6.12l.36-5.64v-17.38c0-6.95-.94-11.79-2.81-14.51-1.88-2.72-5.2-4.08-9.99-4.08-5.26,0-9.29,1.92-12.08,5.76-2.31,3.12-3.47,8.55-3.47,16.31v15.94c0,3.2.04,5.07.12,5.64.32,2.71,1.2,4.07,2.63,4.07.4,0,1.24-.22,2.51-.67.16,0,.4-.06.72-.17h.84c3.11,0,4.66,1.33,4.66,4s-1.79,3.89-5.38,3.89h-23.44c-3.19,0-4.78-1.37-4.78-4.12,0-2.51,1.54-3.77,4.63-3.77h.73c.32.08.57.12.73.12l3.05.6c.08.08.24.12.49.12,2.19,0,3.37-1.95,3.53-5.84v-25.05c0-6.76-.18-10.97-.54-12.64-.36-1.67-1.33-2.51-2.93-2.51-.32,0-1.44.2-3.35.6-.8.16-1.43.24-1.91.24-2.95,0-4.43-1.27-4.43-3.83,0-2.71,1.63-4.07,4.9-4.07h12.92c1.91,0,2.87,1.16,2.87,3.47Z"/>
  <path class="cls-1" d="m315.89,57.81c0,3.02-.2,4.87-.6,5.54-.4.67-1.56,1.01-3.48,1.01h-38.13c-1.04,0-1.72.14-2.04.42-.32.28-.48.75-.48,1.38,0,6.01,1.8,11.02,5.4,15.03,3.6,4.01,8.07,6.02,13.43,6.02,3.52,0,6.73-.96,9.65-2.87,2.92-1.91,4.82-4.35,5.7-7.3l1.08-3.46c.56-1.92,1.88-2.87,3.96-2.87,2.96,0,4.44,1.52,4.44,4.55,0,5.18-2.63,9.79-7.89,13.82-5.26,4.02-11.24,6.04-17.94,6.04-8.37,0-15.03-2.81-19.97-8.43-4.95-5.62-7.42-13.18-7.42-22.66s2.63-17.62,7.89-23.68c5.26-6.06,12.12-9.09,20.57-9.09,7.49,0,13.67,2.5,18.54,7.51,4.86,5,7.3,11.36,7.3,19.07Zm-43.42-3.01c0,1.12.88,1.67,2.64,1.67h28.68c1.68,0,2.52-.56,2.52-1.67,0-4.23-1.6-7.89-4.8-11-3.2-3.11-6.96-4.67-11.28-4.67s-8.56,1.61-12.24,4.84c-3.68,3.23-5.52,6.84-5.52,10.83Z"/>
  <path class="cls-1" d="m351.53,31.23c7.89,0,13.79,3.07,17.7,9.21v-12.08c0-3.19-.08-5.14-.24-5.86-.4-2.47-1.52-3.71-3.35-3.71-.64,0-1.54.14-2.69.42-1.16.28-2.05.42-2.69.42-2.95,0-4.43-1.29-4.43-3.89s1.99-4.01,5.98-4.01h13.64c2.23,0,3.35,1.6,3.35,4.79v1.32c-.08.24-.16,2.36-.24,6.35,0,.48-.12,3.55-.36,9.22-.16,4-.24,7.03-.24,9.11v31.74c.08,5.27.32,8.55.73,9.82.41,1.28,1.38,1.92,2.92,1.92,1.05,0,1.87-.06,2.43-.18,1.3-.12,2.19-.18,2.68-.18,3,0,4.5,1.3,4.5,3.89s-1.79,4-5.38,4h-12.56c-2.15,0-3.23-1.43-3.23-4.3v-2.63c-4.22,5.66-10.34,8.49-18.37,8.49s-14.63-2.95-19.56-8.85c-4.93-5.9-7.4-13.63-7.4-23.2s2.43-17.36,7.3-23.14c4.86-5.78,11.36-8.67,19.49-8.67Zm17.22,42.22c.32-2.63.48-6.02.48-10.16,0-5.34-.2-8.97-.61-10.88-.72-3.99-2.46-7.09-5.2-9.33-3.22-2.63-6.93-3.95-11.12-3.95-5.64,0-10.05,2.11-13.23,6.34-3.18,4.23-4.77,10.01-4.77,17.34s1.65,13.54,4.95,17.88c3.3,4.35,7.81,6.52,13.54,6.52,4.35,0,7.97-1.26,10.88-3.77,2.9-2.51,4.59-5.84,5.08-9.99Z"/>
  <path class="cls-1" d="m415.87,58.38v15.54c0,3.99.04,6.34.12,7.06.4,3.59,1.47,5.38,3.23,5.38.4,0,1.39-.17,2.99-.52.4-.14.99-.2,1.79-.2,3.03,0,4.55,1.3,4.55,3.89,0,1.1-.5,2.04-1.5,2.83-1,.78-2.26,1.17-3.78,1.17h-24.84c-3.2,0-4.8-1.33-4.8-4s1.37-3.89,4.1-3.89c.64,0,1.59.1,2.83.3s2.19.3,2.84.3c1.93,0,3.1-2.55,3.5-7.65v-30.62c-.4-5.02-1.61-7.53-3.62-7.53-.65,0-1.55.14-2.72.42-1.16.28-2.03.42-2.59.42-2.9,0-4.34-1.27-4.34-3.83,0-2.71,1.75-4.07,5.26-4.07h14c2.31,0,3.47,1.56,3.47,4.67,0,.32-.03.79-.1,1.43-.06.64-.09,1.12-.09,1.43-.07.64-.13,3.11-.19,7.42-.07,3.27-.1,6.62-.1,10.05Zm-6.22-31.33c-1.84,0-3.41-.66-4.73-1.97-1.32-1.32-1.97-2.89-1.97-4.73s.66-3.39,1.97-4.66c1.32-1.28,2.89-1.92,4.73-1.92s3.41.64,4.73,1.92c1.31,1.27,1.97,2.83,1.97,4.66s-.66,3.41-1.97,4.73c-1.32,1.32-2.89,1.97-4.73,1.97Z"/>
  <path class="cls-1" d="m485,94.62c-6.54,0-10.56-2.83-12.08-8.49-4.07,5.98-10.45,8.97-19.14,8.97-6.46,0-11.62-1.6-15.49-4.79-3.87-3.19-5.8-7.45-5.8-12.8,0-6.61,2.83-11.48,8.49-14.59,2.15-1.2,4.01-1.97,5.56-2.33,1.56-.36,4.68-.82,9.39-1.38,6.7-.71,11.06-1.71,13.1-2.99,2.03-1.28,3.05-3.63,3.05-7.06s-1.14-5.84-3.41-7.71c-2.27-1.88-5.44-2.81-9.51-2.81-3.59,0-6.94,1-10.05,2.99-1.2.79-1.79,1.63-1.79,2.51,0,.32.36.72,1.08,1.2,1.11.79,1.67,2.15,1.67,4.07,0,1.6-.58,2.91-1.74,3.95-1.15,1.04-2.61,1.56-4.37,1.56-2.07,0-3.81-.72-5.2-2.15-1.39-1.43-2.09-3.19-2.09-5.26,0-4.46,2.21-8.29,6.64-11.48,4.43-3.19,9.79-4.78,16.09-4.78,14.51,0,21.77,6.96,21.77,20.88v24.11c0,3.82.08,6.09.24,6.81.48,2.78,1.83,4.18,4.07,4.18,2.79,0,4.19-2.54,4.19-7.61v-5.82c0-2.53,1.21-3.8,3.65-3.8,2.59,0,3.89,1.91,3.89,5.74v7.42c-.16,7.65-4.23,11.48-12.2,11.48Zm-13.4-23.8v-8.49c-1.75,1.6-3.59,2.71-5.54,3.35-1.95.64-5.42,1.2-10.42,1.68-9.05.88-13.58,4.23-13.58,10.05,0,3.03,1.09,5.42,3.29,7.18,2.19,1.75,5.16,2.63,8.91,2.63,5.34,0,9.55-1.46,12.62-4.37,3.07-2.91,4.64-6.91,4.72-12.01Z"/>
  <path class="cls-1" d="m512.63,95.1c-2.07,0-3.83-.74-5.26-2.22-1.43-1.47-2.15-3.25-2.15-5.32s.72-3.84,2.15-5.32c1.44-1.47,3.19-2.21,5.26-2.21s3.83.74,5.26,2.21c1.44,1.48,2.15,3.25,2.15,5.32s-.72,3.85-2.15,5.32c-1.43,1.48-3.19,2.22-5.26,2.22Z"/>
  <path class="cls-2" d="m572.25,94.26c-5.04,0-8.14-2.18-9.31-6.54-3.14,4.61-8.05,6.92-14.75,6.92-4.98,0-8.96-1.23-11.94-3.69-2.98-2.46-4.47-5.75-4.47-9.87,0-5.1,2.18-8.85,6.54-11.24,1.66-.93,3.09-1.52,4.29-1.8,1.2-.27,3.61-.63,7.24-1.06,5.16-.55,8.53-1.32,10.1-2.3,1.57-.98,2.35-2.79,2.35-5.44s-.88-4.5-2.63-5.95c-1.75-1.44-4.19-2.16-7.33-2.16-2.77,0-5.35.77-7.74,2.3-.92.61-1.38,1.26-1.38,1.94,0,.24.28.55.83.92.86.61,1.29,1.66,1.29,3.14,0,1.23-.45,2.24-1.33,3.04-.89.8-2.01,1.2-3.37,1.2-1.6,0-2.94-.55-4.01-1.66-1.08-1.11-1.61-2.46-1.61-4.06,0-3.44,1.71-6.39,5.12-8.85,3.41-2.46,7.54-3.69,12.4-3.69,11.19,0,16.78,5.37,16.78,16.1v18.58c0,2.94.06,4.69.19,5.24.37,2.15,1.41,3.22,3.13,3.22,2.15,0,3.23-1.96,3.23-5.86v-4.48c0-1.96.94-2.93,2.81-2.93,2,0,2.99,1.47,2.99,4.42v5.72c-.12,5.9-3.26,8.85-9.4,8.85Zm-10.33-18.34v-6.55c-1.34,1.24-2.77,2.09-4.27,2.58-1.5.5-4.18.93-8.03,1.29-6.98.68-10.47,3.26-10.47,7.74,0,2.34.84,4.18,2.53,5.53,1.69,1.35,3.98,2.03,6.87,2.03,4.12,0,7.36-1.12,9.72-3.37,2.37-2.24,3.58-5.33,3.64-9.26Z"/>
  <path class="cls-2" d="m598.44,49.73v2.67c2.21-2.64,4.3-4.47,6.27-5.49,1.96-1.01,4.42-1.52,7.38-1.52,6.02,0,10.45,2.34,13.28,7.01,2.09-2.58,4.21-4.39,6.36-5.44,2.15-1.05,4.91-1.57,8.3-1.57s6.64.74,9.4,2.21c3.07,1.66,5.19,4,6.36,7.01.8,2.03,1.2,5.22,1.2,9.59v15.86c0,2.52.03,4.05.09,4.61.3,2.22,1.09,3.32,2.37,3.32.43,0,1.06-.11,1.92-.32.85-.22,1.49-.32,1.92-.32,2.13,0,3.19.94,3.19,2.81,0,2.19-1.23,3.28-3.69,3.28h-17.61c-2.58,0-3.87-1.09-3.87-3.28,0-1.87.98-2.81,2.95-2.81.25,0,.86.07,1.84.23.37.16.86.23,1.48.23,1.04,0,1.7-.52,1.98-1.56.28-1.05.44-3.66.51-7.84v-11.71c0-4.24-.32-7.33-.96-9.26-.64-1.94-1.85-3.46-3.63-4.56-1.78-1.11-3.8-1.66-6.06-1.66-4.35,0-7.38,1.51-9.09,4.52-1.35,2.4-2.02,6.58-2.02,12.54v6.54c0,5.78.14,9.39.42,10.83.28,1.45,1,2.17,2.17,2.17.37,0,.9-.07,1.61-.23.71-.16,1.24-.23,1.61-.23.86,0,1.58.29,2.17.88.58.58.88,1.3.88,2.17,0,2.02-1.45,3.04-4.33,3.04h-16.5c-2.52,0-3.78-1.06-3.78-3.19,0-1.93.92-2.9,2.77-2.9.68,0,1.2.09,1.57.25.86.26,1.51.39,1.93.39,1.47,0,2.24-1.57,2.31-4.71l.28-4.35v-13.4c0-5.36-.72-9.09-2.17-11.18-1.44-2.1-4.01-3.15-7.7-3.15-4.05,0-7.16,1.48-9.31,4.44-1.78,2.4-2.67,6.59-2.67,12.57v12.29c0,2.47.03,3.91.09,4.35.24,2.09.92,3.14,2.03,3.14.31,0,.95-.17,1.94-.52.12,0,.3-.04.55-.13h.65c2.4,0,3.59,1.03,3.59,3.09s-1.38,3-4.15,3h-18.07c-2.46,0-3.69-1.06-3.69-3.19,0-1.93,1.19-2.9,3.57-2.9h.56c.25.06.44.09.56.09l2.35.46c.06.06.19.09.38.09,1.69,0,2.6-1.5,2.72-4.51v-19.31c0-5.21-.14-8.46-.42-9.75s-1.03-1.93-2.26-1.93c-.25,0-1.11.15-2.58.46-.61.12-1.11.18-1.47.18-2.28,0-3.41-.98-3.41-2.95,0-2.09,1.26-3.14,3.78-3.14h9.96c1.47,0,2.21.89,2.21,2.68Z"/>
  <path class="cls-1" d="m735.19,17.63c10.42,11.3,15.89,25.81,16.42,43.53.09.53.13,1.38.13,2.54,0,15.49-4.99,28.62-14.95,39.39-5.34,5.79-11.53,10.41-18.56,13.89-5.61,2.76-9.7,4.14-12.28,4.14-1.69,0-2.54-.62-2.54-1.87,0-.98,1.15-2.05,3.47-3.2,8.72-4.45,16.25-10.41,22.57-17.89,7.48-8.9,11.21-20.03,11.21-33.38,0-17.89-4.54-32.18-13.62-42.86-6.41-7.48-13.4-13.04-20.96-16.69-2.49-1.15-3.74-2.27-3.74-3.34,0-1.24.8-1.87,2.4-1.87,3.12,0,7.85,1.72,14.22,5.14,6.36,3.43,11.77,7.59,16.22,12.49Z"/>
  <path class="cls-1" d="m795.94,17.63c10.42,11.3,15.89,25.81,16.42,43.53.09.53.13,1.38.13,2.54,0,15.49-4.99,28.62-14.95,39.39-5.34,5.79-11.53,10.41-18.56,13.89-5.61,2.76-9.7,4.14-12.28,4.14-1.69,0-2.54-.62-2.54-1.87,0-.98,1.15-2.05,3.47-3.2,8.72-4.45,16.25-10.41,22.57-17.89,7.48-8.9,11.21-20.03,11.21-33.38,0-17.89-4.54-32.18-13.62-42.86-6.41-7.48-13.4-13.04-20.96-16.69-2.49-1.15-3.74-2.27-3.74-3.34,0-1.24.8-1.87,2.4-1.87,3.12,0,7.85,1.72,14.22,5.14,6.36,3.43,11.77,7.59,16.22,12.49Z"/>
</svg>