<svg width="150" height="150" viewBox="0 0 150 150" fill="none" xmlns="http://www.w3.org/2000/svg">
<path d="M0.291992 75.5906C0.291992 80.6704 2.52211 85.2369 6.04945 88.3667C3.72138 85.3829 2.32743 81.6337 2.32743 77.5619C2.32743 67.8753 10.1922 59.9934 19.8608 59.9934C22.3536 59.9934 24.724 60.5198 26.8729 61.463C24.1483 59.6083 20.8605 58.5233 17.3253 58.5233C7.93278 58.5233 0.291992 66.179 0.291992 75.5906Z" fill="#F68B1A"/>
<path d="M8.77259 74.5857C8.77259 72.1912 9.39424 69.9416 10.479 67.985C10.6925 67.5665 10.932 67.1661 11.1994 66.7851C8.05856 69.3249 6.04297 73.2116 6.04297 77.5621C6.04297 85.1946 12.2412 91.4062 19.8603 91.4062C25.0389 91.4062 29.5591 88.5367 31.9248 84.3009C29.4667 86.7255 26.0985 88.2234 22.3854 88.2234C14.8797 88.2234 8.77259 82.1072 8.77259 74.5857Z" fill="#4B2A91"/>
<path d="M19.2916 82.39C17.9011 82.39 16.5785 82.099 15.377 81.5774C17.1696 83.3814 19.6493 84.5 22.386 84.5C27.8427 84.5 32.2815 80.0536 32.2815 74.5858C32.2815 70.5128 29.8153 67.0077 26.3012 65.4845C28.0835 67.278 29.1871 69.7497 29.1871 72.4756C29.1871 77.9434 24.7488 82.39 19.2916 82.39Z" fill="#4B2A91"/>
<path d="M22.5276 72.6659C22.5276 75.3124 20.9541 77.5949 18.6965 78.6361C18.8926 78.656 19.0901 78.668 19.2923 78.668C22.6993 78.668 25.4715 75.8899 25.4715 72.4758C25.4715 69.0608 22.6993 66.2824 19.2923 66.2824C18.8533 66.2824 18.4239 66.3309 18.0107 66.4191C20.6296 67.2834 22.5276 69.7556 22.5276 72.6659Z" fill="#F68B1A"/>
<path d="M15.961 75.5195C17.5329 75.5195 18.8111 74.239 18.8111 72.6657C18.8111 71.0908 17.5329 69.8096 15.961 69.8096C14.4115 69.8096 13.1529 71.0572 13.1182 72.6015C13.1198 72.6871 13.1271 72.7713 13.1312 72.856C13.2316 74.3384 14.4551 75.5195 15.961 75.5195Z" fill="#4B2A91"/>
<path d="M43.2422 70.8638C42.9343 70.8638 42.6493 70.8197 42.3883 70.7312C42.1271 70.6437 41.9012 70.5169 41.7115 70.3521C41.5211 70.1873 41.3723 69.9879 41.2649 69.751C41.158 69.5156 41.1039 69.2482 41.1039 68.9509V65.8045C41.1039 65.6479 41.0892 65.5407 41.0628 65.479C41.0357 65.4183 40.9751 65.3877 40.883 65.3877H40.7666V65.0768H42.1593V65.3877H42.0421C41.95 65.3877 41.89 65.4195 41.8642 65.4837C41.839 65.5467 41.8255 65.655 41.8255 65.8076V69.0987C41.8255 69.3654 41.8654 69.5874 41.9436 69.7663C42.0235 69.9465 42.1285 70.0889 42.2608 70.1972C42.3926 70.3051 42.5435 70.3805 42.7144 70.4252C42.8849 70.4716 43.0612 70.4942 43.2422 70.4942C43.4226 70.4942 43.5996 70.4712 43.7698 70.424C43.9403 70.3774 44.0931 70.3003 44.226 70.1939C44.3599 70.0854 44.4663 69.9423 44.5463 69.7644C44.6261 69.5868 44.6666 69.3654 44.6666 69.0987V65.8076C44.6666 65.655 45.7261 65.0768 45.7261 65.0768C45.8658 65.0768 46.0051 65.0804 46.1438 65.0868C46.2814 65.0938 46.4143 65.1056 46.541 65.1232C46.6675 65.1421 46.7832 65.1686 46.8878 65.2034C46.993 65.2388 47.081 65.287 47.1546 65.3493L46.7479 65.8357H46.5141C46.4693 65.7533 46.4125 65.6856 46.3414 65.6339C46.2697 65.5815 46.1891 65.5419 46.0992 65.5148C46.0082 65.4883 45.9111 65.4688 45.8059 65.4607C45.7013 65.4512 45.5945 65.4465 45.4856 65.4465H45.3889V68.9509C45.3889 69.2482 45.3359 69.5156 45.227 69.751C45.1196 69.9879 44.9716 70.1873 44.7811 70.3521C44.5913 70.5169 44.3646 70.6437 44.102 70.7312C43.8393 70.8197 43.5518 70.8638 43.2422 70.8638Z" fill="#4B2A91"/>
<path d="M48.671 65.8085V66.6488H50.9034C51.0504 66.6488 51.2002 66.6498 51.3535 66.6535C51.5059 66.6552 51.6522 66.6651 51.7915 66.6842C51.9318 66.7016 52.061 66.7293 52.1775 66.7653C52.2949 66.8018 52.3924 66.8536 52.4701 66.9213L52.0641 67.4853H51.8307C51.7861 67.4017 51.7249 67.3317 51.6468 67.2739C51.5662 67.2176 51.4782 67.172 51.3771 67.1362C51.2754 67.102 51.169 67.0768 51.0562 67.0608C50.9439 67.0461 50.833 67.0381 50.7242 67.0381H48.671V69.0992C48.671 69.3659 48.7109 69.5873 48.7921 69.7656C48.8721 69.9428 48.9783 70.0859 49.1112 70.1944C49.2458 70.3008 49.3968 70.3779 49.5678 70.4244C49.7389 70.4717 49.9152 70.4951 50.0962 70.4951C50.2766 70.4951 50.4533 70.4721 50.6238 70.4269C50.7947 70.3814 50.9452 70.3037 51.0768 70.196C51.2089 70.0865 51.3147 69.9411 51.394 69.7598C51.4724 69.578 51.5123 69.3516 51.5123 69.0791V68.9091C51.5123 68.8166 51.5034 68.7549 51.4833 68.7211C51.4635 68.6869 51.4275 68.6712 51.373 68.6712H51.3335V68.3596H52.4166V68.6712H52.3778C52.3226 68.6712 52.286 68.6793 52.2643 68.6965C52.2445 68.7134 52.2331 68.7412 52.2331 68.7807V68.9514C52.2331 69.2493 52.1808 69.5167 52.0727 69.7515C51.9659 69.9884 51.8167 70.1878 51.6268 70.3526C51.437 70.5174 51.2107 70.6441 50.9487 70.7324C50.6885 70.8202 50.4039 70.8643 50.0962 70.8643C49.7852 70.8643 49.4985 70.8202 49.2356 70.7324C48.9732 70.6441 48.7475 70.5174 48.5565 70.3526C48.366 70.1878 48.2174 69.9884 48.1106 69.7515C48.0031 69.5167 47.9502 69.2493 47.9502 68.9514V65.805" fill="#4B2A91"/>
<path d="M47.9588 66.9399V65.6106C47.9588 65.524 47.8925 65.4681 47.8673 65.4397C47.8425 65.4116 47.7962 65.3873 47.7267 65.3691C47.6569 65.3509 47.4847 65.3366 47.2109 65.3263L47.1797 65.2996V65.1047L47.2109 65.077L47.6939 65.0931C48.0123 65.1028 48.2211 65.1076 48.319 65.1076C48.4073 65.1076 48.778 65.0983 49.4321 65.077L49.4625 65.1047V65.2996L49.4321 65.3263C49.2529 65.3308 49.1159 65.3395 49.019 65.3497C48.9221 65.3608 48.852 65.3797 48.8074 65.4085C48.764 65.4368 48.6817 65.5016 48.6817 65.6075V66.9399H47.9588Z" fill="#4B2A91"/>
<path d="M53.3653 66.9053C53.3653 66.6075 53.4182 66.3412 53.5262 66.1039C53.6343 65.8679 53.7829 65.6682 53.9728 65.5028C54.1638 65.3386 54.3889 65.2131 54.6505 65.1237C54.9113 65.0359 55.1957 64.993 55.5036 64.993C55.815 64.993 56.1007 65.0359 56.3639 65.1237C56.6264 65.2131 56.8523 65.3386 57.0426 65.5028C57.2317 65.6682 57.3818 65.8679 57.4886 66.1039C57.5967 66.3412 57.6496 66.6075 57.6496 66.9053V68.4144H57.8087C57.9575 68.4144 58.0991 68.4154 58.2353 68.4185C58.3729 68.4214 58.5021 68.4301 58.6222 68.4485C58.7427 68.4672 58.8536 68.4943 58.9535 68.5297C59.0551 68.5668 59.1444 68.6192 59.2215 68.6869L58.8148 69.172H58.6209C58.5757 69.0896 58.5252 69.0225 58.4647 68.9695C58.406 68.9178 58.3388 68.8788 58.2636 68.8511C58.1884 68.8252 58.1051 68.8057 58.0109 68.7977C57.9174 68.7875 57.817 68.7834 57.7089 68.7834H57.6496V70.0517C57.6496 70.2065 57.6643 70.3155 57.6901 70.3761C57.7182 70.4372 57.7784 70.4679 57.8718 70.4679H57.9881V70.7793H56.5942V70.4679H56.7107C56.8035 70.4679 56.8635 70.4349 56.8899 70.3726C56.9151 70.3084 56.9273 70.2001 56.9273 70.0475V66.7582C56.9273 66.4909 56.8887 66.2677 56.8075 66.0911C56.7271 65.9132 56.6212 65.7701 56.4871 65.6629C56.3544 65.5558 56.2028 65.4782 56.0318 65.4322C55.8609 65.3846 55.6853 65.362 55.5036 65.362C55.3226 65.362 55.1463 65.3839 54.976 65.4293C54.8049 65.4753 54.6538 65.5523 54.5224 65.6606C54.3895 65.7695 54.2843 65.9149 54.2062 66.0963C54.1262 66.2776 54.0873 66.5044 54.0873 66.7769V66.9442C54.0873 67.0353 54.0962 67.0972 54.1163 67.1301C54.1361 67.1655 54.1727 67.1809 54.2262 67.1809H54.2655V67.4929H53.1836V67.1809H53.2218C53.276 67.1809 53.3136 67.1736 53.3343 67.156C53.3553 67.1397 53.3653 67.1109 53.3653 67.0732V66.9053Z" fill="#4B2A91"/>
<path d="M64.1258 68.6707C64.1258 68.709 64.1363 68.7372 64.1564 68.7537C64.1775 68.7701 64.2147 68.7796 64.2692 68.7796H64.3085V69.0904H63.225V68.7796H63.2644C63.3184 68.7796 63.3554 68.7624 63.3754 68.7291C63.3942 68.6956 63.4037 68.633 63.4037 68.5423V68.3663C63.4037 68.1827 63.3824 68.0213 63.3394 67.8818C63.2973 67.741 63.2386 67.6196 63.1646 67.5173C63.0917 67.4155 63.0059 67.3302 62.9088 67.2637C62.812 67.1954 62.7095 67.1417 62.601 67.1022C62.4917 67.061 62.3822 67.0322 62.2706 67.0156C62.1596 66.9993 62.0521 66.9904 61.9486 66.9904C61.7072 66.9904 61.4675 67.0305 61.2265 67.1088C60.9862 67.1881 60.7652 67.3177 60.5619 67.4962V70.0512C60.5619 70.1361 60.5683 70.2063 60.5766 70.2604C60.5854 70.3157 60.5995 70.3569 60.6177 70.3881C60.6346 70.4169 60.6584 70.4382 60.6859 70.4494C60.7123 70.461 60.7454 70.4676 60.7847 70.4676H60.8998V70.7778H59.5029V70.4676H59.6199C59.6594 70.4676 59.6922 70.461 59.7187 70.4494C59.7458 70.4382 59.7681 70.4169 59.7881 70.3881C59.8051 70.3569 59.8185 70.3157 59.8274 70.2604C59.8373 70.2063 59.841 70.1361 59.841 70.0512V65.8047C59.841 65.7192 59.8373 65.6479 59.8274 65.5949C59.8185 65.5403 59.8051 65.4984 59.7881 65.4684C59.7681 65.439 59.7458 65.4173 59.7187 65.4071C59.6922 65.3943 59.6594 65.3879 59.6199 65.3879H59.5029V65.0768H60.8975V65.3879H60.7847C60.7454 65.3879 60.7123 65.3943 60.6859 65.4071C60.6584 65.4173 60.6346 65.439 60.6177 65.4684C60.5995 65.4984 60.5854 65.5403 60.5766 65.5949C60.5683 65.6479 60.5619 65.7192 60.5619 65.8047V67.0376C60.747 66.892 60.9626 66.7773 61.2108 66.6907C61.4592 66.6058 61.7407 66.563 62.0534 66.563C62.3582 66.563 62.6393 66.6071 62.8941 66.6965C63.1481 66.7866 63.3671 66.915 63.5494 67.0823C63.7327 67.2494 63.8743 67.4507 63.9743 67.6869C64.0754 67.9224 64.1258 68.1856 64.1258 68.4759V68.6707Z" fill="#4B2A91"/>
<path d="M69.7594 70.1596C69.8317 70.1942 69.8917 70.2073 69.9408 70.2002C69.9925 70.1948 70.0291 70.1772 70.0584 70.1485L70.1171 70.0938L70.294 70.258L69.7393 70.9067C69.585 70.8655 69.4339 70.8003 69.2857 70.7125C69.1377 70.6235 68.9902 70.5253 68.8439 70.4168C68.6471 70.5698 68.4215 70.6829 68.1664 70.755C67.912 70.8278 67.6421 70.8637 67.3571 70.8637C67.0552 70.8637 66.7719 70.8262 66.511 70.7506C66.2502 70.6754 66.0227 70.5607 65.8324 70.4046C65.6408 70.2491 65.491 70.0524 65.3798 69.8134C65.27 69.5755 65.2146 69.2929 65.2146 68.9661V65.8046C65.2146 65.6478 65.2018 65.5408 65.1741 65.4791C65.1466 65.4184 65.0871 65.3884 64.9931 65.3884H64.877V65.0767H66.2707V65.3884H66.1537C66.0609 65.3884 66.0016 65.4194 65.9758 65.4836C65.9493 65.5466 65.9363 65.6561 65.9363 65.8079V69.0433C65.9363 69.5138 66.0661 69.8681 66.3246 70.1095C66.5838 70.3503 66.9669 70.4711 67.4735 70.4711C67.688 70.4711 67.8843 70.4458 68.0612 70.3945C68.2392 70.3452 68.3944 70.2744 68.5289 70.1826C68.3832 70.0743 68.2392 69.9706 68.0929 69.8722C67.9459 69.7741 67.7944 69.6939 67.637 69.6349C67.5611 69.6068 67.4983 69.595 67.4466 69.5997C67.3947 69.6061 67.3542 69.6215 67.3261 69.6498L67.2679 69.7051L67.1011 69.5378L67.644 68.9003C67.7657 68.9261 67.8843 68.9638 67.9988 69.0162C68.1141 69.0692 68.2274 69.1282 68.3373 69.1976C68.4467 69.2659 68.5554 69.3401 68.6635 69.419C68.7697 69.4978 68.8774 69.5774 68.9838 69.6579C69.0243 69.5668 69.0553 69.472 69.0791 69.3724C69.1005 69.2724 69.1119 69.1686 69.1119 69.0593C69.1119 68.8313 69.0935 68.6288 69.0584 68.4528C69.0237 68.2761 68.9861 68.1155 68.9443 67.9728C68.9026 67.8281 68.8643 67.6951 68.8302 67.5719C68.7951 67.4483 68.7779 67.3276 68.7779 67.2087V65.8046C68.7779 65.6478 68.7645 65.5408 68.7358 65.4791C68.7097 65.4184 68.6488 65.3884 68.5566 65.3884H68.4403V65.0767H69.8328V65.3884H69.7176C69.623 65.3884 69.5637 65.4194 69.5385 65.4836C69.5126 65.5466 69.499 65.6561 69.499 65.8079V68.9661C69.499 69.1446 69.4814 69.31 69.4444 69.4637C69.4085 69.6167 69.3568 69.7563 69.2905 69.8836C69.3676 69.9364 69.4444 69.9853 69.5232 70.0337C69.6001 70.0814 69.6788 70.1232 69.7594 70.1596Z" fill="#4B2A91"/>
<path d="M45.8579 76.742C45.8579 77.04 45.8044 77.3073 45.6963 77.5428C45.5901 77.7784 45.4396 77.9786 45.2505 78.1435C45.06 78.3081 44.8349 78.4354 44.5722 78.5226C44.3125 78.6098 44.0271 78.6543 43.7189 78.6543C43.4093 78.6543 43.1233 78.6098 42.8604 78.5226C42.5967 78.4354 42.3704 78.3081 42.1801 78.1435C41.9902 77.9786 41.8416 77.7784 41.7341 77.5428C41.6265 77.3073 41.5731 77.04 41.5731 76.742V73.5751H41.5066C41.359 73.5751 41.2094 73.5739 41.0561 73.5722C40.905 73.5693 40.7574 73.5586 40.6188 73.5403C40.4782 73.5234 40.3497 73.4956 40.2321 73.4586C40.1145 73.4227 40.0163 73.3714 39.9395 73.3043L40.3468 72.7402H40.5793C40.6241 72.8233 40.681 72.8935 40.7527 72.95C40.8227 73.0076 40.905 73.0535 40.9949 73.0881C41.0842 73.1225 41.1827 73.1488 41.2875 73.1643C41.3927 73.18 41.4989 73.1867 41.6083 73.1867H42.629V73.4985H42.5122C42.4192 73.4985 42.3593 73.5304 42.3335 73.594C42.3087 73.6565 42.2946 73.7648 42.2946 73.9184V76.8893C42.2946 77.1566 42.3345 77.3779 42.4157 77.557C42.4951 77.7337 42.6025 77.8761 42.736 77.9832C42.8687 78.0917 43.0208 78.1681 43.1913 78.2163C43.3618 78.2611 43.5379 78.2847 43.7189 78.2847C43.9006 78.2847 44.0763 78.2623 44.2474 78.2176C44.4177 78.1716 44.57 78.095 44.7008 77.9857C44.8333 77.8772 44.9382 77.7312 45.0178 77.5498C45.097 77.3696 45.1364 77.1425 45.1364 76.8694V76.6985C45.1364 76.6081 45.1263 76.5468 45.1069 76.5114C45.0875 76.4784 45.0507 76.4608 44.9959 76.4608H44.9579V76.1511H46.0408V76.4608H46.0019C45.9474 76.4608 45.9092 76.4691 45.8885 76.4867C45.868 76.5031 45.8579 76.5312 45.8579 76.5714V76.742Z" fill="#4B2A91"/>
<path d="M51.4899 77.9503C51.5616 77.9845 51.6234 77.9975 51.6726 77.9927C51.7207 77.9857 51.7596 77.9669 51.7883 77.9397L51.8466 77.8845L52.0251 78.048L51.4704 78.6968C51.3152 78.6568 51.165 78.591 51.0168 78.5025C50.8693 78.4154 50.7213 78.3154 50.5737 78.2071C50.3764 78.3601 50.1513 78.4731 49.8973 78.5462C49.6419 78.6181 49.372 78.6543 49.0876 78.6543C48.785 78.6543 48.5029 78.6168 48.2421 78.5438C47.9801 78.4661 47.7538 78.3518 47.5622 78.1953C47.3706 78.04 47.2208 77.843 47.1098 77.6041C47.0005 77.3664 46.9453 77.0835 46.9453 76.7561V73.5959C46.9453 73.4397 46.9311 73.3314 46.9046 73.2708C46.8771 73.2101 46.8172 73.1801 46.7236 73.1801H46.6074V72.868H48.0005V73.1801H47.8848C47.7914 73.1801 47.7315 73.2113 47.706 73.2749C47.6796 73.3381 47.6668 73.4468 47.6668 73.6V76.834C47.6668 77.3051 47.7955 77.6583 48.0547 77.901C48.3138 78.141 48.6968 78.2611 49.204 78.2611C49.4187 78.2611 49.6136 78.2377 49.7917 78.1859C49.9698 78.1362 50.1248 78.0646 50.26 77.9739C50.1143 77.8656 49.9698 77.7619 49.8235 77.6629C49.6766 77.5654 49.5255 77.4865 49.3672 77.4252C49.2916 77.398 49.2288 77.3852 49.1777 77.3898C49.1248 77.3956 49.0847 77.4134 49.056 77.4417L48.9977 77.4958L48.8315 77.3285L49.3751 76.6903C49.4962 76.7162 49.6136 76.7561 49.7293 76.8071C49.8446 76.8599 49.9562 76.9189 50.0672 76.9883C50.1771 77.0576 50.2865 77.1307 50.3933 77.2109C50.501 77.2898 50.6068 77.3684 50.7136 77.4486C50.7541 77.3581 50.7866 77.2626 50.8083 77.1636C50.8306 77.0636 50.8418 76.9589 50.8418 76.8493C50.8418 76.6222 50.8246 76.4194 50.7895 76.243C50.7541 76.0674 50.7153 75.9086 50.6754 75.7647C50.633 75.62 50.595 75.4858 50.5609 75.3628C50.5262 75.2396 50.508 75.1178 50.508 74.9994V73.5959C50.508 73.4397 50.4946 73.3314 50.4675 73.2708C50.4392 73.2101 50.3793 73.1801 50.2871 73.1801H50.1707V72.868H51.5632V73.1801H51.4469C51.3547 73.1801 51.2948 73.2113 51.2689 73.2749C51.2431 73.3381 51.2301 73.4468 51.2301 73.6V76.7561C51.2301 76.9355 51.2119 77.1024 51.1755 77.2558C51.1392 77.4076 51.0879 77.5478 51.0205 77.6747C51.098 77.7267 51.1755 77.7759 51.253 77.8244C51.3311 77.8714 51.4105 77.9149 51.4899 77.9503Z" fill="#4B2A91"/>
<path d="M52.9883 73.5961C52.9883 73.5096 52.9835 73.4402 52.9736 73.3859C52.9666 73.3313 52.9517 73.2895 52.9335 73.2594C52.9153 73.2288 52.893 73.2087 52.8659 73.1975C52.8376 73.1857 52.8054 73.1799 52.7661 73.1799H52.6504V72.8683H54.0435V73.1799H53.9303C53.8924 73.1799 53.8596 73.1857 53.8315 73.1975C53.8044 73.2087 53.7827 73.2288 53.7651 73.2594C53.7461 73.2895 53.7329 73.3313 53.7228 73.3859C53.7139 73.4402 53.7098 73.5096 53.7098 73.5961V74.4393H56.3218V74.7507H56.2054C56.112 74.7507 56.0527 74.783 56.0262 74.8466C56.001 74.9098 55.988 75.0181 55.988 75.17V76.8895C55.988 77.1569 56.0196 77.3795 56.0827 77.5573C56.1461 77.7387 56.2348 77.8799 56.3476 77.9884C56.4592 78.0965 56.5927 78.1721 56.7467 78.2179C56.9013 78.2626 57.068 78.2852 57.2497 78.2852C57.4301 78.2852 57.5981 78.2614 57.7509 78.2166C57.9061 78.1684 58.04 78.092 58.1534 77.9835C58.2673 77.8764 58.3562 77.734 58.4213 77.5548C58.486 77.3784 58.5184 77.1569 58.5184 76.8895V75.17C58.5184 75.0181 58.506 74.9098 58.4789 74.8466C58.4537 74.783 58.3948 74.7507 58.301 74.7507H58.1847V74.4393H59.5784V74.7507H59.4608C59.3692 74.7507 59.3087 74.7814 59.2804 74.842C59.2539 74.9027 59.2399 75.0114 59.2399 75.1669V76.7423C59.2399 77.0405 59.1946 77.3078 59.1041 77.5432C59.0136 77.7787 58.8826 77.9789 58.711 78.1437C58.5395 78.3086 58.3303 78.4357 58.0846 78.5229C57.8379 78.6101 57.5587 78.6548 57.2497 78.6548C56.9405 78.6548 56.6644 78.6101 56.4183 78.5229C56.1726 78.4357 55.9645 78.3086 55.7935 78.1437C55.6237 77.9789 55.492 77.7787 55.4021 77.5432C55.311 77.3078 55.2659 77.0405 55.2659 76.7423V75.1669C55.2659 75.0887 55.2635 75.0274 55.2581 74.9814C55.2529 74.9373 55.2424 74.9027 55.2252 74.8814C55.2095 74.859 55.1853 74.8449 55.1583 74.8379C55.1283 74.8319 55.0913 74.8278 55.0448 74.8278H53.7098V77.8423C53.7098 77.9271 53.7139 77.9978 53.7228 78.052C53.7329 78.1061 53.7461 78.1485 53.7651 78.1792C53.7827 78.2075 53.8044 78.2284 53.8315 78.2404C53.8596 78.2533 53.8924 78.258 53.9303 78.258H54.0435V78.5701H52.6504V78.258H52.7661C52.8054 78.258 52.8376 78.2533 52.8659 78.2404C52.893 78.2284 52.9153 78.2075 52.9335 78.1792C52.9517 78.1485 52.9666 78.1061 52.9736 78.052C52.9835 77.9978 52.9883 77.9271 52.9883 77.8423V73.5961Z" fill="#4B2A91"/>
<path d="M65.0289 77.9503C65.1019 77.9845 65.1618 77.9975 65.2106 77.9927C65.2604 77.9857 65.2999 77.9669 65.328 77.9397L65.3856 77.8845L65.5644 78.048L65.0095 78.6968C64.8545 78.6568 64.7022 78.591 64.5548 78.5025C64.4073 78.4154 64.2603 78.3154 64.1128 78.2071C63.9167 78.3601 63.6904 78.4731 63.4347 78.5462C63.1797 78.6181 62.9112 78.6543 62.6262 78.6543C62.3241 78.6543 62.0416 78.6168 61.7793 78.5438C61.5198 78.4661 61.2922 78.3518 61.1007 78.1953C60.9103 78.04 60.7586 77.843 60.6495 77.6041C60.5389 77.3664 60.4844 77.0835 60.4844 76.7561V73.5959C60.4844 73.4397 60.4707 73.3314 60.4426 73.2708C60.4156 73.2101 60.3562 73.1801 60.2626 73.1801H60.1465V72.868H61.5402V73.1801H61.4235C61.3301 73.1801 61.2705 73.2113 61.2441 73.2749C61.2193 73.3381 61.2054 73.4468 61.2054 73.6V76.834C61.2054 77.3051 61.3346 77.6583 61.5944 77.901C61.8523 78.141 62.2354 78.2611 62.7426 78.2611C62.9582 78.2611 63.1539 78.2377 63.3308 78.1859C63.5083 78.1362 63.6639 78.0646 63.7984 77.9739C63.6527 77.8656 63.5083 77.7619 63.3614 77.6629C63.2157 77.5654 63.0633 77.4865 62.9048 77.4252C62.8319 77.398 62.7672 77.3852 62.7155 77.3898C62.6645 77.3956 62.6231 77.4134 62.5957 77.4417L62.5374 77.4958L62.3694 77.3285L62.9135 76.6903C63.0346 76.7162 63.1539 76.7561 63.269 76.8071C63.3831 76.8599 63.4965 76.9189 63.6063 76.9883C63.7168 77.0576 63.8249 77.1307 63.9324 77.2109C64.0394 77.2898 64.1469 77.3684 64.2521 77.4486C64.2944 77.3581 64.3256 77.2626 64.3467 77.1636C64.3701 77.0636 64.3802 76.9589 64.3802 76.8493C64.3802 76.6222 64.3626 76.4194 64.3285 76.243C64.2932 76.0674 64.255 75.9086 64.214 75.7647C64.1727 75.62 64.1334 75.4858 64.0994 75.3628C64.064 75.2396 64.0471 75.1178 64.0471 74.9994V73.5959C64.0471 73.4397 64.0336 73.3314 64.0053 73.2708C63.9795 73.2101 63.9189 73.1801 63.8255 73.1801H63.7085V72.868H65.1035V73.1801H64.9861C64.8921 73.1801 64.8338 73.2113 64.808 73.2749C64.7822 73.3381 64.7681 73.4468 64.7681 73.6V76.7561C64.7681 76.9355 64.7497 77.1024 64.714 77.2558C64.6782 77.4076 64.6259 77.5478 64.5596 77.6747C64.6371 77.7267 64.714 77.7759 64.7927 77.8244C64.8696 77.8714 64.9483 77.9149 65.0289 77.9503Z" fill="#4B2A91"/>
<path d="M67.0614 77.0752C66.8887 77.0752 66.7618 77.1141 66.6818 77.1918C66.6012 77.2707 66.5615 77.3709 66.5615 77.491C66.5615 77.5722 66.5873 77.6511 66.6371 77.7287C66.6865 77.8066 66.7665 77.8759 66.8752 77.936C66.9843 77.9973 67.1236 78.0468 67.2941 78.0844C67.4652 78.1221 67.6709 78.1408 67.9116 78.1408C68.0981 78.1408 68.2807 78.1103 68.4605 78.0457C68.641 77.9832 68.8106 77.889 68.9712 77.7641C68.8313 77.6757 68.6837 77.5898 68.5263 77.5076C68.3706 77.4249 68.2096 77.3508 68.0456 77.2862C67.8817 77.2201 67.7155 77.1682 67.5479 77.133C67.3815 77.0955 67.2201 77.0752 67.0614 77.0752ZM70.7605 75.0217C70.7605 75.2561 70.7386 75.4837 70.6917 75.7059C70.6477 75.9295 70.5842 76.1438 70.5001 76.3536C70.4172 76.5584 70.3191 76.7573 70.204 76.9458C70.0882 77.133 69.9595 77.3096 69.8185 77.4721C69.8849 77.5264 69.9502 77.5815 70.0149 77.6345C70.08 77.6912 70.1446 77.7453 70.2081 77.8018C70.2575 77.8467 70.2974 77.8797 70.3251 77.9031C70.3544 77.9267 70.3879 77.9397 70.4274 77.9397C70.4579 77.9397 70.4896 77.9219 70.5226 77.889L70.7558 77.6548V78.0397L70.1963 78.6543H70.0576L69.611 78.2458C69.5654 78.2045 69.5141 78.1611 69.4606 78.1149C69.406 78.0704 69.3461 78.0244 69.2808 77.9772C69.0076 78.1905 68.7156 78.3553 68.4089 78.4766C68.1003 78.5955 67.787 78.6543 67.4692 78.6543C67.3136 78.6543 67.1583 78.6379 67.0019 78.605C66.844 78.5696 66.7035 78.5131 66.5772 78.4331C66.4501 78.353 66.3468 78.247 66.2676 78.1186C66.1893 77.989 66.1494 77.8279 66.1494 77.6345C66.1494 77.4438 66.1858 77.2814 66.2581 77.1448C66.3298 77.0116 66.4268 76.9011 66.5491 76.8174C66.6706 76.7327 66.8112 76.6714 66.9709 76.6325C67.1302 76.5938 67.2958 76.5737 67.4692 76.5737C67.6661 76.5737 67.854 76.59 68.034 76.6221C68.2144 76.6551 68.3872 76.6998 68.5511 76.7551C68.7172 76.8104 68.8753 76.8774 69.0251 76.9563C69.1756 77.0363 69.3203 77.1226 69.4606 77.2156C69.628 76.9586 69.7603 76.6551 69.8601 76.3039C69.9584 75.9531 70.0076 75.5526 70.0076 75.1039C70.0076 74.8397 69.9872 74.6072 69.9477 74.4082C69.9066 74.2086 69.851 74.0367 69.7797 73.8924C69.7092 73.7489 69.6247 73.6298 69.5259 73.5333C69.4277 73.4374 69.3203 73.3608 69.2039 73.3053C69.0869 73.2488 68.9636 73.2107 68.8325 73.1871C68.7025 73.1641 68.5682 73.1513 68.4316 73.1513C68.2272 73.1513 68.035 73.1817 67.8558 73.2395C67.6754 73.2979 67.5198 73.389 67.3857 73.5138C67.2524 73.6375 67.1478 73.7981 67.0691 73.9936C66.9922 74.1891 66.9527 74.4241 66.9527 74.695C66.9527 74.7991 66.9715 74.8716 67.0073 74.9122C67.0439 74.9517 67.1003 74.9722 67.1736 74.9722H67.2129V75.282H66.2552C66.2418 75.2054 66.2329 75.129 66.23 75.0534C66.2259 74.9786 66.2228 74.9062 66.2228 74.8362C66.2228 74.4829 66.2833 74.1773 66.4051 73.9182C66.5274 73.6592 66.6911 73.4461 66.8969 73.2784C67.1025 73.1111 67.341 72.9869 67.6116 72.9051C67.8817 72.8239 68.1648 72.7831 68.4634 72.7831C68.7701 72.7831 69.0634 72.8226 69.3426 72.9003C69.6199 72.9804 69.8638 73.1088 70.0742 73.2867C70.2833 73.4643 70.4491 73.6946 70.5743 73.9789C70.6975 74.2628 70.7605 74.6101 70.7605 75.0217Z" fill="#4B2A91"/>
<path d="M76.117 76.742C76.117 77.04 76.0629 77.3073 75.9573 77.5428C75.849 77.7784 75.6998 77.9786 75.5096 78.1435C75.3203 78.3081 75.0934 78.4354 74.832 78.5226C74.5705 78.6098 74.2876 78.6543 73.9793 78.6543C73.6685 78.6543 73.3822 78.6098 73.1196 78.5226C72.8569 78.4354 72.6296 78.3081 72.4392 78.1435C72.2493 77.9786 72.1005 77.7784 71.993 77.5428C71.8856 77.3073 71.8333 77.04 71.8333 76.742V73.5958C71.8333 73.4397 71.818 73.3314 71.7909 73.2707C71.7645 73.2101 71.7058 73.18 71.6111 73.18H71.4941V72.868H72.8875V73.18H72.7722C72.6783 73.18 72.6178 73.2113 72.5936 73.2749C72.5665 73.338 72.5543 73.4467 72.5543 73.6V74.4388H74.7849C74.933 74.4388 75.0835 74.4413 75.2368 74.4436C75.3873 74.4461 75.5355 74.4566 75.675 74.4748C75.8161 74.4931 75.943 74.5196 76.0606 74.556C76.1782 74.5925 76.2768 74.6438 76.3532 74.7121L75.9467 75.2756H75.7128C75.6694 75.1925 75.607 75.1225 75.5293 75.0658C75.4485 75.0082 75.3602 74.9629 75.2579 74.9275C75.1568 74.8923 75.0523 74.8668 74.9394 74.8517C74.826 74.8364 74.7162 74.8275 74.6079 74.8275H72.5543V76.8893C72.5543 77.1566 72.5936 77.3779 72.6754 77.557C72.7552 77.7337 72.8616 77.8761 72.9956 77.9832C73.1284 78.0917 73.2812 78.1681 73.4492 78.2163C73.6213 78.2611 73.7989 78.2847 73.9793 78.2847C74.1603 78.2847 74.336 78.2623 74.5059 78.2176C74.678 78.1716 74.8285 78.095 74.9605 77.9857C75.0911 77.8772 75.198 77.7312 75.2767 77.5498C75.3555 77.3696 75.3943 77.1425 75.3943 76.8694V76.6985C75.3943 76.6081 75.3848 76.5468 75.3672 76.5114C75.3462 76.4784 75.3096 76.4608 75.2556 76.4608H75.2162V76.1511H76.2993V76.4608H76.2602C76.2075 76.4608 76.1674 76.4691 76.1486 76.4867C76.1265 76.5031 76.117 76.5312 76.117 76.5714V76.742Z" fill="#4B2A91"/>
<path d="M79.5341 72.7835C79.8432 72.7835 80.1264 72.826 80.3874 72.9154C80.6482 73.0032 80.8761 73.1297 81.0654 73.2946C81.2545 73.4588 81.405 73.6596 81.5118 73.8951C81.6189 74.1311 81.6718 74.3984 81.6718 74.6952V76.2053H81.8704C82.0184 76.2053 82.1678 76.2053 82.3205 76.209C82.4747 76.2101 82.6191 76.2219 82.7578 76.2395C82.8988 76.2571 83.0279 76.2855 83.1445 76.3221C83.2643 76.3585 83.3617 76.4103 83.4382 76.4774L83.0316 76.9638H82.8C82.7543 76.8802 82.6954 76.8131 82.6272 76.7613C82.5555 76.7095 82.4747 76.6696 82.384 76.6435C82.2924 76.6153 82.1949 76.5963 82.0903 76.5882C81.9855 76.5787 81.8776 76.5741 81.7706 76.5741H81.6718V77.8422C81.6718 77.9977 81.6846 78.106 81.7142 78.1673C81.74 78.2273 81.8012 78.259 81.894 78.259H82.0103V78.5698H80.6151V78.259H80.7342C80.828 78.259 80.8867 78.2261 80.9102 78.1625C80.9385 78.099 80.9514 77.9917 80.9514 77.8387V74.5486C80.9514 74.2812 80.909 74.0589 80.8338 73.8804C80.7538 73.7002 80.6469 73.5577 80.5153 73.4507C80.3849 73.3422 80.2334 73.2652 80.0629 73.2208C79.8901 73.1757 79.7161 73.1521 79.5341 73.1521C79.3543 73.1521 79.1767 73.1761 79.0062 73.2227C78.8372 73.2699 78.6845 73.3457 78.5503 73.4536C78.4177 73.5619 78.3106 73.7031 78.2294 73.8822C78.1496 74.0595 78.1095 74.2812 78.1095 74.5486V77.8387C78.1095 77.9917 78.1238 78.099 78.1471 78.1625C78.1742 78.2261 78.2343 78.259 78.3271 78.259H78.4435V78.5698H77.0508V78.259H77.1659C77.2587 78.259 77.3199 78.2273 77.3482 78.1673C77.374 78.106 77.3881 77.9977 77.3881 77.8422V74.6952C77.3881 74.3984 77.4422 74.1311 77.549 73.8951C77.6559 73.6596 77.8066 73.4588 77.9946 73.2946C78.1862 73.1297 78.4117 73.0032 78.6737 72.9154C78.9382 72.826 79.2249 72.7835 79.5341 72.7835Z" fill="#4B2A91"/>
<path d="M88.5749 76.742C88.5749 77.04 88.5232 77.3073 88.4127 77.5428C88.3056 77.7784 88.1574 77.9786 87.9683 78.1435C87.777 78.3081 87.5525 78.4354 87.2903 78.5226C87.0293 78.6098 86.7428 78.6543 86.437 78.6543C86.1255 78.6543 85.8378 78.6098 85.5756 78.5226C85.3148 78.4354 85.0879 78.3081 84.8963 78.1435C84.7072 77.9786 84.5578 77.7784 84.4509 77.5428C84.3439 77.3073 84.2899 77.04 84.2899 76.742V73.5751H84.2228C84.0758 73.5751 83.9256 73.5739 83.7741 73.5722C83.6212 73.5693 83.4742 73.5586 83.3345 73.5403C83.1971 73.5234 83.0677 73.4956 82.9476 73.4586C82.8315 73.4227 82.735 73.3714 82.6562 73.3043L83.0654 72.7402H83.2957C83.3393 72.8233 83.3967 72.8935 83.4684 72.95C83.5391 73.0076 83.6212 73.0535 83.7129 73.0881C83.8022 73.1225 83.901 73.1488 84.0056 73.1643C84.1091 73.18 84.217 73.1867 84.3253 73.1867H85.3454V73.4985H85.229C85.136 73.4985 85.0761 73.5304 85.0502 73.594C85.0257 73.6565 85.0116 73.7648 85.0116 73.9184V76.8893C85.0116 77.1566 85.0527 77.3779 85.1315 77.557C85.2125 77.7337 85.3195 77.8761 85.4512 77.9832C85.5851 78.0917 85.7376 78.1681 85.9083 78.2163C86.0798 78.2611 86.2559 78.2847 86.437 78.2847C86.6157 78.2847 86.7945 78.2623 86.9648 78.2176C87.1338 78.1716 87.287 78.095 87.4197 77.9857C87.5513 77.8772 87.6559 77.7312 87.7356 77.5498C87.8131 77.3696 87.8532 77.1425 87.8532 76.8694V76.6985C87.8532 76.6081 87.8439 76.5468 87.8226 76.5114C87.8063 76.4784 87.7664 76.4608 87.7133 76.4608H87.6747V76.1511H88.757V76.4608H88.7181C88.6629 76.4608 88.6266 76.4691 88.6043 76.4867C88.5867 76.5031 88.5749 76.5312 88.5749 76.5714V76.742Z" fill="#4B2A91"/>
<path d="M91.8085 72.7835C92.1165 72.7835 92.4008 72.826 92.6618 72.9154C92.9251 73.0032 93.1483 73.1297 93.3387 73.2946C93.529 73.4588 93.6784 73.6596 93.7865 73.8951C93.8948 74.1311 93.9477 74.3984 93.9477 74.6952V77.8422C93.9477 77.9977 93.9605 78.106 93.9888 78.1673C94.0157 78.2273 94.0756 78.259 94.1684 78.259H94.286V78.5698H92.8908V78.259H93.0099C93.1014 78.259 93.1601 78.2261 93.1859 78.1625C93.2118 78.099 93.2248 77.9917 93.2248 77.8387V74.5486C93.2248 74.2812 93.1859 74.0589 93.1084 73.8804C93.0272 73.7002 92.9239 73.5577 92.7912 73.4507C92.6583 73.3422 92.5066 73.2652 92.3363 73.2208C92.1659 73.1757 91.9896 73.1521 91.8085 73.1521C91.6275 73.1521 91.4524 73.1761 91.2809 73.2227C91.1104 73.2699 90.9589 73.3457 90.826 73.4536C90.6934 73.5619 90.584 73.7031 90.5053 73.8822C90.4243 74.0595 90.3842 74.2812 90.3842 74.5486V77.8387C90.3842 77.9917 90.3972 78.099 90.4218 78.1625C90.4489 78.2261 90.5088 78.259 90.6016 78.259H90.7182V78.5698H89.3242V78.259H89.4406C89.5346 78.259 89.5956 78.2273 89.6214 78.1673C89.6485 78.106 89.6638 77.9977 89.6638 77.8422V74.6952C89.6638 74.3984 89.7154 74.1311 89.8237 73.8951C89.9306 73.6596 90.08 73.4588 90.2703 73.2946C90.4582 73.1297 90.6861 73.0032 90.9484 72.9154C91.2115 72.826 91.4983 72.7835 91.8085 72.7835Z" fill="#4B2A91"/>
<path d="M95.4838 73.5958C95.4838 73.5093 95.4792 73.4399 95.4707 73.3857C95.4616 73.331 95.4486 73.2892 95.4296 73.2592C95.412 73.2285 95.3875 73.2084 95.3616 73.1972C95.3333 73.1854 95.3017 73.1796 95.263 73.1796H95.1465V72.868H96.5404V73.1796H96.4274C96.3887 73.1796 96.3548 73.1854 96.3288 73.1972C96.3007 73.2084 96.2796 73.2285 96.2608 73.2592C96.2418 73.2892 96.2288 73.331 96.2185 73.3857C96.2114 73.4399 96.2067 73.5093 96.2067 73.5958V74.439H97.9249C98.0741 74.439 98.2233 74.4413 98.376 74.4432C98.5288 74.4461 98.6744 74.4572 98.8156 74.4742C98.9555 74.4931 99.0836 74.5196 99.2 74.5562C99.3176 74.5925 99.4162 74.6438 99.4926 74.7109L99.0859 75.2756H98.8522C98.8086 75.1925 98.7464 75.1226 98.6687 75.066C98.5899 75.0095 98.4996 74.9631 98.3986 74.9271C98.2985 74.8923 98.1917 74.867 98.0788 74.8517C97.9648 74.8364 97.8556 74.8275 97.7486 74.8275H96.2067V77.842C96.2067 77.9269 96.2114 77.9975 96.2185 78.0517C96.2288 78.1058 96.2418 78.1482 96.2608 78.1789C96.2796 78.2072 96.3007 78.2282 96.3288 78.2402C96.3548 78.253 96.3887 78.2578 96.4274 78.2578H96.5404V78.5698H95.1465V78.2578H95.263C95.3017 78.2578 95.3333 78.253 95.3616 78.2402C95.3875 78.2282 95.412 78.2072 95.4296 78.1789C95.4486 78.1482 95.4616 78.1058 95.4707 78.0517C95.4792 77.9975 95.4838 77.9269 95.4838 77.842V73.5958Z" fill="#4B2A91"/>
<path d="M102.569 76.9671C102.569 77.2179 102.591 77.4287 102.635 77.597C102.679 77.7654 102.742 77.901 102.821 78.0033C102.901 78.1058 102.998 78.1789 103.11 78.2211C103.22 78.2636 103.341 78.2847 103.473 78.2847C103.606 78.2847 103.727 78.2636 103.841 78.2211C103.953 78.1789 104.051 78.1058 104.131 78.0033C104.213 77.901 104.278 77.7654 104.322 77.597C104.367 77.4287 104.39 77.2179 104.39 76.9671V75.6717H103.473C103.341 75.6717 103.22 75.693 103.11 75.7342C102.998 75.7767 102.901 75.846 102.821 75.9438C102.742 76.0428 102.679 76.1747 102.635 76.3407C102.591 76.5066 102.569 76.7151 102.569 76.9671ZM100.111 74.7581C100.111 74.4318 100.174 74.1452 100.296 73.8977C100.421 73.6517 100.591 73.447 100.813 73.2803C101.034 73.1148 101.299 72.9906 101.604 72.9069C101.912 72.8245 102.247 72.7833 102.613 72.7833C102.978 72.7833 103.312 72.8239 103.617 72.9051C103.922 72.9871 104.186 73.1088 104.408 73.2707C104.627 73.4327 104.802 73.6335 104.925 73.8731C105.049 74.1139 105.111 74.3924 105.111 74.7074V75.2832H105.193C105.34 75.2832 105.486 75.2843 105.626 75.2868C105.767 75.2897 105.9 75.3002 106.025 75.3178C106.151 75.3362 106.267 75.3634 106.371 75.3998C106.474 75.4356 106.567 75.488 106.645 75.5559L106.237 76.1192H106.042C105.955 75.9498 105.839 75.833 105.696 75.7696C105.553 75.7034 105.378 75.6717 105.17 75.6717H105.111V76.9671C105.111 77.2367 105.076 77.4769 105.005 77.6842C104.935 77.8939 104.828 78.0691 104.688 78.213C104.549 78.3565 104.378 78.4661 104.176 78.5437C103.972 78.6168 103.738 78.6543 103.473 78.6543C103.211 78.6543 102.977 78.6168 102.771 78.5437C102.567 78.4708 102.395 78.3613 102.254 78.2176C102.114 78.0729 102.008 77.896 101.938 77.6887C101.864 77.4794 101.827 77.239 101.827 76.9671C101.827 76.6952 101.864 76.4548 101.938 76.2453C102.008 76.038 102.114 75.8614 102.254 75.7189C102.395 75.5758 102.567 75.4688 102.771 75.3938C102.977 75.3209 103.211 75.2832 103.473 75.2832H104.39V74.5838C104.39 74.3576 104.351 74.1564 104.271 73.9785C104.192 73.8 104.077 73.6511 103.926 73.5292C103.774 73.4074 103.589 73.3132 103.369 73.249C103.15 73.1854 102.896 73.1519 102.613 73.1519C102.328 73.1519 102.075 73.1854 101.856 73.249C101.636 73.3132 101.45 73.4074 101.299 73.5292C101.148 73.6511 101.032 73.8 100.953 73.9785C100.874 74.1564 100.834 74.3576 100.834 74.5838V77.8384C100.834 77.9915 100.846 78.0987 100.873 78.1621C100.898 78.2259 100.96 78.2576 101.052 78.2576H101.168V78.5696H99.7744V78.2576H99.8918C99.9858 78.2576 100.045 78.2271 100.07 78.1671C100.099 78.1058 100.111 77.9975 100.111 77.842V74.7581Z" fill="#4B2A91"/>
<path d="M107.932 77.3897C107.95 77.5028 107.991 77.6111 108.055 77.7171C108.118 77.8231 108.207 77.9198 108.325 78.0033C108.441 78.088 108.586 78.1563 108.762 78.207C108.935 78.2588 109.143 78.2847 109.384 78.2847C109.669 78.2847 109.904 78.2493 110.092 78.1789C110.279 78.107 110.429 78.0116 110.537 77.8915C110.648 77.7701 110.725 77.6324 110.77 77.4782C110.818 77.3239 110.839 77.1636 110.839 76.9942C110.839 76.8222 110.819 76.6586 110.778 76.4995C110.739 76.3418 110.665 76.2005 110.558 76.078C110.45 75.9556 110.302 75.8568 110.114 75.7835C109.925 75.7083 109.681 75.6717 109.384 75.6717H107.875L107.818 76.1511H107.085L107.225 74.9683H107.958L107.922 75.282H109.384C109.807 75.282 110.119 75.1977 110.318 75.0271C110.516 74.8558 110.618 74.615 110.626 74.304C110.628 74.1373 110.61 73.9849 110.567 73.8441C110.526 73.7035 110.456 73.5834 110.357 73.4809C110.256 73.3778 110.127 73.2985 109.968 73.2397C109.808 73.1819 109.613 73.1519 109.384 73.1519C109.19 73.1519 109.022 73.1713 108.876 73.2072C108.733 73.2432 108.613 73.2931 108.517 73.3563C108.419 73.4198 108.343 73.494 108.287 73.578C108.231 73.6629 108.195 73.7511 108.177 73.8441C108.164 73.9013 108.16 73.9485 108.172 73.9866C108.18 74.0232 108.206 74.0427 108.25 74.0427H108.313V74.3541H107.377V74.3224C107.377 74.082 107.422 73.8654 107.514 73.6754C107.607 73.4844 107.739 73.3231 107.912 73.1908C108.085 73.0587 108.297 72.9577 108.545 72.8887C108.793 72.8181 109.072 72.7833 109.384 72.7833C109.696 72.7833 109.977 72.8181 110.225 72.8887C110.471 72.9577 110.681 73.0587 110.853 73.1908C111.023 73.3231 111.155 73.4844 111.247 73.6754C111.338 73.8654 111.383 74.082 111.383 74.3224C111.383 74.4777 111.351 74.6214 111.29 74.7509C111.227 74.8811 111.147 74.9935 111.045 75.0907C110.944 75.1884 110.828 75.2667 110.7 75.328C110.571 75.3886 110.438 75.4274 110.303 75.4429C110.546 75.4816 110.752 75.5516 110.916 75.6522C111.082 75.7531 111.216 75.8754 111.316 76.0156C111.416 76.1581 111.49 76.3124 111.535 76.4807C111.578 76.6491 111.6 76.8211 111.6 76.9942C111.6 77.2721 111.543 77.5136 111.431 77.7219C111.317 77.9289 111.163 78.101 110.962 78.24C110.765 78.3801 110.529 78.4824 110.258 78.552C109.988 78.6201 109.696 78.6543 109.384 78.6543C109.07 78.6543 108.779 78.6201 108.509 78.552C108.239 78.4824 108.003 78.3801 107.802 78.24C107.602 78.101 107.444 77.9289 107.331 77.7219C107.217 77.5136 107.16 77.2721 107.16 76.9942V76.8812H108.069V77.192H108.006C107.961 77.192 107.936 77.2108 107.929 77.2483C107.922 77.2874 107.923 77.3334 107.932 77.3897Z" fill="#4B2A91"/>
<path d="M114.761 72.7835C115.067 72.7835 115.353 72.826 115.615 72.9154C115.877 73.0032 116.101 73.1297 116.291 73.2946C116.48 73.4588 116.629 73.6596 116.737 73.8951C116.847 74.1311 116.899 74.3984 116.899 74.6952V77.8422C116.899 77.9977 116.914 78.106 116.939 78.1673C116.967 78.2273 117.027 78.259 117.119 78.259H117.238V78.5698H115.843V78.259H115.961C116.052 78.259 116.113 78.2261 116.139 78.1625C116.165 78.099 116.177 77.9917 116.177 77.8387V74.5486C116.177 74.2812 116.138 74.0589 116.059 73.8804C115.979 73.7002 115.875 73.5577 115.743 73.4507C115.609 73.3422 115.459 73.2652 115.29 73.2208C115.118 73.1757 114.942 73.1521 114.761 73.1521C114.58 73.1521 114.405 73.1761 114.232 73.2227C114.063 73.2699 113.909 73.3457 113.778 73.4536C113.644 73.5619 113.536 73.7031 113.457 73.8822C113.377 74.0595 113.335 74.2812 113.335 74.5486V77.8387C113.335 77.9917 113.349 78.099 113.375 78.1625C113.4 78.2261 113.46 78.259 113.554 78.259H113.671V78.5698H112.277V78.259H112.391C112.485 78.259 112.545 78.2273 112.573 78.1673C112.602 78.106 112.615 77.9977 112.615 77.8422V74.6952C112.615 74.3984 112.668 74.1311 112.775 73.8951C112.883 73.6596 113.031 73.4588 113.221 73.2946C113.412 73.1297 113.638 73.0032 113.902 72.9154C114.164 72.826 114.452 72.7835 114.761 72.7835Z" fill="#4B2A91"/>
<path d="M118.436 73.5958C118.436 73.5093 118.432 73.4399 118.423 73.3857C118.414 73.331 118.4 73.2892 118.382 73.2592C118.363 73.2285 118.341 73.2084 118.315 73.1972C118.287 73.1854 118.255 73.1796 118.215 73.1796H118.098V72.868H119.492V73.1796H119.379C119.341 73.1796 119.306 73.1854 119.281 73.1972C119.254 73.2084 119.231 73.2285 119.212 73.2592C119.194 73.2892 119.181 73.331 119.171 73.3857C119.164 73.4399 119.159 73.5093 119.159 73.5958V74.439H120.877C121.024 74.439 121.176 74.4413 121.328 74.4432C121.48 74.4461 121.627 74.4572 121.767 74.4742C121.907 74.4931 122.035 74.5196 122.153 74.5562C122.27 74.5925 122.37 74.6438 122.446 74.7109L122.039 75.2756H121.805C121.762 75.1925 121.7 75.1226 121.62 75.066C121.541 75.0095 121.452 74.9631 121.351 74.9271C121.25 74.8923 121.144 74.867 121.031 74.8517C120.918 74.8364 120.808 74.8275 120.7 74.8275H119.159V77.842C119.159 77.9269 119.164 77.9975 119.171 78.0517C119.181 78.1058 119.194 78.1482 119.212 78.1789C119.231 78.2072 119.254 78.2282 119.281 78.2402C119.306 78.253 119.341 78.2578 119.379 78.2578H119.492V78.5698H118.098V78.2578H118.215C118.255 78.2578 118.287 78.253 118.315 78.2402C118.341 78.2282 118.363 78.2072 118.382 78.1789C118.4 78.1482 118.414 78.1058 118.423 78.0517C118.432 77.9975 118.436 77.9269 118.436 77.842V73.5958Z" fill="#4B2A91"/>
<path d="M127.835 76.742C127.835 77.04 127.781 77.3073 127.675 77.5428C127.567 77.7784 127.419 77.9786 127.228 78.1435C127.038 78.3081 126.811 78.4354 126.55 78.5226C126.288 78.6098 126.005 78.6543 125.697 78.6543C125.386 78.6543 125.1 78.6098 124.838 78.5226C124.574 78.4354 124.348 78.3081 124.159 78.1435C123.97 77.9786 123.819 77.7784 123.714 77.5428C123.604 77.3073 123.55 77.04 123.55 76.742V73.5751H123.485C123.336 73.5751 123.188 73.5739 123.035 73.5722C122.882 73.5693 122.737 73.5586 122.597 73.5403C122.456 73.5234 122.327 73.4956 122.21 73.4586C122.092 73.4227 121.994 73.3714 121.919 73.3043L122.323 72.7402H122.557C122.602 72.8233 122.658 72.8935 122.73 72.95C122.801 73.0076 122.882 73.0535 122.972 73.0881C123.062 73.1225 123.161 73.1488 123.266 73.1643C123.371 73.18 123.477 73.1867 123.586 73.1867H124.607V73.4985H124.49C124.397 73.4985 124.336 73.5304 124.31 73.594C124.286 73.6565 124.273 73.7648 124.273 73.9184V76.8893C124.273 77.1566 124.312 77.3779 124.394 77.557C124.472 77.7337 124.58 77.8761 124.713 77.9832C124.848 78.0917 124.997 78.1681 125.168 78.2163C125.34 78.2611 125.516 78.2847 125.697 78.2847C125.879 78.2847 126.055 78.2623 126.224 78.2176C126.395 78.1716 126.547 78.095 126.678 77.9857C126.81 77.8772 126.917 77.7312 126.995 77.5498C127.075 77.3696 127.113 77.1425 127.113 76.8694V76.6985C127.113 76.6081 127.104 76.5468 127.085 76.5114C127.064 76.4784 127.029 76.4608 126.975 76.4608H126.935V76.1511H128.017V76.4608H127.978C127.925 76.4608 127.886 76.4691 127.868 76.4867C127.846 76.5031 127.835 76.5312 127.835 76.5714V76.742Z" fill="#4B2A91"/>
<path d="M133.439 76.742C133.439 77.04 133.386 77.3073 133.277 77.5428C133.171 77.7784 133.022 77.9786 132.833 78.1435C132.641 78.3081 132.417 78.4354 132.156 78.5226C131.892 78.6098 131.609 78.6543 131.3 78.6543C130.99 78.6543 130.703 78.6098 130.442 78.5226C130.179 78.4354 129.952 78.3081 129.762 78.1435C129.571 77.9786 129.423 77.7784 129.315 77.5428C129.208 77.3073 129.154 77.04 129.154 76.742V73.5751H129.088C128.941 73.5751 128.791 73.5739 128.638 73.5722C128.487 73.5693 128.338 73.5586 128.201 73.5403C128.061 73.5234 127.931 73.4956 127.814 73.4586C127.694 73.4227 127.597 73.3714 127.521 73.3043L127.928 72.7402H128.161C128.205 72.8233 128.263 72.8935 128.332 72.95C128.404 73.0076 128.487 73.0535 128.577 73.0881C128.665 73.1225 128.764 73.1488 128.869 73.1643C128.974 73.18 129.081 73.1867 129.188 73.1867H130.209V73.4985H130.093C130 73.4985 129.94 73.5304 129.916 73.594C129.888 73.6565 129.877 73.7648 129.877 73.9184V76.8893C129.877 77.1566 129.917 77.3779 129.997 77.557C130.077 77.7337 130.184 77.8761 130.316 77.9832C130.449 78.0917 130.602 78.1681 130.771 78.2163C130.943 78.2611 131.12 78.2847 131.3 78.2847C131.481 78.2847 131.657 78.2623 131.829 78.2176C131.999 78.1716 132.151 78.095 132.282 77.9857C132.415 77.8772 132.519 77.7312 132.599 77.5498C132.679 77.3696 132.716 77.1425 132.716 76.8694V76.6985C132.716 76.6081 132.707 76.5468 132.688 76.5114C132.669 76.4784 132.63 76.4608 132.579 76.4608H132.54V76.1511H133.622V76.4608H133.583C133.527 76.4608 133.491 76.4691 133.47 76.4867C133.45 76.5031 133.439 76.5312 133.439 76.5714V76.742Z" fill="#4B2A91"/>
<path d="M138.81 76.742C138.81 77.04 138.757 77.3073 138.652 77.5428C138.542 77.7784 138.395 77.9786 138.204 78.1435C138.014 78.3081 137.788 78.4354 137.527 78.5226C137.265 78.6098 136.98 78.6543 136.673 78.6543C136.361 78.6543 136.076 78.6098 135.812 78.5226C135.551 78.4354 135.323 78.3081 135.133 78.1435C134.944 77.9786 134.796 77.7784 134.688 77.5428C134.579 77.3073 134.528 77.04 134.528 76.742V73.5958C134.528 73.4397 134.511 73.3314 134.485 73.2707C134.46 73.2101 134.398 73.18 134.306 73.18H134.189V72.868H135.581V73.18H135.466C135.374 73.18 135.314 73.2113 135.287 73.2749C135.261 73.338 135.248 73.4467 135.248 73.6V74.4388H137.48C137.627 74.4388 137.777 74.4413 137.93 74.4436C138.082 74.4461 138.229 74.4566 138.368 74.4748C138.508 74.4931 138.637 74.5196 138.755 74.556C138.874 74.5925 138.97 74.6438 139.048 74.7121L138.641 75.2756H138.407C138.364 75.1925 138.303 75.1225 138.221 75.0658C138.144 75.0082 138.055 74.9629 137.952 74.9275C137.852 74.8923 137.747 74.8668 137.632 74.8517C137.521 74.8364 137.411 74.8275 137.301 74.8275H135.248V76.8893C135.248 77.1566 135.288 77.3779 135.369 77.557C135.448 77.7337 135.556 77.8761 135.688 77.9832C135.823 78.0917 135.973 78.1681 136.146 78.2163C136.315 78.2611 136.491 78.2847 136.673 78.2847C136.854 78.2847 137.03 78.2623 137.199 78.2176C137.371 78.1716 137.522 78.095 137.655 77.9857C137.787 77.8772 137.891 77.7312 137.971 77.5498C138.05 77.3696 138.089 77.1425 138.089 76.8694V76.6985C138.089 76.6081 138.078 76.5468 138.059 76.5114C138.042 76.4784 138.005 76.4608 137.95 76.4608H137.911V76.1511H138.993V76.4608H138.955C138.901 76.4608 138.862 76.4691 138.843 76.4867C138.822 76.5031 138.81 76.5312 138.81 76.5714V76.742Z" fill="#4B2A91"/>
<path d="M144.367 74.8635C144.367 74.9018 144.377 74.93 144.399 74.9472C144.42 74.9642 144.456 74.9724 144.51 74.9724H144.548V75.2822H143.466V74.9724H143.506C143.56 74.9724 143.597 74.9555 143.615 74.9219C143.635 74.8877 143.646 74.8252 143.646 74.7351V74.5674C143.646 74.2959 143.606 74.0694 143.526 73.888C143.448 73.7054 143.341 73.5606 143.211 73.4517C143.078 73.3434 142.927 73.265 142.755 73.2208C142.586 73.1755 142.409 73.1519 142.23 73.1519C142.049 73.1519 141.871 73.1761 141.701 73.2227C141.529 73.2697 141.378 73.3457 141.245 73.4534C141.111 73.5617 141.005 73.7031 140.925 73.882C140.843 74.0586 140.804 74.2812 140.804 74.5486V77.8387C140.804 77.9917 140.817 78.099 140.842 78.1623C140.87 78.2261 140.929 78.2578 141.023 78.2578H141.138V78.5698H139.744V78.2578H139.862C139.954 78.2578 140.014 78.2273 140.041 78.1673C140.067 78.106 140.081 77.9975 140.081 77.842V74.6964C140.081 74.3984 140.135 74.1311 140.245 73.8951C140.35 73.6596 140.501 73.4581 140.69 73.2939C140.879 73.1295 141.106 73.003 141.368 72.9152C141.63 72.827 141.918 72.7835 142.23 72.7835C142.537 72.7835 142.821 72.827 143.082 72.9152C143.343 73.003 143.569 73.1295 143.76 73.2939C143.95 73.4581 144.099 73.6596 144.206 73.8951C144.313 74.1311 144.367 74.3984 144.367 74.6964V74.8635Z" fill="#4B2A91"/>
<path d="M149.818 76.4621C149.818 76.4998 149.829 76.5279 149.849 76.5455C149.869 76.5611 149.907 76.5702 149.961 76.5702H150V76.8812H148.918V76.5702H148.957C149.012 76.5702 149.048 76.5538 149.068 76.5209C149.087 76.4855 149.096 76.4242 149.096 76.3325V76.1581C149.096 75.9746 149.076 75.8119 149.033 75.6719C148.989 75.5317 148.932 75.41 148.857 75.3081C148.783 75.2056 148.699 75.1207 148.6 75.0542C148.504 74.9859 148.402 74.9329 148.292 74.8923C148.184 74.8523 148.074 74.8229 147.962 74.807C147.851 74.79 147.746 74.7823 147.641 74.7823C147.4 74.7823 147.161 74.8211 146.92 74.9006C146.679 74.9801 146.456 75.1091 146.256 75.2868V77.842C146.256 77.9269 146.26 77.9975 146.268 78.0517C146.278 78.1058 146.291 78.1484 146.309 78.1789C146.328 78.2072 146.35 78.2282 146.378 78.2402C146.405 78.253 146.438 78.2578 146.476 78.2578H146.593V78.5698H145.194V78.2578H145.313C145.351 78.2578 145.384 78.253 145.412 78.2402C145.439 78.2282 145.46 78.2072 145.479 78.1789C145.498 78.1484 145.512 78.1058 145.52 78.0517C145.528 77.9975 145.532 77.9269 145.532 77.842V73.5958C145.532 73.5093 145.528 73.4399 145.52 73.3857C145.512 73.331 145.498 73.2892 145.479 73.2592C145.46 73.2291 145.439 73.2084 145.412 73.1972C145.384 73.1854 145.351 73.1796 145.313 73.1796H145.194V72.8682H146.589V73.1796H146.476C146.438 73.1796 146.405 73.1854 146.378 73.1972C146.35 73.2084 146.328 73.2291 146.309 73.2592C146.291 73.2892 146.278 73.331 146.268 73.3857C146.26 73.4399 146.256 73.5093 146.256 73.5958V74.8275C146.439 74.6834 146.655 74.5674 146.903 74.4819C147.152 74.3972 147.433 74.3529 147.747 74.3529C148.051 74.3529 148.332 74.3984 148.586 74.4885C148.841 74.5773 149.06 74.7064 149.242 74.8728C149.424 75.0401 149.566 75.2414 149.667 75.4775C149.767 75.7144 149.818 75.9769 149.818 76.2666V76.4621Z" fill="#4B2A91"/>
<path d="M44.4731 82.7783C44.4731 82.6876 44.4635 82.6253 44.4425 82.5911C44.4214 82.5592 44.3836 82.5406 44.329 82.5406H44.2908V82.2306H45.3731V82.5406H45.3357C45.2797 82.5406 45.2429 82.5592 45.2241 82.5911C45.2051 82.6253 45.1951 82.6876 45.1951 82.7783V85.6327C45.1951 85.7186 45.1993 85.788 45.2082 85.8423C45.2181 85.8988 45.2305 85.939 45.2493 85.9694C45.2681 85.9978 45.2904 86.0201 45.3169 86.0307C45.3443 86.0425 45.3768 86.0495 45.4156 86.0495H45.5324V86.3604H44.1387V86.0495H44.2509C44.2908 86.0495 44.323 86.0425 44.3495 86.0307C44.3778 86.0201 44.4001 85.9978 44.4183 85.9694C44.4371 85.939 44.4501 85.8988 44.4596 85.8423C44.4683 85.788 44.4731 85.7186 44.4731 85.6327V84.2833C44.2868 84.4315 44.0699 84.5481 43.8237 84.6317C43.5763 84.7152 43.2955 84.7589 42.9828 84.7589C42.6749 84.7589 42.394 84.7131 42.1396 84.6235C41.8869 84.535 41.6684 84.4069 41.4868 84.2385C41.3041 84.0712 41.1623 83.871 41.0619 83.6358C40.9596 83.4014 40.9097 83.1386 40.9097 82.8441V81.3864C40.9097 81.2971 40.906 81.2215 40.8961 81.1698C40.8872 81.1145 40.8732 81.072 40.8556 81.0426C40.8374 81.0122 40.8151 80.9932 40.7862 80.9851C40.7574 80.9743 40.7233 80.9708 40.6851 80.9708H40.5723V80.66H41.9656V80.9708H41.8486C41.811 80.9708 41.7775 80.9756 41.7488 80.9861C41.7188 80.9956 41.6976 81.0168 41.6812 81.0439C41.6637 81.0733 41.6519 81.1145 41.6436 81.1698C41.636 81.2263 41.6318 81.2982 41.6318 81.3864V82.9526C41.6318 83.1386 41.6525 83.2989 41.6959 83.4401C41.7389 83.5803 41.797 83.7016 41.8709 83.8039C41.9439 83.9064 42.0303 83.9911 42.1266 84.0571C42.2241 84.1255 42.3264 84.1785 42.4351 84.2197C42.5438 84.2596 42.6542 84.288 42.766 84.3044C42.8764 84.322 42.984 84.3303 43.0867 84.3303C43.3248 84.3303 43.565 84.2903 43.8078 84.2126C44.0494 84.1325 44.2707 84.0054 44.4731 83.8285V82.7783Z" fill="#4B2A91"/>
<path d="M50.7444 84.533C50.7444 84.832 50.6898 85.0971 50.5828 85.3336C50.4753 85.5692 50.3267 85.7707 50.1368 85.9343C49.9464 86.0991 49.7208 86.2262 49.4593 86.3136C49.1973 86.4006 48.9135 86.4453 48.606 86.4453C48.2946 86.4453 48.0073 86.4006 47.7453 86.3136C47.4838 86.2262 47.2563 86.0991 47.0666 85.9343C46.8767 85.7707 46.7281 85.5692 46.62 85.3336C46.5129 85.0971 46.4596 84.832 46.4596 84.533V81.3866C46.4596 81.2311 46.446 81.1228 46.4183 81.0615C46.3914 81.0003 46.3309 80.9711 46.2379 80.9711H46.1211V80.66H47.5148V80.9711H47.3981C47.3045 80.9711 47.2445 81.0027 47.2199 81.0663C47.1939 81.1299 47.1805 81.2384 47.1805 81.3912V82.2309H49.4118C49.5598 82.2309 49.7096 82.2321 49.8623 82.2344C50.0165 82.2369 50.1622 82.2474 50.3013 82.265C50.4406 82.2839 50.5693 82.312 50.6875 82.3462C50.8056 82.3841 50.9031 82.4359 50.9802 82.5029L50.5735 83.067H50.3408C50.2961 82.9836 50.235 82.9127 50.1556 82.8562C50.0775 82.7997 49.9863 82.7525 49.8859 82.7183C49.7861 82.6841 49.6784 82.657 49.5662 82.6419C49.454 82.6278 49.343 82.6208 49.2337 82.6208H47.1805V84.6803C47.1805 84.9474 47.2216 85.17 47.3003 85.3479C47.382 85.5257 47.4878 85.668 47.6213 85.7752C47.7539 85.8825 47.9063 85.9602 48.0778 86.0061C48.2477 86.0531 48.4237 86.0767 48.606 86.0767C48.7864 86.0767 48.9617 86.0544 49.1332 86.0072C49.3035 85.9637 49.4552 85.886 49.5873 85.7765C49.7195 85.668 49.8247 85.522 49.9037 85.3408C49.9822 85.1605 50.0211 84.9335 50.0211 84.6614V84.4893C50.0211 84.3989 50.0128 84.3376 49.9921 84.3024C49.9723 84.2692 49.9359 84.2527 49.8824 84.2527H49.8437V83.9421H50.9267V84.2527H50.8872C50.8326 84.2527 50.7956 84.2612 50.775 84.2786C50.7539 84.2951 50.7444 84.3233 50.7444 84.3612V84.533Z" fill="#4B2A91"/>
<path d="M56.7866 84.533C56.7866 84.832 56.7337 85.0971 56.625 85.3336C56.5175 85.5692 56.3689 85.7707 56.1792 85.9343C55.9893 86.0991 55.763 86.2262 55.5022 86.3136C55.2408 86.4006 54.9558 86.4453 54.6489 86.4453C54.3381 86.4453 54.0502 86.4006 53.7879 86.3136C53.5261 86.2262 53.2998 86.0991 53.1094 85.9343C52.9201 85.7707 52.7707 85.5692 52.6628 85.3336C52.5552 85.0971 52.5025 84.832 52.5025 84.533V81.3678H52.4359C52.289 81.3678 52.1385 81.3653 51.9848 81.363C51.8331 81.3608 51.6868 81.3502 51.5475 81.3324C51.4082 81.3136 51.2796 81.2864 51.1614 81.2502C51.0432 81.2148 50.945 81.163 50.8682 81.0947L51.2753 80.5319H51.5086C51.5528 80.6141 51.6103 80.6837 51.682 80.7412C51.7525 80.798 51.8331 80.8447 51.9236 80.8791C52.0139 80.9143 52.1121 80.9392 52.2169 80.9557C52.3214 80.9711 52.4283 80.9769 52.5376 80.9769H53.5577V81.2889H53.4413C53.3473 81.2889 53.288 81.3206 53.2628 81.3844C53.2367 81.4479 53.2227 81.5562 53.2227 81.7093V84.6803C53.2227 84.9474 53.2638 85.17 53.3444 85.3479C53.4248 85.5257 53.5319 85.668 53.6647 85.7752C53.7987 85.8825 53.9501 85.9602 54.12 86.0061C54.2916 86.0531 54.4672 86.0767 54.6489 86.0767C54.8287 86.0767 55.0056 86.0544 55.1761 86.0072C55.347 85.9637 55.4981 85.886 55.6295 85.7765C55.762 85.668 55.8676 85.522 55.9465 85.3408C56.0251 85.1605 56.0651 84.9335 56.0651 84.6614V84.4893C56.0651 84.3989 56.0556 84.3376 56.0362 84.3024C56.0162 84.2692 55.9788 84.2527 55.9246 84.2527H55.886V83.9421H56.9695V84.2527H56.93C56.8761 84.2527 56.8389 84.2612 56.8178 84.2786C56.7967 84.2951 56.7866 84.3233 56.7866 84.3612V84.533Z" fill="#4B2A91"/>
<path d="M61.0471 81.8105C61.0471 81.6834 61.0184 81.5653 60.9626 81.4608C60.9055 81.3535 60.8202 81.2628 60.7057 81.1862C60.5928 81.1098 60.4507 81.0497 60.2833 81.0073C60.1146 80.9648 59.9201 80.9437 59.6967 80.9437C59.4669 80.9437 59.2689 80.9696 59.1038 81.0214C58.9375 81.0731 58.8006 81.1452 58.6936 81.2359C58.5861 81.3264 58.5074 81.4312 58.4557 81.5513C58.4034 81.6738 58.3776 81.8035 58.3776 81.9424C58.3776 82.1025 58.4034 82.2414 58.457 82.3545C58.5099 82.4675 58.5938 82.5676 58.7085 82.6522C58.8248 82.7361 58.9711 82.8102 59.1503 82.875C59.3285 82.9384 59.5428 82.9997 59.7939 83.0635C60.0968 83.1386 60.3624 83.214 60.5906 83.2917C60.8181 83.3695 61.0142 83.4519 61.18 83.5344C61.3445 83.619 61.4825 83.7085 61.5919 83.804C61.6999 83.8994 61.7857 83.9982 61.8485 84.1019C61.9122 84.2079 61.9566 84.321 61.9837 84.4434C62.0085 84.566 62.0219 84.6954 62.0219 84.832C62.0219 85.0911 61.968 85.3218 61.8587 85.522C61.7499 85.7222 61.5995 85.8918 61.4085 86.0283C61.217 86.1649 60.9919 86.2672 60.7311 86.3393C60.4719 86.4099 60.1909 86.4453 59.8912 86.4453C59.5322 86.4453 59.2115 86.4064 58.9282 86.3273C58.6461 86.2474 58.408 86.1368 58.2131 85.9908C58.018 85.8446 57.8676 85.6705 57.7646 85.4655C57.6613 85.2607 57.6084 85.0333 57.6084 84.7848V84.673H58.551V84.9826H58.4898C58.4328 84.9826 58.4053 85.0205 58.4053 85.0934C58.4053 85.2017 58.4338 85.3147 58.4921 85.429C58.5498 85.5456 58.6407 85.6491 58.7643 85.7458C58.887 85.8423 59.041 85.92 59.2278 85.9823C59.4124 86.0448 59.6345 86.0767 59.8912 86.0767C60.0805 86.0767 60.2626 86.0566 60.4385 86.0167C60.6139 85.9753 60.7685 85.9131 60.9026 85.828C61.0353 85.7409 61.1417 85.6328 61.2223 85.4986C61.3027 85.3642 61.3428 85.2041 61.3428 85.0192C61.3428 84.8768 61.3238 84.7474 61.2862 84.6293C61.2482 84.5142 61.1746 84.4057 61.063 84.3069C60.9514 84.209 60.7956 84.116 60.5924 84.0336C60.3889 83.9487 60.1227 83.8665 59.7939 83.7864C59.4401 83.7004 59.1315 83.6074 58.8707 83.5095C58.6084 83.4118 58.3923 83.2977 58.2195 83.167C58.048 83.0386 57.9198 82.8891 57.8363 82.7208C57.7524 82.5522 57.7095 82.3545 57.7095 82.1248C57.7095 81.9 57.7582 81.6927 57.851 81.5032C57.9463 81.3136 58.0802 81.1487 58.2536 81.0123C58.4264 80.8731 58.6361 80.7648 58.88 80.6882C59.1251 80.6118 59.3965 80.5739 59.6967 80.5739C60.0282 80.5739 60.3267 80.6081 60.5906 80.6776C60.8532 80.7458 61.0773 80.8472 61.261 80.9814C61.4455 81.1168 61.5865 81.2829 61.6842 81.4842C61.7822 81.6834 61.8316 81.9128 61.8316 82.1718V82.2307H60.9045V81.9186H60.9665C60.9973 81.9186 61.0177 81.9095 61.0308 81.8894C61.0425 81.8704 61.0471 81.8457 61.0471 81.8105Z" fill="#4B2A91"/>
<path d="M67.327 82.6536C67.327 82.6936 67.3375 82.7207 67.3582 82.7371C67.3786 82.7549 67.4163 82.7619 67.471 82.7619H67.5103V83.074H66.4267V82.7619H66.4656C66.5202 82.7619 66.5561 82.7478 66.576 82.7124C66.5954 82.6795 66.6041 82.6159 66.6041 82.5265V82.3592C66.6041 82.0861 66.566 81.8599 66.4873 81.6775C66.4079 81.4974 66.3027 81.3512 66.1705 81.2429C66.0382 81.1346 65.8867 81.0569 65.7169 81.0122C65.5464 80.9662 65.3697 80.9439 65.188 80.9439C65.0076 80.9439 64.8313 80.9673 64.6616 81.0132C64.4899 81.0605 64.3384 81.1371 64.2043 81.2452C64.0716 81.3524 63.9645 81.4949 63.8852 81.674C63.8048 81.8506 63.7643 82.073 63.7643 82.3391V85.6292C63.7643 85.7812 63.7771 85.8907 63.8036 85.9541C63.8294 86.0179 63.8883 86.0495 63.9823 86.0495H64.0991V86.3604H62.7041V86.0495H62.8211C62.9139 86.0495 62.975 86.0191 63.0009 85.9578C63.0298 85.8965 63.042 85.7882 63.042 85.6342V82.4863C63.042 82.1886 63.0955 81.9212 63.2036 81.6856C63.3107 81.4502 63.4599 81.2501 63.6498 81.0851C63.8395 80.9203 64.0662 80.7931 64.3289 80.706C64.5916 80.6188 64.879 80.574 65.188 80.574C65.4972 80.574 65.7809 80.6188 66.0426 80.706C66.3038 80.7931 66.529 80.9203 66.7194 81.0851C66.9097 81.2501 67.0585 81.4502 67.166 81.6856C67.2728 81.9212 67.327 82.1886 67.327 82.4863V82.6536Z" fill="#4B2A91"/>
<path d="M70.6392 80.574C70.9471 80.574 71.2315 80.6188 71.4935 80.7059C71.7539 80.7931 71.9796 80.9203 72.1699 81.0851C72.3603 81.2501 72.5091 81.4502 72.6159 81.6856C72.723 81.9212 72.7769 82.1886 72.7769 82.4863V85.6329C72.7769 85.7882 72.7922 85.8965 72.8187 85.9578C72.8457 86.0191 72.9057 86.0495 72.9991 86.0495H73.1167V86.3604H71.7221V86.0495H71.8374C71.9308 86.0495 71.9924 86.0179 72.0166 85.9541C72.0437 85.8907 72.0559 85.781 72.0559 85.6292V82.3391C72.0559 82.073 72.0166 81.8494 71.9366 81.6715C71.8585 81.4916 71.7527 81.3477 71.621 81.2406C71.4894 81.1333 71.3373 81.0569 71.168 81.0122C70.9965 80.9662 70.819 80.9439 70.6392 80.9439C70.4588 80.9439 70.2818 80.9673 70.1116 81.0145C69.9411 81.0605 69.789 81.1371 69.6561 81.2452C69.5222 81.3524 69.4151 81.4949 69.3351 81.674C69.2547 81.8506 69.2148 82.073 69.2148 82.3391V85.6292C69.2148 85.781 69.2277 85.8907 69.2535 85.9541C69.2789 86.0179 69.3399 86.0495 69.4329 86.0495H69.548V86.3604H68.1553V86.0495H68.271C68.3644 86.0495 68.4244 86.0191 68.452 85.9578C68.4791 85.8965 68.4925 85.7882 68.4925 85.6329V82.4863C68.4925 82.1886 68.5467 81.9212 68.6537 81.6856C68.7618 81.4502 68.9092 81.2501 69.1008 81.0851C69.2907 80.9203 69.5174 80.7931 69.7794 80.7059C70.0421 80.6188 70.3283 80.574 70.6392 80.574Z" fill="#4B2A91"/>
<path d="M79.097 84.533C79.097 84.832 79.0429 85.0971 78.936 85.3336C78.829 85.5692 78.6795 85.7707 78.4905 85.9343C78.2991 86.0991 78.0746 86.2262 77.8124 86.3136C77.5503 86.4006 77.2647 86.4453 76.958 86.4453C76.6476 86.4453 76.361 86.4006 76.0989 86.3136C75.8356 86.2262 75.61 86.0991 75.4196 85.9343C75.2305 85.7707 75.0805 85.5692 74.9736 85.3336C74.8649 85.0971 74.812 84.832 74.812 84.533V81.3678H74.7451C74.5981 81.3678 74.4483 81.3653 74.2956 81.363C74.1439 81.3608 73.997 81.3502 73.856 81.3324C73.7161 81.3136 73.5886 81.2864 73.4704 81.2502C73.3536 81.2148 73.2554 81.163 73.1777 81.0947L73.5863 80.5319H73.8178C73.8608 80.6141 73.9211 80.6837 73.9912 80.7412C74.0635 80.798 74.1439 80.8447 74.2344 80.8791C74.3255 80.9143 74.4231 80.9392 74.527 80.9557C74.6316 80.9711 74.7387 80.9769 74.8474 80.9769H75.8687V81.2889H75.7511C75.6581 81.2889 75.5982 81.3206 75.5736 81.3844C75.5465 81.4479 75.5337 81.5562 75.5337 81.7093V84.6803C75.5337 84.9474 75.5748 85.17 75.6536 85.3479C75.7336 85.5257 75.8404 85.668 75.9733 85.7752C76.1072 85.8825 76.2597 85.9602 76.4304 86.0061C76.602 86.0531 76.777 86.0767 76.958 86.0767C77.1389 86.0767 77.3166 86.0544 77.4856 86.0072C77.6572 85.9637 77.8091 85.886 77.9405 85.7765C78.0722 85.668 78.1767 85.522 78.2577 85.3408C78.3342 85.1605 78.3741 84.9335 78.3741 84.6614V84.4893C78.3741 84.3989 78.3648 84.3376 78.3448 84.3024C78.3272 84.2692 78.2896 84.2527 78.2344 84.2527H78.1978V83.9421H79.2791V84.2527H79.2392C79.185 84.2527 79.1474 84.2612 79.1286 84.2786C79.1063 84.2951 79.097 84.3233 79.097 84.3612V84.533Z" fill="#4B2A91"/>
</svg>
