<svg xmlns="http://www.w3.org/2000/svg" fill="none" viewBox="0 46.119628 150.6036217303823 58.588" style="max-height: 500px" width="150.6036217303823" height="58.588">
<path fill="#F68B1A" d="M0.292969 76.4117C0.292969 85.148 4.13504 92.9996 10.2134 98.3804C6.20009 93.2521 3.79915 86.8048 3.79915 79.8034C3.79915 63.1455 17.3503 49.5933 34.007 49.5933C38.3013 49.5933 42.3851 50.5003 46.0877 52.122C41.3919 48.9329 35.7295 47.0654 29.6379 47.0654C13.4563 47.0654 0.292969 60.2301 0.292969 76.4117Z"/>
<path fill="#4B2A91" d="M14.9054 74.6849C14.9054 70.5692 15.9755 66.6991 17.8452 63.3338C18.2129 62.6157 18.6251 61.9267 19.0857 61.2716C13.6732 65.6389 10.202 72.3216 10.202 79.8037C10.202 92.9302 20.8802 103.608 34.0071 103.608C42.9284 103.608 50.7157 98.6732 54.7924 91.3915C50.5573 95.5593 44.7528 98.136 38.3562 98.136C25.4255 98.136 14.9054 87.6158 14.9054 74.6849Z"/>
<path fill="#4B2A91" d="M33.0249 88.104C30.6296 88.104 28.3512 87.6029 26.281 86.7079C29.3699 89.8101 33.642 91.7336 38.3555 91.7336C47.7565 91.7336 55.4049 84.0853 55.4049 74.6849C55.4049 67.6805 51.1552 61.6559 45.1025 59.0361C48.1721 62.1205 50.0739 66.3701 50.0739 71.0553C50.0739 80.4559 42.4255 88.104 33.0249 88.104Z"/>
<path fill="#F68B1A" d="M38.6001 71.3817C38.6001 75.9352 35.8891 79.8582 32.0005 81.6499C32.3383 81.6816 32.68 81.7012 33.0254 81.7012C38.8955 81.7012 43.6726 76.9251 43.6726 71.0551C43.6726 65.185 38.8955 60.4077 33.0254 60.4077C32.2685 60.4077 31.5308 60.4906 30.8184 60.6419C35.3307 62.1291 38.6001 66.3779 38.6001 71.3817Z"/>
<path fill="#4B2A91" d="M27.2882 76.2893C29.9953 76.2893 32.1985 74.0879 32.1985 71.3819C32.1985 68.6752 29.9953 66.4712 27.2882 66.4712C24.6195 66.4712 22.4495 68.6179 22.3898 71.2726C22.3933 71.4193 22.4041 71.5639 22.4131 71.7096C22.5852 74.2602 24.694 76.2893 27.2882 76.2893Z"/>
<path fill="#4B2A91" d="M81.5103 58.7102L81.5702 58.7638V59.0913L81.5165 59.1379C81.0264 59.1512 80.722 59.1751 80.6039 59.2113C80.4856 59.2473 80.4018 59.3063 80.3531 59.388C80.3044 59.4707 80.2764 59.6323 80.2695 59.8732C80.2633 60.1141 80.2508 60.794 80.2329 61.9128V64.9959C80.2329 65.441 80.2396 65.9447 80.2531 66.5061C80.2659 67.0676 80.2939 67.3947 80.3365 67.4864C80.3785 67.5774 80.4555 67.6448 80.5673 67.6864C80.6791 67.729 80.9951 67.757 81.5165 67.7702L81.5702 67.8169V68.1444L81.5103 68.1981C80.7836 68.1582 80.1504 68.1379 79.6115 68.1379C79.2457 68.1379 78.6242 68.1582 77.7456 68.1981L77.6857 68.1444V67.8236L77.7391 67.7702C78.2292 67.757 78.5334 67.7323 78.6513 67.6967C78.7694 67.6607 78.8534 67.6015 78.9021 67.5194C78.9516 67.4369 78.9801 67.2731 78.9893 67.028C78.9986 66.783 79.0089 66.105 79.0232 64.9959V60.0873L76.7159 64.9155C76.1364 66.1231 75.6301 67.2598 75.1979 68.325H74.9372C74.6875 67.7504 74.4826 67.291 74.3221 66.948L71.1257 60.3082V64.9816C71.1257 65.4188 71.1311 65.9212 71.1428 66.4898C71.154 67.0586 71.1817 67.3862 71.2259 67.4759C71.2709 67.5655 71.3485 67.6316 71.4605 67.6765C71.5713 67.7211 71.8882 67.748 72.4098 67.757L72.4634 67.8105V68.1315L72.4029 68.1912L71.9748 68.1713C71.5336 68.1494 71.155 68.1379 70.8385 68.1379C70.6957 68.1379 70.1631 68.1556 69.2404 68.1912L69.1867 68.1379V67.8169L69.2404 67.757C69.7307 67.748 70.0338 67.7262 70.1495 67.6898C70.2659 67.654 70.349 67.5942 70.4003 67.5097C70.4516 67.4252 70.4807 67.2667 70.4874 67.0349C70.4938 66.8028 70.504 66.1188 70.5175 64.9816V61.9197C70.5175 61.5138 70.5119 61.0196 70.5009 60.4383C70.4895 59.857 70.463 59.5203 70.4204 59.4289C70.3783 59.3371 70.3012 59.2697 70.19 59.2247C70.0787 59.1799 69.762 59.1534 69.2404 59.1448L69.1867 59.0913V58.7703L69.247 58.7102C69.5545 58.7324 69.9692 58.7434 70.4908 58.7434C70.9812 58.7434 71.409 58.7324 71.7744 58.7102C72.1487 59.575 72.5074 60.3569 72.8515 61.0571L75.3847 66.259L77.6719 61.4918C78.2915 60.2032 78.7084 59.2762 78.9223 58.7102C79.3504 58.7324 79.7721 58.7434 80.1859 58.7434C80.5606 58.7434 81.0023 58.7324 81.5103 58.7102Z"/>
<path fill="#4B2A91" d="M82.2629 58.7369L82.3166 58.6899C83.846 58.7167 84.8244 58.7296 85.2523 58.7296C86.7147 58.7296 88.016 58.7167 89.1575 58.6899L89.1902 58.7369C89.0793 59.1648 88.997 59.8359 88.9433 60.7494L88.903 60.8031H88.5751L88.5154 60.7494C88.5193 60.7091 88.5219 60.6731 88.5219 60.6423C88.5219 60.2638 88.4926 59.9021 88.4351 59.5591C88.1541 59.4345 87.7652 59.3533 87.268 59.315C86.7716 59.2773 86.3982 59.2581 86.1485 59.2581C85.7958 59.2581 85.346 59.2822 84.7977 59.3318L84.771 60.4015L84.7505 61.6256L84.7307 62.9827C85.2122 63.0092 85.6558 63.0228 86.0611 63.0228C86.4715 63.0228 86.8147 63.0092 87.0915 62.9827C87.3675 62.956 87.5293 62.928 87.5756 62.8987C87.6228 62.8698 87.6584 62.8138 87.6827 62.7315C87.7075 62.6492 87.7286 62.5034 87.7461 62.2942L87.7728 61.8788L87.8262 61.8256H88.1345L88.1882 61.8788C88.1789 62.3655 88.1677 62.8535 88.1541 63.3434L88.1882 64.8476L88.1345 64.9015H87.8262L87.7728 64.8476L87.726 64.4463C87.6864 64.1349 87.6573 63.949 87.639 63.8885C87.6218 63.8279 87.5802 63.7754 87.5158 63.7316C87.4507 63.6872 87.2852 63.6515 87.0176 63.6245C86.7501 63.5976 86.3821 63.5843 85.9146 63.5843C85.6558 63.5843 85.2611 63.5957 84.7307 63.6174C84.7087 63.9919 84.6971 64.6165 84.6971 65.4899C84.6971 66.426 84.7087 67.1148 84.7307 67.556H85.9609C87.0444 67.556 87.7219 67.5427 87.9938 67.516C88.2659 67.4892 88.5243 67.425 88.7694 67.3225C88.8095 67.2195 88.875 66.9823 88.9666 66.6098C89.0579 66.2373 89.1101 66.005 89.1243 65.9115L89.1902 65.8643H89.5117L89.5649 65.9115C89.5252 66.1024 89.4856 66.4379 89.4481 66.9144C89.4102 67.3908 89.3917 67.7993 89.3917 68.1379L89.3443 68.1912C88.4926 68.1642 87.3785 68.1513 86.0014 68.1513L84.1826 68.1379C83.7586 68.1379 83.3178 68.1556 82.8587 68.1912L82.8054 68.1379V67.9171L82.8587 67.8501C83.1215 67.7167 83.2723 67.6329 83.3096 67.5993C83.3484 67.5666 83.379 67.176 83.4035 66.4295C83.4283 65.6829 83.4399 65.1131 83.4399 64.7212V62.2672L83.4337 60.7494C83.4337 60.42 83.4296 60.1509 83.4203 59.9438C83.4108 59.7357 83.396 59.5879 83.3736 59.4987C83.3514 59.4098 83.3255 59.3473 83.2964 59.3113C83.268 59.2762 83.2206 59.2464 83.1562 59.2219C83.0913 59.1967 82.9812 59.1751 82.8246 59.1577L82.3166 59.1178L82.2629 59.0706V58.7369Z"/>
<path fill="#4B2A91" d="M92.5269 67.4627C92.9817 67.5515 93.5057 67.5963 94.0988 67.5963C95.1368 67.5963 95.9672 67.4222 96.5889 67.0747C97.2109 66.727 97.6752 66.2116 97.9831 65.5304C98.291 64.8476 98.4441 64.0794 98.4441 63.2234C98.4441 61.9615 98.108 60.9834 97.435 60.2883C96.7617 59.5931 95.7009 59.2454 94.252 59.2454C93.6543 59.2454 93.0797 59.2893 92.5269 59.3789C92.4916 60.1095 92.4737 60.9345 92.4737 61.8523V63.9525L92.4868 65.9175C92.4868 66.3013 92.5002 66.8164 92.5269 67.4627ZM90.0529 58.7369L90.1066 58.6899C90.8774 58.7251 91.4036 58.7432 91.6845 58.7432L94.8134 58.6766C95.7058 58.6766 96.436 58.7602 97.0069 58.9276C97.5778 59.0939 98.085 59.3841 98.528 59.7965C98.9713 60.2093 99.3083 60.6882 99.5378 61.2337C99.7674 61.7801 99.8823 62.3627 99.8823 62.9827C99.8823 63.5843 99.7773 64.1791 99.5675 64.7675C99.3583 65.3559 99.0605 65.8835 98.6751 66.3493C98.2897 66.8155 97.8506 67.1911 97.3581 67.4759C96.8649 67.7609 96.372 67.9514 95.8764 68.0479C95.3824 68.1433 94.8766 68.1912 94.3591 68.1912C94.0111 68.1912 93.3562 68.178 92.3933 68.1513C92.0764 68.1423 91.867 68.1379 91.7646 68.1379C91.4572 68.1379 91.0851 68.1556 90.6484 68.1912L90.595 68.1379V67.9171L90.6484 67.8501C90.9113 67.7167 91.061 67.6329 91.0996 67.5993C91.1375 67.5666 91.1681 67.176 91.1933 66.4295C91.2176 65.6829 91.2297 65.1131 91.2297 64.7212V62.2672L91.2228 60.7494C91.2228 60.42 91.2189 60.1509 91.2103 59.9438C91.2006 59.7357 91.1853 59.5879 91.1629 59.4987C91.1401 59.4098 91.1144 59.3475 91.086 59.3113C91.0571 59.2762 91.0099 59.2464 90.9455 59.2219C90.8809 59.1967 90.7708 59.1751 90.6146 59.1577L90.1066 59.1178L90.0529 59.0706V58.7369Z"/>
<path fill="#4B2A91" d="M100.283 58.6899L101.119 58.7167C101.667 58.7348 102.026 58.7432 102.196 58.7432C102.347 58.7432 102.987 58.7251 104.114 58.6899L104.168 58.7369V59.0706L104.114 59.1178C103.807 59.1267 103.57 59.1404 103.402 59.1575C103.235 59.1749 103.114 59.2092 103.037 59.2581C102.962 59.3072 102.912 59.4216 102.888 59.6021C102.863 59.7836 102.85 60.0333 102.85 60.3545L102.838 61.8928V64.9883L102.844 66.2922C102.849 66.7961 102.862 67.121 102.884 67.269C102.906 67.4151 102.939 67.5136 102.981 67.5631C103.024 67.6123 103.105 67.6528 103.225 67.6862C103.346 67.7202 103.642 67.7456 104.114 67.7631L104.168 67.8038V68.1379L104.114 68.1912C104.093 68.1912 103.7 68.178 102.937 68.1513C102.622 68.1423 102.374 68.1379 102.196 68.1379C102.057 68.1379 101.42 68.1556 100.283 68.1912L100.23 68.1379V67.8038L100.283 67.7631C100.697 67.7456 100.974 67.7236 101.112 67.6967C101.25 67.67 101.343 67.6353 101.39 67.5933C101.436 67.5502 101.474 67.4602 101.503 67.3223C101.532 67.1839 101.549 66.8763 101.554 66.3991L101.56 64.9883V61.8928L101.547 60.5889C101.542 60.0807 101.53 59.7534 101.51 59.6054C101.49 59.4589 101.459 59.3606 101.417 59.3113C101.374 59.2624 101.293 59.2225 101.172 59.1915C101.052 59.1601 100.755 59.1357 100.283 59.1178L100.23 59.0706V58.7369L100.283 58.6899Z"/>
<path fill="#4B2A91" d="M107.846 64.4402H111.229L109.551 60.4077L107.846 64.4402ZM104.797 68.1912L104.736 68.1379V67.7898L104.797 67.7364C105.122 67.732 105.332 67.7152 105.425 67.6862C105.519 67.6573 105.602 67.5993 105.676 67.5132C105.75 67.4259 105.898 67.1415 106.121 66.66L106.822 65.1355L108.641 61.0166C108.985 60.2101 109.326 59.4031 109.665 58.5962H110.099L112.954 65.3093L113.336 66.2054C113.447 66.4596 113.575 66.7362 113.72 67.0346C113.865 67.3328 113.965 67.5097 114.02 67.5631C114.077 67.6166 114.145 67.6573 114.228 67.6862C114.311 67.7152 114.494 67.732 114.78 67.7364L114.834 67.7898V68.1379L114.78 68.1912C114.307 68.1513 113.882 68.1313 113.503 68.1313C112.762 68.1539 112.023 68.1737 111.283 68.1912L111.229 68.1379V67.7898L111.283 67.7364C111.782 67.7275 112.094 67.7062 112.219 67.6734C112.344 67.6398 112.406 67.5631 112.406 67.4423C112.406 67.3445 112.375 67.2152 112.312 67.0549L111.49 65.0153H107.618L106.89 66.727C106.76 67.0346 106.696 67.2596 106.696 67.4026C106.696 67.5136 106.756 67.5961 106.876 67.65C106.997 67.7034 107.3 67.732 107.785 67.7364L107.846 67.7898V68.1379L107.792 68.1912C107.217 68.1556 106.714 68.1379 106.281 68.1379C105.791 68.1379 105.296 68.1556 104.797 68.1912Z"/>
<path fill="#4B2A91" d="M69.3277 72.0826L70.1637 72.1093C70.712 72.1274 71.0707 72.136 71.24 72.136C71.3917 72.136 72.0312 72.1183 73.1592 72.0826L73.2127 72.1293V72.4635L73.1592 72.5104C72.8518 72.5193 72.6144 72.5333 72.4472 72.5503C72.2802 72.5682 72.1585 72.602 72.0824 72.6505C72.0068 72.7002 71.9566 72.8144 71.9323 72.995C71.9075 73.1762 71.895 73.4261 71.895 73.7471L71.8819 75.2856V78.3811L71.8887 79.6846C71.8928 80.189 71.9064 80.5141 71.9288 80.6617C71.9508 80.8082 71.9833 80.9066 72.026 80.956C72.0676 81.0049 72.1492 81.046 72.2697 81.0792C72.3899 81.1128 72.6863 81.1384 73.1592 81.1559L73.2127 81.1966V81.5303L73.1592 81.584C73.1364 81.584 72.7445 81.5711 71.9822 81.5441C71.6653 81.5351 71.4184 81.5303 71.24 81.5303C71.1021 81.5303 70.4644 81.5484 69.3277 81.584L69.2743 81.5303V81.1966L69.3277 81.1559C69.7425 81.1384 70.0189 81.1162 70.157 81.0897C70.2949 81.063 70.3873 81.0281 70.4345 80.9861C70.4812 80.943 70.5194 80.853 70.548 80.7153C70.5771 80.5766 70.5939 80.2689 70.5982 79.7917L70.6049 78.3811V75.2856L70.5913 73.9815C70.587 73.4735 70.5747 73.146 70.5549 72.9982C70.5344 72.8517 70.5036 72.7537 70.461 72.7041C70.4187 72.6554 70.3375 72.6154 70.2171 72.5843C70.0969 72.5529 69.8002 72.5285 69.3277 72.5104L69.2743 72.4635V72.1293L69.3277 72.0826Z"/>
<path fill="#4B2A91" d="M73.9471 81.5771L73.8872 81.5177V81.2094L73.9471 81.1559C74.219 81.1514 74.4366 81.1363 74.599 81.1092C74.7615 81.0825 74.8662 81.0383 74.9132 80.9758C74.9599 80.9129 74.9912 80.8127 75.0069 80.6746C75.0228 80.5363 75.0381 80.2246 75.0534 79.7383C75.0694 79.2527 75.0773 78.9054 75.0773 78.6949V73.293C75.0773 73.0657 75.0358 72.8972 74.9535 72.788C74.8707 72.6785 74.7587 72.6098 74.6156 72.5807C74.4732 72.5519 74.2302 72.5348 73.8872 72.5312L73.8336 72.4773V72.163L73.8872 72.1029C74.5023 72.1251 74.9058 72.136 75.0969 72.136C75.5477 72.136 75.9176 72.1251 76.2069 72.1029L78.3405 74.8707L81.4759 78.802C81.8553 79.2796 82.2414 79.7321 82.6331 80.1595V74.9845C82.6331 74.824 82.6251 74.4818 82.6098 73.9579C82.5941 73.4345 82.5749 73.1019 82.5527 72.9625C82.5305 72.8218 82.4913 72.727 82.4353 72.6772C82.3799 72.6286 82.275 72.5919 82.1216 72.5669C81.968 72.5426 81.7594 72.5286 81.4961 72.5238L81.4429 72.4704V72.163L81.4961 72.1029C81.8575 72.1251 82.3726 72.136 83.0409 72.136C83.6517 72.136 84.0947 72.1251 84.3715 72.1029L84.432 72.163V72.4704L84.3784 72.5238C84.0843 72.5286 83.8564 72.5447 83.6961 72.5738C83.5354 72.6031 83.4354 72.6505 83.3955 72.718C83.3552 72.7845 83.3274 72.8828 83.3122 73.0123C83.2958 73.1413 83.2807 73.4488 83.2645 73.9344C83.2492 74.4206 83.2411 74.7705 83.2411 74.9845V78.1602L83.2479 79.9994C83.2574 80.6014 83.2656 81.2051 83.2749 81.8118C83.0515 81.7355 82.6667 81.6422 82.1179 81.5302L81.6433 80.9685L80.219 79.2301L75.6853 73.5668V78.6949C75.6853 78.9002 75.6935 79.2663 75.7088 79.7917C75.7245 80.3179 75.7435 80.6371 75.7657 80.7481C75.7883 80.8593 75.8167 80.9366 75.8527 80.9793C75.8883 81.0206 75.9654 81.0605 76.0835 81.0961C76.2018 81.1314 76.4454 81.1514 76.816 81.1559L76.8694 81.2094V81.5239L76.816 81.5771C76.5837 81.5466 76.2093 81.5302 75.6924 81.5302C75.028 81.5302 74.4463 81.5466 73.9471 81.5771Z"/>
<path fill="#4B2A91" d="M85.1704 72.0826L86.0061 72.1093C86.5544 72.1274 86.9134 72.136 87.0827 72.136C87.2342 72.136 87.8743 72.1183 89.0017 72.0826L89.0553 72.1293V72.4635L89.0017 72.5104C88.6938 72.5193 88.4568 72.5333 88.2894 72.5503C88.1225 72.5682 88.0012 72.602 87.9255 72.6505C87.8497 72.7002 87.7991 72.8144 87.7749 72.995C87.75 73.1762 87.7383 73.4261 87.7383 73.7471L87.7243 75.2856V78.3811L87.7314 79.6846C87.7359 80.189 87.7489 80.5141 87.7715 80.6617C87.7941 80.8082 87.826 80.9066 87.8684 80.956C87.9105 81.0049 87.9919 81.046 88.1125 81.0792C88.2323 81.1128 88.529 81.1384 89.0017 81.1559L89.0553 81.1966V81.5303L89.0017 81.584C88.9791 81.584 88.587 81.5711 87.8247 81.5441C87.5082 81.5351 87.2609 81.5303 87.0827 81.5303C86.9446 81.5303 86.3067 81.5484 85.1704 81.584L85.1172 81.5303V81.1966L85.1704 81.1559C85.5847 81.1384 85.8613 81.1162 86.0001 81.0897C86.1375 81.063 86.23 81.0281 86.2772 80.9861C86.3237 80.943 86.3616 80.853 86.3907 80.7153C86.4196 80.5766 86.4366 80.2689 86.4407 79.7917L86.4476 78.3811V75.2856L86.4342 73.9815C86.4301 73.4735 86.4172 73.146 86.3974 72.9982C86.3773 72.8517 86.3463 72.7537 86.3039 72.7041C86.2614 72.6554 86.18 72.6154 86.0596 72.5843C85.9391 72.5529 85.6427 72.5285 85.1704 72.5104L85.1172 72.4635V72.1293L85.1704 72.0826Z"/>
<path fill="#4B2A91" d="M97.4603 72.0823L97.5211 72.1422C97.481 72.5436 97.4603 73.2434 97.4603 74.2424L97.4071 74.296H97.093L97.0396 74.2355L96.9663 73.6206C96.9301 73.2899 96.9023 73.0889 96.8821 73.0154C96.8623 72.9411 96.8299 72.8876 96.7853 72.8549C96.7407 72.8215 96.5958 72.7935 96.3512 72.7713C96.1058 72.7489 95.8311 72.7377 95.5282 72.7377H94.2648C94.2289 73.7447 94.2114 74.3268 94.2114 74.4832V78.3809L94.2241 79.6844C94.2289 80.1887 94.2411 80.5149 94.2612 80.6649C94.2812 80.8137 94.3124 80.9113 94.3551 80.9589C94.3973 81.0055 94.4788 81.0458 94.5986 81.0789C94.7194 81.1126 95.0178 81.1382 95.4955 81.1556L95.5418 81.1964V81.5301L95.4955 81.5837C94.3538 81.5482 93.7159 81.5301 93.5821 81.5301C93.4399 81.5301 92.8043 81.5482 91.6771 81.5837L91.6235 81.5301V81.1964L91.6771 81.1556C92.0961 81.1382 92.3736 81.116 92.5096 81.0895C92.6449 81.0628 92.7369 81.0279 92.7834 80.9859C92.8304 80.9428 92.8694 80.8527 92.9008 80.7151C92.9316 80.5763 92.9476 80.2687 92.9476 79.7914L92.9607 78.3809V74.4832C92.9607 74.4117 92.9428 73.8296 92.9071 72.7377H91.9113C91.5009 72.7377 91.146 72.7467 90.8478 72.7644C90.5497 72.7816 90.3764 72.8284 90.3297 72.9017C90.2827 72.9749 90.239 73.2145 90.1998 73.6206L90.1321 74.2355L90.0722 74.296H89.7646L89.7111 74.2424C89.7017 73.1679 89.6818 72.4682 89.6508 72.1422L89.7111 72.0823C90.4868 72.1181 91.7775 72.1357 93.5821 72.1357C95.4237 72.1357 96.7164 72.1181 97.4603 72.0823Z"/>
<path fill="#4B2A91" d="M98.1764 72.0823L99.0119 72.109C99.561 72.1271 99.9191 72.1357 100.089 72.1357C100.24 72.1357 100.88 72.1181 102.008 72.0823L102.061 72.1291V72.4632L102.008 72.5102C101.7 72.519 101.463 72.533 101.296 72.55C101.128 72.5679 101.007 72.6017 100.931 72.6502C100.855 72.7 100.805 72.8142 100.781 72.9947C100.756 73.1759 100.744 73.4258 100.744 73.7469L100.731 75.2854V78.3809L100.738 79.6844C100.742 80.1887 100.755 80.5138 100.777 80.6614C100.8 80.8079 100.832 80.9064 100.875 80.9557C100.917 81.0046 100.998 81.0458 101.118 81.0789C101.239 81.1126 101.536 81.1382 102.008 81.1556L102.061 81.1964V81.5301L102.008 81.5837C101.985 81.5837 101.594 81.5708 100.831 81.5439C100.515 81.5348 100.267 81.5301 100.089 81.5301C99.9503 81.5301 99.3133 81.5482 98.1764 81.5837L98.1229 81.5301V81.1964L98.1764 81.1556C98.5909 81.1382 98.8679 81.116 99.0056 81.0895C99.1435 81.0628 99.2366 81.0279 99.2827 80.9859C99.3296 80.9428 99.368 80.8527 99.3966 80.7151C99.4259 80.5763 99.4423 80.2687 99.4466 79.7914L99.454 78.3809V75.2854L99.4397 73.9813C99.4359 73.4732 99.4236 73.1458 99.404 72.998C99.3829 72.8515 99.3521 72.7534 99.3096 72.7039C99.2676 72.6552 99.1864 72.6151 99.0655 72.5841C98.9455 72.5526 98.6493 72.5283 98.1764 72.5102L98.1229 72.4632V72.1291L98.1764 72.0823Z"/>
<path fill="#4B2A91" d="M105.739 77.8331H109.121L107.443 73.801L105.739 77.8331ZM102.689 81.584L102.629 81.5303V81.1826L102.689 81.1294C103.015 81.1253 103.224 81.1083 103.318 81.0792C103.411 81.0503 103.495 80.9922 103.569 80.9062C103.642 80.8185 103.79 80.5348 104.013 80.0532L104.715 78.5285L106.534 74.4094C106.877 73.6032 107.218 72.7959 107.557 71.9891H107.992L110.847 78.7022L111.228 79.5982C111.339 79.8522 111.467 80.1293 111.612 80.4272C111.757 80.7256 111.857 80.9025 111.913 80.956C111.969 81.0096 112.038 81.0503 112.12 81.0792C112.203 81.1083 112.387 81.1253 112.672 81.1294L112.726 81.1826V81.5303L112.672 81.584C112.2 81.5443 111.774 81.5241 111.395 81.5241C110.655 81.5467 109.915 81.5667 109.175 81.584L109.121 81.5303V81.1826L109.175 81.1294C109.675 81.1206 109.986 81.0992 110.111 81.0665C110.236 81.0329 110.298 80.956 110.298 80.8349C110.298 80.7373 110.267 80.608 110.205 80.4479L109.383 78.4081H105.511L104.782 80.1198C104.653 80.4272 104.588 80.6526 104.588 80.7954C104.588 80.9068 104.649 80.9891 104.768 81.0424C104.889 81.0962 105.192 81.1253 105.678 81.1294L105.739 81.1826V81.5303L105.685 81.584C105.11 81.5484 104.606 81.5303 104.174 81.5303C103.683 81.5303 103.188 81.5484 102.689 81.584Z"/>
<path fill="#4B2A91" d="M120.117 72.0823L120.178 72.1422C120.138 72.5436 120.117 73.2434 120.117 74.2424L120.064 74.296H119.75L119.696 74.2355L119.623 73.6206C119.587 73.2899 119.559 73.0889 119.539 73.0154C119.519 72.9411 119.487 72.8876 119.442 72.8549C119.397 72.8215 119.253 72.7935 119.008 72.7713C118.763 72.7489 118.488 72.7377 118.185 72.7377H116.922C116.886 73.7447 116.868 74.3268 116.868 74.4832V78.3809L116.881 79.6844C116.886 80.1887 116.898 80.5149 116.918 80.6649C116.938 80.8137 116.969 80.9113 117.012 80.9589C117.054 81.0055 117.136 81.0458 117.256 81.0789C117.377 81.1126 117.674 81.1382 118.152 81.1556L118.199 81.1964V81.5301L118.152 81.5837C117.011 81.5482 116.373 81.5301 116.239 81.5301C116.097 81.5301 115.462 81.5482 114.334 81.5837L114.28 81.5301V81.1964L114.334 81.1556C114.753 81.1382 115.031 81.116 115.166 81.0895C115.302 81.0628 115.394 81.0279 115.441 80.9859C115.487 80.9428 115.526 80.8527 115.558 80.7151C115.589 80.5763 115.604 80.2687 115.604 79.7914L115.617 78.3809V74.4832C115.617 74.4117 115.6 73.8296 115.564 72.7377H114.568C114.158 72.7377 113.804 72.7467 113.505 72.7644C113.206 72.7816 113.033 72.8284 112.987 72.9017C112.94 72.9749 112.896 73.2145 112.856 73.6206L112.789 74.2355L112.729 74.296H112.421L112.368 74.2424C112.359 73.1679 112.339 72.4682 112.307 72.1422L112.368 72.0823C113.144 72.1181 114.434 72.1357 116.239 72.1357C118.081 72.1357 119.373 72.1181 120.117 72.0823Z"/>
<path fill="#4B2A91" d="M120.832 72.0828L121.669 72.1095C122.217 72.1276 122.576 72.1362 122.745 72.1362C122.897 72.1362 123.536 72.1186 124.664 72.0828L124.718 72.1295V72.4637L124.664 72.5107C124.356 72.5195 124.119 72.5335 123.952 72.5505C123.785 72.5684 123.664 72.6022 123.588 72.6507C123.512 72.7005 123.462 72.8147 123.437 72.9952C123.413 73.1764 123.4 73.4263 123.4 73.7473L123.387 75.2858V78.3814L123.394 79.6848C123.398 80.1892 123.412 80.5143 123.434 80.6619C123.456 80.8084 123.488 80.9069 123.531 80.9562C123.573 81.0051 123.655 81.0463 123.774 81.0794C123.895 81.113 124.191 81.1387 124.664 81.1561L124.718 81.1969V81.5306L124.664 81.5842C124.642 81.5842 124.249 81.5713 123.487 81.5444C123.171 81.5353 122.923 81.5306 122.745 81.5306C122.607 81.5306 121.97 81.5487 120.832 81.5842L120.779 81.5306V81.1969L120.832 81.1561C121.248 81.1387 121.524 81.1165 121.662 81.09C121.8 81.0633 121.892 81.0284 121.94 80.9864C121.986 80.9433 122.024 80.8532 122.053 80.7155C122.082 80.5768 122.099 80.2691 122.104 79.7919L122.11 78.3814V75.2858L122.096 73.9817C122.092 73.4737 122.079 73.1462 122.06 72.9984C122.04 72.8519 122.009 72.7539 121.967 72.7044C121.924 72.6557 121.842 72.6156 121.722 72.5846C121.602 72.5531 121.305 72.5288 120.832 72.5107L120.779 72.4637V72.1295L120.832 72.0828Z"/>
<path fill="#4B2A91" d="M129.693 81.6511C129.627 81.4549 129.348 80.7057 128.858 79.4042L126.584 73.7811C126.326 73.1392 126.163 72.7749 126.096 72.6877C126.029 72.6006 125.762 72.5416 125.294 72.5104L125.234 72.4505V72.1424L125.294 72.0825C125.976 72.118 126.556 72.1359 127.032 72.1359C127.478 72.1359 128.069 72.118 128.804 72.0825L128.858 72.1359V72.5039L128.804 72.5573C128.265 72.5573 127.943 72.5737 127.838 72.6073C127.734 72.6411 127.681 72.704 127.681 72.7982C127.681 72.8516 127.752 73.089 127.894 73.51C128.038 73.9308 128.164 74.2865 128.276 74.5763L130.369 79.8655L132.114 75.4792C132.234 75.1806 132.41 74.6997 132.642 74.0349C132.874 73.3704 132.99 72.9714 132.99 72.8378C132.99 72.7271 132.936 72.6553 132.826 72.6241C132.717 72.5931 132.39 72.5552 131.847 72.5104L131.787 72.4569V72.1359L131.847 72.0825C132.627 72.118 133.124 72.1359 133.338 72.1359C133.511 72.1359 133.962 72.118 134.688 72.0825L134.742 72.1359V72.4569L134.688 72.5104C134.367 72.5239 134.174 72.5485 134.107 72.5842C134.04 72.62 133.98 72.6892 133.929 72.7911C133.878 72.8936 133.719 73.2457 133.452 73.8476L131.365 78.9828C130.897 80.1292 130.566 81.0179 130.369 81.6511H129.693Z"/>
<path fill="#4B2A91" d="M135.403 72.1298L135.456 72.083C136.985 72.1095 137.963 72.1231 138.391 72.1231C139.853 72.1231 141.155 72.1095 142.296 72.083L142.329 72.1298C142.218 72.5579 142.136 73.229 142.082 74.1427L142.042 74.1955H141.715L141.654 74.1427C141.659 74.102 141.661 74.0662 141.661 74.0354C141.661 73.6569 141.632 73.2953 141.574 72.9523C141.293 72.8278 140.904 72.7464 140.407 72.7078C139.91 72.6701 139.537 72.6509 139.287 72.6509C138.935 72.6509 138.485 72.6755 137.936 72.725L137.91 73.795L137.89 75.0187L137.869 76.3758C138.351 76.4025 138.795 76.4157 139.2 76.4157C139.61 76.4157 139.953 76.4025 140.229 76.3758C140.506 76.3489 140.668 76.3213 140.715 76.292C140.762 76.2629 140.797 76.2071 140.821 76.1246C140.846 76.0425 140.868 75.8966 140.885 75.6872L140.912 75.2718L140.966 75.2186H141.273L141.326 75.2718C141.317 75.7579 141.306 76.2467 141.293 76.7369L141.326 78.2411L141.273 78.2948H140.966L140.912 78.2411L140.865 77.8395C140.825 77.528 140.796 77.3421 140.779 77.2815C140.76 77.221 140.719 77.1686 140.654 77.1249C140.59 77.0803 140.424 77.0445 140.156 77.0178C139.889 76.9909 139.521 76.9773 139.053 76.9773C138.795 76.9773 138.4 76.9887 137.869 77.0105C137.847 77.3852 137.836 78.0093 137.836 78.883C137.836 79.8191 137.847 80.5081 137.869 80.9493H139.1C140.183 80.9493 140.86 80.9362 141.133 80.9092C141.404 80.8823 141.663 80.8181 141.908 80.7158C141.948 80.6126 142.014 80.3756 142.105 80.0026C142.197 79.631 142.25 79.3981 142.262 79.3044L142.329 79.2572H142.651L142.704 79.3044C142.663 79.4957 142.625 79.8307 142.587 80.3075C142.549 80.7843 142.53 81.1921 142.53 81.5306L142.483 81.5842C141.632 81.5575 140.517 81.5446 139.14 81.5446L137.321 81.5306C136.898 81.5306 136.456 81.5487 135.997 81.5842L135.944 81.5306V81.3104L135.997 81.2434C136.26 81.1096 136.411 81.0262 136.448 80.9924C136.486 80.9596 136.518 80.569 136.542 79.8225C136.566 79.0762 136.579 78.5061 136.579 78.1142V75.6603L136.572 74.1427C136.572 73.8128 136.568 73.544 136.559 73.3369C136.55 73.1288 136.534 72.9814 136.512 72.8916C136.49 72.803 136.464 72.7406 136.435 72.7044C136.406 72.669 136.359 72.6395 136.295 72.6152C136.23 72.59 136.12 72.5686 135.964 72.5508L135.456 72.5109L135.403 72.4639V72.1298Z"/>
<path fill="#4B2A91" d="M143.629 79.2302L143.683 79.1767H144.011L144.064 79.2302C144.086 79.8011 144.117 80.1499 144.154 80.2768C144.192 80.4033 144.312 80.5373 144.515 80.678C144.718 80.8184 144.988 80.9333 145.325 81.0218C145.661 81.1117 146.001 81.1558 146.344 81.1558C146.816 81.1558 147.241 81.0692 147.617 80.8954C147.994 80.7215 148.287 80.4662 148.497 80.1303C148.707 79.7929 148.811 79.415 148.811 78.9962C148.811 78.7021 148.761 78.4457 148.661 78.2277C148.561 78.0088 148.42 77.8341 148.24 77.702C148.059 77.5708 147.853 77.4734 147.621 77.4079C147.389 77.3441 147.044 77.2737 146.585 77.1974C146.139 77.1265 145.79 77.0615 145.538 77.0037C145.286 76.9462 145.035 76.8568 144.786 76.7366C144.537 76.6162 144.328 76.4634 144.161 76.2788C143.993 76.093 143.86 75.8662 143.76 75.5962C143.659 75.3263 143.609 75.0382 143.609 74.7306C143.609 73.8972 143.899 73.2134 144.478 72.681C145.058 72.148 145.836 71.8819 146.812 71.8819C147.2 71.8819 147.622 71.9297 148.079 72.0261C148.536 72.1215 148.951 72.2635 149.326 72.4505L149.373 72.5311C149.275 72.9408 149.215 73.5245 149.192 74.2822L149.132 74.3359H148.784L148.731 74.2889C148.722 73.7542 148.709 73.4176 148.691 73.2797C148.673 73.1412 148.47 72.9693 148.083 72.7646C147.694 72.5601 147.273 72.4569 146.819 72.4569C146.439 72.4569 146.085 72.5332 145.756 72.6842C145.426 72.8355 145.176 73.0744 145.007 73.3997C144.837 73.7251 144.752 74.0577 144.752 74.396C144.752 74.6588 144.804 74.8919 144.906 75.0951C145.009 75.2972 145.141 75.4577 145.304 75.5766C145.467 75.6945 145.657 75.7824 145.873 75.8405C146.089 75.8983 146.484 75.9696 147.06 76.0545C147.848 76.1661 148.422 76.301 148.781 76.4589C149.14 76.6174 149.427 76.8678 149.643 77.2114C149.86 77.5546 149.968 77.9689 149.968 78.4541C149.968 79.4045 149.581 80.1952 148.808 80.8284C148.034 81.4618 147.097 81.7778 145.997 81.7778C145.073 81.7778 144.265 81.6128 143.569 81.283L143.529 81.1966C143.574 80.9152 143.607 80.2602 143.629 79.2302Z"/>
<path fill="#4B2A91" d="M78.2603 93.7927L78.0068 94.4147C77.0172 94.9182 75.9602 95.1707 74.8369 95.1707C73.2281 95.1707 71.9206 94.7135 70.916 93.7993C69.9105 92.8856 69.4078 91.6914 69.4078 90.2156C69.4078 89.1995 69.6588 88.3108 70.16 87.5509C70.6615 86.7908 71.3234 86.2223 72.1462 85.8468C72.9681 85.4695 73.8922 85.2814 74.9172 85.2814C75.5102 85.2814 76.0964 85.3433 76.6759 85.4686C77.2555 85.5932 77.7394 85.742 78.1268 85.9163L78.1739 85.9827C78.0707 86.2326 77.9755 86.8503 77.8859 87.8353L77.8396 87.8888H77.5257L77.472 87.8353L77.4046 86.6988C77.0797 86.4397 76.6859 86.2384 76.225 86.0934C75.7631 85.9491 75.2831 85.8756 74.7835 85.8756C74.0305 85.8756 73.3546 86.0374 72.7578 86.3608C72.16 86.684 71.6967 87.153 71.3671 87.7653C71.037 88.3783 70.8722 89.1284 70.8722 90.0157C70.8722 90.9065 71.0659 91.6888 71.4537 92.3619C71.8413 93.0354 72.3711 93.5522 73.0422 93.9133C73.7125 94.2737 74.496 94.4552 75.3921 94.4552C75.7885 94.4552 76.1703 94.4168 76.5359 94.3412C76.9011 94.2658 77.2057 94.1718 77.4481 94.06C77.6911 93.9495 77.9242 93.8133 78.147 93.6528L78.2603 93.7927Z"/>
<path fill="#4B2A91" d="M78.9383 85.5225L78.9917 85.4751C80.521 85.5016 81.4989 85.5156 81.9268 85.5156C83.3888 85.5156 84.6907 85.5016 85.8317 85.4751L85.8653 85.5225C85.754 85.9504 85.6712 86.6215 85.6176 87.5346L85.5782 87.5878H85.2502L85.1899 87.5346C85.1942 87.4945 85.1968 87.4588 85.1968 87.4275C85.1968 87.0494 85.1677 86.6877 85.1098 86.3445C84.8293 86.2204 84.4397 86.1387 83.9429 86.1004C83.4461 86.0622 83.0725 86.0435 82.8232 86.0435C82.471 86.0435 82.0209 86.0683 81.4719 86.1169L81.4457 87.1866L81.4256 88.4112L81.4058 89.7681C81.8873 89.7951 82.3303 89.808 82.736 89.808C83.1464 89.808 83.4896 89.7951 83.7658 89.7681C84.0418 89.7416 84.2036 89.7134 84.2501 89.6848C84.2978 89.6554 84.3329 89.5994 84.357 89.5171C84.3824 89.4346 84.4038 89.289 84.4212 89.0798L84.4477 88.6644L84.5013 88.611H84.8088L84.8624 88.6644C84.8536 89.1509 84.842 89.6391 84.8293 90.1288L84.8624 91.6337L84.8088 91.6869H84.5013L84.4477 91.6337L84.4012 91.2323C84.3607 90.9208 84.3318 90.7344 84.3141 90.6741C84.2967 90.6135 84.2549 90.5614 84.1907 90.5172C84.1258 90.4729 83.9595 90.4369 83.6919 90.4104C83.4245 90.3834 83.0568 90.3694 82.5888 90.3694C82.3303 90.3694 81.9362 90.3809 81.4058 90.4031C81.383 90.7779 81.3722 91.4021 81.3722 92.2753C81.3722 93.2114 81.383 93.9002 81.4058 94.3416H82.636C83.7188 94.3416 84.3966 94.3279 84.6688 94.3009C84.9402 94.2742 85.1992 94.2102 85.4444 94.1083C85.484 94.0045 85.5501 93.7673 85.6408 93.395C85.7328 93.0231 85.7852 92.7906 85.7988 92.6965L85.8653 92.6497H86.1866L86.24 92.6965C86.1997 92.8882 86.1605 93.223 86.1224 93.6998C86.0853 94.1768 86.0659 94.5847 86.0659 94.9233L86.0187 94.9766C85.1677 94.9501 84.0534 94.9371 82.6757 94.9371L80.8568 94.9233C80.4335 94.9233 79.9925 94.9408 79.5336 94.9766L79.4801 94.9233V94.7021L79.5336 94.6359C79.7962 94.5024 79.9466 94.4186 79.9849 94.3849C80.0226 94.352 80.0537 93.9616 80.0778 93.2151C80.103 92.4685 80.1151 91.8987 80.1151 91.5068V89.0531L80.108 87.5346C80.108 87.2054 80.1039 86.9365 80.0952 86.7299C80.0858 86.5213 80.0709 86.374 80.0483 86.2841C80.0257 86.1945 80 86.1331 79.9709 86.0971C79.9423 86.0609 79.8951 86.0318 79.8313 86.0075C79.7663 85.9823 79.6557 85.9607 79.4997 85.9437L78.9917 85.903L78.9383 85.8563V85.5225Z"/>
<path fill="#4B2A91" d="M86.9957 94.9696L86.936 94.9105V94.602L86.9957 94.5486C87.2678 94.5443 87.4852 94.529 87.6479 94.5023C87.8112 94.4753 87.9157 94.4312 87.9618 94.3687C88.0085 94.3058 88.04 94.2056 88.0564 94.0673C88.0714 93.929 88.0872 93.6172 88.1029 93.1314C88.118 92.6451 88.1262 92.2976 88.1262 92.0882V86.6856C88.1262 86.4588 88.0848 86.2899 88.0029 86.1806C87.9202 86.0714 87.8075 86.0029 87.6645 85.9738C87.5216 85.9445 87.2792 85.9273 86.936 85.9238L86.8824 85.8704V85.5552L86.936 85.4957C87.5509 85.5179 87.9544 85.5287 88.1458 85.5287C88.5965 85.5287 88.9662 85.5179 89.2564 85.4957L91.3889 88.2633L94.5252 92.1953C94.9039 92.6718 95.2893 93.1243 95.6817 93.5526V88.3771C95.6817 88.2168 95.6741 87.8751 95.658 87.3505C95.6429 86.8272 95.6242 86.4945 95.6013 86.3553C95.5787 86.2144 95.5406 86.119 95.4845 86.0701C95.429 86.0216 95.3242 85.9843 95.1704 85.96C95.0162 85.9354 94.808 85.9217 94.5454 85.9167L94.4918 85.8635V85.5552L94.5454 85.4957C94.9061 85.5179 95.4206 85.5287 96.0893 85.5287C96.7003 85.5287 97.1441 85.5179 97.4203 85.4957L97.48 85.5552V85.8635L97.4266 85.9167C97.1325 85.9217 96.9056 85.9378 96.7453 85.9669C96.5848 85.996 96.4842 86.0434 96.4439 86.111C96.4041 86.1772 96.3758 86.2752 96.3601 86.4053C96.3453 86.5344 96.3287 86.8412 96.3138 87.3274C96.2981 87.8133 96.2905 88.1634 96.2905 88.3771V91.5532L96.297 93.3918C96.3054 93.9942 96.3151 94.5975 96.3237 95.2048C96.1012 95.1279 95.7151 95.0348 95.1674 94.9232L94.6923 94.3614L93.268 92.6231L88.7342 86.9599V92.0882C88.7342 92.2929 88.7423 92.6591 88.7574 93.185C88.7738 93.7101 88.7925 94.03 88.8145 94.1405C88.8374 94.2523 88.8656 94.3288 88.9018 94.3721C88.938 94.4141 89.0144 94.4534 89.1319 94.4883C89.2506 94.5245 89.4947 94.5443 89.8644 94.5486L89.9178 94.602V94.9164L89.8644 94.9696C89.6332 94.9394 89.2586 94.9232 88.7413 94.9232C88.0775 94.9232 87.4953 94.9394 86.9957 94.9696Z"/>
<path fill="#4B2A91" d="M105.936 85.4749L105.997 85.535C105.957 85.9366 105.936 86.6364 105.936 87.6356L105.883 87.689H105.568L105.515 87.6281L105.442 87.0132C105.406 86.6827 105.378 86.4817 105.358 86.4082C105.338 86.3339 105.306 86.2804 105.262 86.2479C105.216 86.2143 105.072 86.1865 104.827 86.1641C104.581 86.141 104.307 86.1305 104.005 86.1305H102.741C102.704 87.1377 102.687 87.719 102.687 87.8763V91.7737L102.7 93.0776C102.704 93.5807 102.717 93.9081 102.737 94.0577C102.757 94.2065 102.789 94.3043 102.831 94.3517C102.873 94.3983 102.955 94.4379 103.074 94.472C103.196 94.5056 103.494 94.5308 103.971 94.5482L104.018 94.5894V94.9231L103.971 94.9763C102.83 94.9406 102.192 94.9231 102.058 94.9231C101.916 94.9231 101.281 94.9406 100.153 94.9763L100.1 94.9231V94.5894L100.153 94.5482C100.572 94.5308 100.85 94.5092 100.986 94.4821C101.122 94.4554 101.213 94.4207 101.259 94.3787C101.307 94.3358 101.345 94.2449 101.376 94.1079C101.408 93.9695 101.423 93.6614 101.423 93.1847L101.437 91.7737V87.8763C101.437 87.8041 101.418 87.2226 101.383 86.1305H100.387C99.9765 86.1305 99.6223 86.14 99.3243 86.157C99.0253 86.1747 98.8519 86.2212 98.8056 86.2947C98.7588 86.3677 98.7153 86.6075 98.6754 87.0132L98.6084 87.6281L98.5485 87.689H98.24L98.187 87.6356C98.178 86.5607 98.1577 85.8605 98.1269 85.535L98.187 85.4749C98.9624 85.5109 100.253 85.5283 102.058 85.5283C103.9 85.5283 105.192 85.5109 105.936 85.4749Z"/>
<path fill="#4B2A91" d="M106.664 85.5225L106.718 85.4751C108.246 85.5016 109.225 85.5156 109.653 85.5156C111.115 85.5156 112.416 85.5016 113.558 85.4751L113.591 85.5225C113.48 85.9504 113.397 86.6215 113.344 87.5346L113.304 87.5878H112.976L112.916 87.5346C112.92 87.4945 112.923 87.4588 112.923 87.4275C112.923 87.0494 112.894 86.6877 112.836 86.3445C112.555 86.2204 112.166 86.1387 111.669 86.1004C111.172 86.0622 110.798 86.0435 110.549 86.0435C110.196 86.0435 109.746 86.0683 109.198 86.1169L109.172 87.1866L109.152 88.4112L109.131 89.7681C109.613 89.7951 110.056 89.808 110.462 89.808C110.872 89.808 111.215 89.7951 111.491 89.7681C111.768 89.7416 111.93 89.7134 111.976 89.6848C112.023 89.6554 112.059 89.5994 112.083 89.5171C112.108 89.4346 112.129 89.289 112.147 89.0798L112.174 88.6644L112.227 88.611H112.534L112.588 88.6644C112.579 89.1509 112.568 89.6391 112.555 90.1288L112.588 91.6337L112.534 91.6869H112.227L112.174 91.6337L112.127 91.2323C112.087 90.9208 112.057 90.7344 112.04 90.6741C112.022 90.6135 111.981 90.5614 111.916 90.5172C111.852 90.4729 111.686 90.4369 111.418 90.4104C111.151 90.3834 110.783 90.3694 110.314 90.3694C110.056 90.3694 109.661 90.3809 109.131 90.4031C109.109 90.7779 109.098 91.4021 109.098 92.2753C109.098 93.2114 109.109 93.9002 109.131 94.3416H110.362C111.445 94.3416 112.122 94.3279 112.394 94.3009C112.666 94.2742 112.925 94.2102 113.17 94.1083C113.21 94.0045 113.276 93.7673 113.367 93.395C113.458 93.0231 113.511 92.7906 113.524 92.6965L113.591 92.6497H113.913L113.966 92.6965C113.925 92.8882 113.886 93.223 113.849 93.6998C113.811 94.1768 113.792 94.5847 113.792 94.9233L113.745 94.9766C112.894 94.9501 111.779 94.9371 110.402 94.9371L108.583 94.9233C108.16 94.9233 107.718 94.9408 107.259 94.9766L107.206 94.9233V94.7021L107.259 94.6359C107.522 94.5024 107.672 94.4186 107.71 94.3849C107.748 94.352 107.779 93.9616 107.804 93.2151C107.828 92.4685 107.841 91.8987 107.841 91.5068V89.0531L107.834 87.5346C107.834 87.2054 107.829 86.9365 107.821 86.7299C107.812 86.5213 107.796 86.374 107.774 86.2841C107.752 86.1945 107.726 86.1331 107.697 86.0971C107.668 86.0609 107.621 86.0318 107.557 86.0075C107.492 85.9823 107.382 85.9607 107.226 85.9437L106.718 85.903L106.664 85.8563V85.5225Z"/>
<path fill="#4B2A91" d="M114.602 85.5225L114.656 85.4751C115.471 85.5111 116.106 85.5286 116.561 85.5286C117.065 85.5286 117.745 85.5133 118.601 85.482C118.917 85.4728 119.147 85.4691 119.289 85.4691C120.417 85.4691 121.182 85.6738 121.582 86.084C121.984 86.4938 122.184 86.9798 122.184 87.5415C122.184 87.9155 122.086 88.2831 121.89 88.645C121.694 89.0052 121.404 89.3148 121.021 89.5706C120.638 89.8274 120.109 90.0193 119.436 90.1497C119.561 90.3229 119.786 90.6241 120.112 91.052L121.061 92.3089C121.369 92.7234 121.699 93.1614 122.051 93.6233C122.403 94.0844 122.63 94.3453 122.733 94.4056C122.835 94.4649 122.923 94.5024 122.997 94.5151C123.07 94.5291 123.187 94.5362 123.348 94.5362L123.402 94.5896V94.9035L123.341 94.9641C123.128 94.9371 122.873 94.9233 122.579 94.9233C122.263 94.9233 121.917 94.9371 121.542 94.9641C121.235 94.5896 120.751 93.9405 120.091 93.0171C119.325 91.9476 118.54 90.9557 117.738 90.0426L117.805 89.8345C118.037 89.8487 118.217 89.8554 118.347 89.8554C119.117 89.8554 119.722 89.6705 120.159 89.2995C120.595 88.9296 120.813 88.4171 120.813 87.7625C120.813 87.1739 120.618 86.7299 120.225 86.4285C119.833 86.1271 119.303 85.9773 118.634 85.9773C118.166 85.9773 117.725 86.0413 117.31 86.1704C117.244 86.2693 117.21 87.1043 117.21 88.6786V91.7742L117.217 93.0778C117.221 93.5809 117.234 93.9071 117.256 94.0544C117.279 94.2012 117.311 94.2986 117.353 94.349C117.396 94.3977 117.477 94.4382 117.598 94.4722C117.718 94.5058 118.015 94.531 118.486 94.5487L118.54 94.5896V94.9233L118.486 94.9766C118.464 94.9766 118.072 94.9641 117.31 94.9371C116.994 94.9281 116.746 94.9233 116.568 94.9233C116.43 94.9233 115.792 94.9408 114.656 94.9766L114.602 94.9233V94.5896L114.656 94.5487C115.07 94.531 115.346 94.5095 115.485 94.4823C115.623 94.4556 115.716 94.4211 115.762 94.3789C115.809 94.336 115.847 94.2451 115.876 94.1083C115.905 93.9698 115.921 93.6617 115.926 93.1849L115.933 91.7742V88.6786L115.919 87.3741C115.915 86.8656 115.903 86.5392 115.882 86.3912C115.863 86.2447 115.831 86.1458 115.789 86.0971C115.746 86.0484 115.666 86.0075 115.545 85.9773C115.424 85.9461 115.128 85.9218 114.656 85.903L114.602 85.8563V85.5225Z"/>
</svg>