<svg width="25" height="25" viewBox="0 0 25 25" fill="none" xmlns="http://www.w3.org/2000/svg">
<g clip-path="url(#clip0_62_508)">
<path d="M12.5361 2.59014C15.7424 2.59014 16.1221 2.6042 17.383 2.66045C18.5549 2.71201 19.1877 2.90889 19.6096 3.07295C20.1674 3.28857 20.5705 3.55107 20.9877 3.96826C21.4096 4.39014 21.6674 4.78857 21.883 5.34639C22.0471 5.76826 22.2439 6.40576 22.2955 7.57295C22.3518 8.83857 22.3658 9.21826 22.3658 12.4198C22.3658 15.6261 22.3518 16.0058 22.2955 17.2667C22.2439 18.4386 22.0471 19.0714 21.883 19.4933C21.6674 20.0511 21.4049 20.4542 20.9877 20.8714C20.5658 21.2933 20.1674 21.5511 19.6096 21.7667C19.1877 21.9308 18.5502 22.1276 17.383 22.1792C16.1174 22.2354 15.7377 22.2495 12.5361 22.2495C9.32988 22.2495 8.9502 22.2354 7.68926 22.1792C6.51738 22.1276 5.88457 21.9308 5.4627 21.7667C4.90488 21.5511 4.50176 21.2886 4.08457 20.8714C3.6627 20.4495 3.40488 20.0511 3.18926 19.4933C3.0252 19.0714 2.82832 18.4339 2.77676 17.2667C2.72051 16.0011 2.70645 15.6214 2.70645 12.4198C2.70645 9.21357 2.72051 8.83389 2.77676 7.57295C2.82832 6.40107 3.0252 5.76826 3.18926 5.34639C3.40488 4.78857 3.66738 4.38545 4.08457 3.96826C4.50645 3.54639 4.90488 3.28857 5.4627 3.07295C5.88457 2.90889 6.52207 2.71201 7.68926 2.66045C8.9502 2.6042 9.32988 2.59014 12.5361 2.59014ZM12.5361 0.429199C9.27832 0.429199 8.87051 0.443262 7.59082 0.499512C6.31582 0.555762 5.43926 0.762012 4.67988 1.05732C3.8877 1.3667 3.21738 1.77451 2.55176 2.44482C1.88145 3.11045 1.47363 3.78076 1.16426 4.56826C0.868945 5.33232 0.662695 6.2042 0.606445 7.4792C0.550195 8.76357 0.536133 9.17139 0.536133 12.4292C0.536133 15.687 0.550195 16.0948 0.606445 17.3745C0.662695 18.6495 0.868945 19.5261 1.16426 20.2854C1.47363 21.0776 1.88145 21.7479 2.55176 22.4136C3.21738 23.0792 3.8877 23.4917 4.6752 23.7964C5.43926 24.0917 6.31113 24.2979 7.58613 24.3542C8.86582 24.4104 9.27363 24.4245 12.5314 24.4245C15.7893 24.4245 16.1971 24.4104 17.4768 24.3542C18.7518 24.2979 19.6283 24.0917 20.3877 23.7964C21.1752 23.4917 21.8455 23.0792 22.5111 22.4136C23.1768 21.7479 23.5893 21.0776 23.8939 20.2901C24.1893 19.5261 24.3955 18.6542 24.4518 17.3792C24.508 16.0995 24.5221 15.6917 24.5221 12.4339C24.5221 9.17607 24.508 8.76826 24.4518 7.48857C24.3955 6.21357 24.1893 5.33701 23.8939 4.57764C23.5986 3.78076 23.1908 3.11045 22.5205 2.44482C21.8549 1.7792 21.1846 1.3667 20.3971 1.06201C19.633 0.766699 18.7611 0.560449 17.4861 0.504199C16.2018 0.443262 15.7939 0.429199 12.5361 0.429199Z" fill="#000100"/>
<path d="M12.5361 6.26514C9.13301 6.26514 6.37207 9.02607 6.37207 12.4292C6.37207 15.8323 9.13301 18.5933 12.5361 18.5933C15.9393 18.5933 18.7002 15.8323 18.7002 12.4292C18.7002 9.02607 15.9393 6.26514 12.5361 6.26514ZM12.5361 16.4276C10.3283 16.4276 8.5377 14.637 8.5377 12.4292C8.5377 10.2214 10.3283 8.43076 12.5361 8.43076C14.7439 8.43076 16.5346 10.2214 16.5346 12.4292C16.5346 14.637 14.7439 16.4276 12.5361 16.4276Z" fill="#000100"/>
<path d="M20.383 6.02134C20.383 6.81822 19.7361 7.46041 18.9439 7.46041C18.1471 7.46041 17.5049 6.81353 17.5049 6.02134C17.5049 5.22446 18.1518 4.58228 18.9439 4.58228C19.7361 4.58228 20.383 5.22915 20.383 6.02134Z" fill="#000100"/>
</g>
<defs>
<clipPath id="clip0_62_508">
<rect width="24" height="24" fill="white" transform="translate(0.536133 0.429199)"/>
</clipPath>
</defs>
</svg>
