<svg width="15" height="13" viewBox="0 0 15 13" fill="none" xmlns="http://www.w3.org/2000/svg">
<path d="M0.115378 11.5961C0.115375 11.5962 0.115364 11.5961 0.115365 11.5961C0.947996 6.13304 4.2925 4.47411 6.26294 3.97017C6.83955 3.8227 7.2886 3.33033 7.28855 2.73517L7.28849 1.90351C7.28849 1.04155 8.28404 0.560618 8.95871 1.09724L14.092 5.16714C14.5427 5.52473 14.8055 6.06878 14.8055 6.64417C14.8055 7.21956 14.5427 7.76348 14.092 8.12119L8.95943 12.194C8.28404 12.7299 7.28921 12.249 7.28921 11.3877C7.28913 10.5477 6.57103 9.87358 5.75068 10.0541C3.77189 10.4896 2.38254 11.4178 1.45815 12.2952C0.90668 12.8169 0.000720866 12.3472 0.11539 11.5961C0.115391 11.5961 0.11538 11.5961 0.115378 11.5961Z" fill="white"/>
</svg>
