<svg width="25" height="25" viewBox="0 0 25 25" fill="none" xmlns="http://www.w3.org/2000/svg">
<g clip-path="url(#clip0_62_514)">
<path d="M0.560059 7.65914L1.52906 8.93564C1.52906 8.93564 3.53906 7.35014 4.20806 8.13914C4.88606 8.93564 7.45256 18.4996 8.30156 20.2681C9.04256 21.8176 11.0991 23.8621 13.3461 22.4041C15.6141 20.9371 23.1006 14.5441 24.4416 6.97964C25.7796 -0.571359 15.4176 1.00964 14.3316 7.59164C17.0646 5.95064 18.5376 8.26364 17.1366 10.8781C15.7326 13.5031 14.4441 15.2146 13.7766 15.2146C13.1211 15.2146 12.6021 13.4536 11.8341 10.3966C11.0466 7.23014 11.0466 1.52114 7.75256 2.16914C4.63856 2.78414 0.560059 7.65914 0.560059 7.65914Z" fill="black"/>
</g>
<defs>
<clipPath id="clip0_62_514">
<rect width="24" height="24" fill="white" transform="translate(0.560059 0.429199)"/>
</clipPath>
</defs>
</svg>
