<svg width="25" height="25" viewBox="0 0 25 25" fill="none" xmlns="http://www.w3.org/2000/svg">
<g clip-path="url(#clip0_62_504)">
<path d="M24.2731 7.62925C24.2731 7.62925 24.0388 5.97456 23.3169 5.248C22.4028 4.29175 21.381 4.28706 20.9122 4.23081C17.556 3.98706 12.5169 3.98706 12.5169 3.98706H12.5075C12.5075 3.98706 7.46846 3.98706 4.11221 4.23081C3.64346 4.28706 2.62158 4.29175 1.70752 5.248C0.985645 5.97456 0.755957 7.62925 0.755957 7.62925C0.755957 7.62925 0.512207 9.57456 0.512207 11.5152V13.3339C0.512207 15.2746 0.75127 17.2199 0.75127 17.2199C0.75127 17.2199 0.985644 18.8746 1.70283 19.6011C2.61689 20.5574 3.81689 20.5246 4.35127 20.6277C6.27314 20.8105 12.5122 20.8667 12.5122 20.8667C12.5122 20.8667 17.556 20.8574 20.9122 20.6183C21.381 20.5621 22.4028 20.5574 23.3169 19.6011C24.0388 18.8746 24.2731 17.2199 24.2731 17.2199C24.2731 17.2199 24.5122 15.2792 24.5122 13.3339V11.5152C24.5122 9.57456 24.2731 7.62925 24.2731 7.62925ZM10.0325 15.5417V8.79644L16.5153 12.1808L10.0325 15.5417Z" fill="black"/>
</g>
<defs>
<clipPath id="clip0_62_504">
<rect width="24" height="24" fill="white" transform="translate(0.512207 0.429199)"/>
</clipPath>
</defs>
</svg>
